<svg width="77" height="38" viewBox="0 0 77 38" fill="none" xmlns="http://www.w3.org/2000/svg">
<rect width="77" height="38" rx="19" fill="#0DAADC"/>
<path d="M26.688 15.032V18.76H30.752V19.96H26.688V23.8H31.232V25H25.232V13.832H31.232V15.032H26.688ZM32.8911 20.584C32.8911 19.688 33.0725 18.904 33.4351 18.232C33.7978 17.5493 34.2938 17.0213 34.9231 16.648C35.5631 16.2747 36.2778 16.088 37.0671 16.088C37.7498 16.088 38.3845 16.248 38.9711 16.568C39.5578 16.8773 40.0058 17.288 40.3151 17.8V13.16H41.7871V25H40.3151V23.352C40.0271 23.8747 39.6005 24.3067 39.0351 24.648C38.4698 24.9787 37.8085 25.144 37.0511 25.144C36.2725 25.144 35.5631 24.952 34.9231 24.568C34.2938 24.184 33.7978 23.6453 33.4351 22.952C33.0725 22.2587 32.8911 21.4693 32.8911 20.584ZM40.3151 20.6C40.3151 19.9387 40.1818 19.3627 39.9151 18.872C39.6485 18.3813 39.2858 18.008 38.8271 17.752C38.3791 17.4853 37.8831 17.352 37.3391 17.352C36.7951 17.352 36.2991 17.48 35.8511 17.736C35.4031 17.992 35.0458 18.3653 34.7791 18.856C34.5125 19.3467 34.3791 19.9227 34.3791 20.584C34.3791 21.256 34.5125 21.8427 34.7791 22.344C35.0458 22.8347 35.4031 23.2133 35.8511 23.48C36.2991 23.736 36.7951 23.864 37.3391 23.864C37.8831 23.864 38.3791 23.736 38.8271 23.48C39.2858 23.2133 39.6485 22.8347 39.9151 22.344C40.1818 21.8427 40.3151 21.2613 40.3151 20.6ZM44.9996 14.808C44.7223 14.808 44.4876 14.712 44.2956 14.52C44.1036 14.328 44.0076 14.0933 44.0076 13.816C44.0076 13.5387 44.1036 13.304 44.2956 13.112C44.4876 12.92 44.7223 12.824 44.9996 12.824C45.2663 12.824 45.4903 12.92 45.6716 13.112C45.8636 13.304 45.9596 13.5387 45.9596 13.816C45.9596 14.0933 45.8636 14.328 45.6716 14.52C45.4903 14.712 45.2663 14.808 44.9996 14.808ZM45.7036 16.232V25H44.2476V16.232H45.7036ZM49.9611 17.432V22.6C49.9611 23.0267 50.0518 23.3307 50.2331 23.512C50.4145 23.6827 50.7291 23.768 51.1771 23.768H52.2491V25H50.9371C50.1265 25 49.5185 24.8133 49.1131 24.44C48.7078 24.0667 48.5051 23.4533 48.5051 22.6V17.432H47.3691V16.232H48.5051V14.024H49.9611V16.232H52.2491V17.432H49.9611Z" fill="white"/>
</svg>
