<svg width="26" height="25" viewBox="0 0 26 25" fill="none" xmlns="http://www.w3.org/2000/svg">
<path d="M2.33331 22.6668H23.6666M2.33331 22.6668V17.3335L13 6.66684M2.33331 22.6668L7.66665 22.6668L18.3333 12.0002M13 6.66684L16.8248 2.84197L16.8271 2.8397C17.3536 2.31319 17.6174 2.04947 17.9214 1.95069C18.1891 1.86368 18.4776 1.86368 18.7454 1.95069C19.0492 2.0494 19.3126 2.31282 19.8384 2.83859L22.1581 5.15832C22.6861 5.68634 22.9503 5.95047 23.0492 6.25491C23.1362 6.5227 23.1362 6.81116 23.0492 7.07895C22.9503 7.38317 22.6866 7.6469 22.1593 8.17417L22.1582 8.1753L18.3333 12.0002M13 6.66684L18.3333 12.0002" stroke="white" stroke-width="3" stroke-linecap="round" stroke-linejoin="round"/>
</svg>
