<svg width="333" height="160" viewBox="0 0 333 160" fill="none" xmlns="http://www.w3.org/2000/svg">
<path d="M167.5 128C167.5 128.828 168.172 129.5 169 129.5C169.828 129.5 170.5 128.828 170.5 128L167.5 128ZM170.061 53.9393C169.475 53.3536 168.525 53.3536 167.939 53.9393L158.393 63.4853C157.808 64.0711 157.808 65.0208 158.393 65.6066C158.979 66.1924 159.929 66.1924 160.515 65.6066L169 57.1213L177.485 65.6066C178.071 66.1924 179.021 66.1924 179.607 65.6066C180.192 65.0208 180.192 64.0711 179.607 63.4853L170.061 53.9393ZM170.5 128C170.5 127.946 170.5 127.891 170.5 127.836C170.5 127.782 170.5 127.727 170.5 127.672C170.5 127.618 170.5 127.563 170.5 127.508C170.5 127.453 170.5 127.398 170.5 127.343C170.5 127.288 170.5 127.233 170.5 127.178C170.5 127.123 170.5 127.067 170.5 127.012C170.5 126.957 170.5 126.902 170.5 126.846C170.5 126.791 170.5 126.735 170.5 126.68C170.5 126.624 170.5 126.569 170.5 126.513C170.5 126.457 170.5 126.402 170.5 126.346C170.5 126.29 170.5 126.234 170.5 126.179C170.5 126.123 170.5 126.067 170.5 126.011C170.5 125.955 170.5 125.899 170.5 125.843C170.5 125.786 170.5 125.73 170.5 125.674C170.5 125.618 170.5 125.561 170.5 125.505C170.5 125.449 170.5 125.392 170.5 125.336C170.5 125.279 170.5 125.223 170.5 125.166C170.5 125.11 170.5 125.053 170.5 124.996C170.5 124.94 170.5 124.883 170.5 124.826C170.5 124.769 170.5 124.712 170.5 124.655C170.5 124.598 170.5 124.541 170.5 124.484C170.5 124.427 170.5 124.37 170.5 124.313C170.5 124.256 170.5 124.199 170.5 124.141C170.5 124.084 170.5 124.027 170.5 123.97C170.5 123.912 170.5 123.855 170.5 123.797C170.5 123.74 170.5 123.682 170.5 123.625C170.5 123.567 170.5 123.509 170.5 123.452C170.5 123.394 170.5 123.336 170.5 123.278C170.5 123.221 170.5 123.163 170.5 123.105C170.5 123.047 170.5 122.989 170.5 122.931C170.5 122.873 170.5 122.815 170.5 122.757C170.5 122.699 170.5 122.641 170.5 122.582C170.5 122.524 170.5 122.466 170.5 122.408C170.5 122.349 170.5 122.291 170.5 122.232C170.5 122.174 170.5 122.116 170.5 122.057C170.5 121.998 170.5 121.94 170.5 121.881C170.5 121.823 170.5 121.764 170.5 121.705C170.5 121.647 170.5 121.588 170.5 121.529C170.5 121.47 170.5 121.411 170.5 121.352C170.5 121.294 170.5 121.235 170.5 121.176C170.5 121.117 170.5 121.058 170.5 120.998C170.5 120.939 170.5 120.88 170.5 120.821C170.5 120.762 170.5 120.703 170.5 120.643C170.5 120.584 170.5 120.525 170.5 120.465C170.5 120.406 170.5 120.347 170.5 120.287C170.5 120.228 170.5 120.168 170.5 120.109C170.5 120.049 170.5 119.989 170.5 119.93C170.5 119.87 170.5 119.811 170.5 119.751C170.5 119.691 170.5 119.631 170.5 119.572C170.5 119.512 170.5 119.452 170.5 119.392C170.5 119.332 170.5 119.272 170.5 119.212C170.5 119.152 170.5 119.092 170.5 119.032C170.5 118.972 170.5 118.912 170.5 118.852C170.5 118.792 170.5 118.731 170.5 118.671C170.5 118.611 170.5 118.551 170.5 118.49C170.5 118.43 170.5 118.37 170.5 118.309C170.5 118.249 170.5 118.189 170.5 118.128C170.5 118.068 170.5 118.007 170.5 117.947C170.5 117.886 170.5 117.825 170.5 117.765C170.5 117.704 170.5 117.644 170.5 117.583C170.5 117.522 170.5 117.461 170.5 117.401C170.5 117.34 170.5 117.279 170.5 117.218C170.5 117.157 170.5 117.097 170.5 117.036C170.5 116.975 170.5 116.914 170.5 116.853C170.5 116.792 170.5 116.731 170.5 116.67C170.5 116.609 170.5 116.548 170.5 116.486C170.5 116.425 170.5 116.364 170.5 116.303C170.5 116.242 170.5 116.18 170.5 116.119C170.5 116.058 170.5 115.997 170.5 115.935C170.5 115.874 170.5 115.813 170.5 115.751C170.5 115.69 170.5 115.628 170.5 115.567C170.5 115.505 170.5 115.444 170.5 115.382C170.5 115.321 170.5 115.259 170.5 115.198C170.5 115.136 170.5 115.074 170.5 115.013C170.5 114.951 170.5 114.889 170.5 114.828C170.5 114.766 170.5 114.704 170.5 114.642C170.5 114.581 170.5 114.519 170.5 114.457C170.5 114.395 170.5 114.333 170.5 114.271C170.5 114.209 170.5 114.148 170.5 114.086C170.5 114.024 170.5 113.962 170.5 113.9C170.5 113.838 170.5 113.776 170.5 113.713C170.5 113.651 170.5 113.589 170.5 113.527C170.5 113.465 170.5 113.403 170.5 113.341C170.5 113.278 170.5 113.216 170.5 113.154C170.5 113.092 170.5 113.03 170.5 112.967C170.5 112.905 170.5 112.843 170.5 112.78C170.5 112.718 170.5 112.656 170.5 112.593C170.5 112.531 170.5 112.468 170.5 112.406C170.5 112.343 170.5 112.281 170.5 112.218C170.5 112.156 170.5 112.093 170.5 112.031C170.5 111.968 170.5 111.906 170.5 111.843C170.5 111.781 170.5 111.718 170.5 111.655C170.5 111.593 170.5 111.53 170.5 111.467C170.5 111.405 170.5 111.342 170.5 111.279C170.5 111.217 170.5 111.154 170.5 111.091C170.5 111.028 170.5 110.965 170.5 110.903C170.5 110.84 170.5 110.777 170.5 110.714C170.5 110.651 170.5 110.588 170.5 110.526C170.5 110.463 170.5 110.4 170.5 110.337C170.5 110.274 170.5 110.211 170.5 110.148C170.5 110.085 170.5 110.022 170.5 109.959C170.5 109.896 170.5 109.833 170.5 109.77C170.5 109.707 170.5 109.644 170.5 109.581C170.5 109.518 170.5 109.454 170.5 109.391C170.5 109.328 170.5 109.265 170.5 109.202C170.5 109.139 170.5 109.076 170.5 109.012C170.5 108.949 170.5 108.886 170.5 108.823C170.5 108.76 170.5 108.696 170.5 108.633C170.5 108.57 170.5 108.507 170.5 108.443C170.5 108.38 170.5 108.317 170.5 108.253C170.5 108.19 170.5 108.127 170.5 108.063C170.5 108 170.5 107.937 170.5 107.873C170.5 107.81 170.5 107.747 170.5 107.683C170.5 107.62 170.5 107.556 170.5 107.493C170.5 107.43 170.5 107.366 170.5 107.303C170.5 107.239 170.5 107.176 170.5 107.112C170.5 107.049 170.5 106.985 170.5 106.922C170.5 106.858 170.5 106.795 170.5 106.731C170.5 106.668 170.5 106.604 170.5 106.541C170.5 106.477 170.5 106.414 170.5 106.35C170.5 106.287 170.5 106.223 170.5 106.16C170.5 106.096 170.5 106.032 170.5 105.969C170.5 105.905 170.5 105.842 170.5 105.778C170.5 105.714 170.5 105.651 170.5 105.587C170.5 105.523 170.5 105.46 170.5 105.396C170.5 105.333 170.5 105.269 170.5 105.205C170.5 105.142 170.5 105.078 170.5 105.014C170.5 104.951 170.5 104.887 170.5 104.823C170.5 104.76 170.5 104.696 170.5 104.632C170.5 104.568 170.5 104.505 170.5 104.441C170.5 104.377 170.5 104.314 170.5 104.25C170.5 104.186 170.5 104.122 170.5 104.059C170.5 103.995 170.5 103.931 170.5 103.868C170.5 103.804 170.5 103.74 170.5 103.676C170.5 103.613 170.5 103.549 170.5 103.485C170.5 103.421 170.5 103.358 170.5 103.294C170.5 103.23 170.5 103.166 170.5 103.103C170.5 103.039 170.5 102.975 170.5 102.911C170.5 102.848 170.5 102.784 170.5 102.72C170.5 102.656 170.5 102.592 170.5 102.529C170.5 102.465 170.5 102.401 170.5 102.337C170.5 102.274 170.5 102.21 170.5 102.146C170.5 102.082 170.5 102.019 170.5 101.955C170.5 101.891 170.5 101.827 170.5 101.764C170.5 101.7 170.5 101.636 170.5 101.572C170.5 101.508 170.5 101.445 170.5 101.381C170.5 101.317 170.5 101.253 170.5 101.19C170.5 101.126 170.5 101.062 170.5 100.998C170.5 100.935 170.5 100.871 170.5 100.807C170.5 100.743 170.5 100.68 170.5 100.616C170.5 100.552 170.5 100.489 170.5 100.425C170.5 100.361 170.5 100.297 170.5 100.234C170.5 100.17 170.5 100.106 170.5 100.043C170.5 99.9788 170.5 99.9151 170.5 99.8514C170.5 99.7877 170.5 99.7241 170.5 99.6604C170.5 99.5967 170.5 99.533 170.5 99.4694C170.5 99.4057 170.5 99.342 170.5 99.2784C170.5 99.2147 170.5 99.1511 170.5 99.0874C170.5 99.0238 170.5 98.9602 170.5 98.8965C170.5 98.8329 170.5 98.7693 170.5 98.7057C170.5 98.6421 170.5 98.5785 170.5 98.5149C170.5 98.4513 170.5 98.3877 170.5 98.3242C170.5 98.2606 170.5 98.197 170.5 98.1335C170.5 98.0699 170.5 98.0064 170.5 97.9429C170.5 97.8794 170.5 97.8158 170.5 97.7523C170.5 97.6888 170.5 97.6253 170.5 97.5618C170.5 97.4984 170.5 97.4349 170.5 97.3714C170.5 97.308 170.5 97.2445 170.5 97.1811C170.5 97.1176 170.5 97.0542 170.5 96.9908C170.5 96.9274 170.5 96.864 170.5 96.8006C170.5 96.7372 170.5 96.6738 170.5 96.6105C170.5 96.5471 170.5 96.4838 170.5 96.4204C170.5 96.3571 170.5 96.2938 170.5 96.2305C170.5 96.1672 170.5 96.1039 170.5 96.0406C170.5 95.9774 170.5 95.9141 170.5 95.8509C170.5 95.7876 170.5 95.7244 170.5 95.6612C170.5 95.598 170.5 95.5348 170.5 95.4716C170.5 95.4084 170.5 95.3453 170.5 95.2821C170.5 95.219 170.5 95.1559 170.5 95.0927C170.5 95.0296 170.5 94.9665 170.5 94.9035C170.5 94.8404 170.5 94.7773 170.5 94.7143C170.5 94.6513 170.5 94.5882 170.5 94.5252C170.5 94.4622 170.5 94.3993 170.5 94.3363C170.5 94.2733 170.5 94.2104 170.5 94.1475C170.5 94.0846 170.5 94.0217 170.5 93.9588C170.5 93.8959 170.5 93.833 170.5 93.7702C170.5 93.7073 170.5 93.6445 170.5 93.5817C170.5 93.5189 170.5 93.4561 170.5 93.3934C170.5 93.3306 170.5 93.2679 170.5 93.2052C170.5 93.1425 170.5 93.0798 170.5 93.0171C170.5 92.9544 170.5 92.8918 170.5 92.8292C170.5 92.7665 170.5 92.7039 170.5 92.6414C170.5 92.5788 170.5 92.5162 170.5 92.4537C170.5 92.3912 170.5 92.3287 170.5 92.2662C170.5 92.2037 170.5 92.1413 170.5 92.0788C170.5 92.0164 170.5 91.954 170.5 91.8916C170.5 91.8292 170.5 91.7669 170.5 91.7046C170.5 91.6422 170.5 91.5799 170.5 91.5176C170.5 91.4554 170.5 91.3931 170.5 91.3309C170.5 91.2687 170.5 91.2065 170.5 91.1443C170.5 91.0821 170.5 91.02 170.5 90.9579C170.5 90.8958 170.5 90.8337 170.5 90.7716C170.5 90.7095 170.5 90.6475 170.5 90.5855C170.5 90.5235 170.5 90.4615 170.5 90.3996C170.5 90.3376 170.5 90.2757 170.5 90.2138C170.5 90.152 170.5 90.0901 170.5 90.0283C170.5 89.9664 170.5 89.9046 170.5 89.8429C170.5 89.7811 170.5 89.7194 170.5 89.6577C170.5 89.596 170.5 89.5343 170.5 89.4726C170.5 89.411 170.5 89.3494 170.5 89.2878C170.5 89.2262 170.5 89.1647 170.5 89.1032C170.5 89.0417 170.5 88.9802 170.5 88.9187C170.5 88.8573 170.5 88.7959 170.5 88.7345C170.5 88.6731 170.5 88.6117 170.5 88.5504C170.5 88.4891 170.5 88.4278 170.5 88.3666C170.5 88.3053 170.5 88.2441 170.5 88.1829C170.5 88.1217 170.5 88.0606 170.5 87.9995C170.5 87.9384 170.5 87.8773 170.5 87.8163C170.5 87.7552 170.5 87.6942 170.5 87.6333C170.5 87.5723 170.5 87.5114 170.5 87.4505C170.5 87.3896 170.5 87.3287 170.5 87.2679C170.5 87.2071 170.5 87.1463 170.5 87.0855C170.5 87.0248 170.5 86.9641 170.5 86.9034C170.5 86.8427 170.5 86.7821 170.5 86.7215C170.5 86.6609 170.5 86.6003 170.5 86.5398C170.5 86.4793 170.5 86.4188 170.5 86.3584C170.5 86.2979 170.5 86.2375 170.5 86.1772C170.5 86.1168 170.5 86.0565 170.5 85.9962C170.5 85.9359 170.5 85.8757 170.5 85.8155C170.5 85.7553 170.5 85.6951 170.5 85.635C170.5 85.5749 170.5 85.5148 170.5 85.4548C170.5 85.3947 170.5 85.3347 170.5 85.2748C170.5 85.2148 170.5 85.1549 170.5 85.095C170.5 85.0352 170.5 84.9754 170.5 84.9156C170.5 84.8558 170.5 84.796 170.5 84.7364C170.5 84.6767 170.5 84.617 170.5 84.5574C170.5 84.4978 170.5 84.4382 170.5 84.3787C170.5 84.3192 170.5 84.2597 170.5 84.2003C170.5 84.1408 170.5 84.0815 170.5 84.0221C170.5 83.9628 170.5 83.9035 170.5 83.8442C170.5 83.785 170.5 83.7258 170.5 83.6666C170.5 83.6075 170.5 83.5483 170.5 83.4893C170.5 83.4302 170.5 83.3712 170.5 83.3122C170.5 83.2533 170.5 83.1943 170.5 83.1355C170.5 83.0766 170.5 83.0178 170.5 82.959C170.5 82.9002 170.5 82.8415 170.5 82.7828C170.5 82.7241 170.5 82.6655 170.5 82.6069C170.5 82.5483 170.5 82.4897 170.5 82.4313C170.5 82.3728 170.5 82.3143 170.5 82.2559C170.5 82.1976 170.5 82.1392 170.5 82.0809C170.5 82.0226 170.5 81.9644 170.5 81.9062C170.5 81.848 170.5 81.7899 170.5 81.7318C170.5 81.6737 170.5 81.6157 170.5 81.5577C170.5 81.4997 170.5 81.4418 170.5 81.3839C170.5 81.3261 170.5 81.2682 170.5 81.2105C170.5 81.1527 170.5 81.095 170.5 81.0373C170.5 80.9796 170.5 80.922 170.5 80.8645C170.5 80.8069 170.5 80.7494 170.5 80.692C170.5 80.6345 170.5 80.5771 170.5 80.5198C170.5 80.4624 170.5 80.4051 170.5 80.3479C170.5 80.2907 170.5 80.2335 170.5 80.1764C170.5 80.1192 170.5 80.0622 170.5 80.0052C170.5 79.9482 170.5 79.8912 170.5 79.8343C170.5 79.7774 170.5 79.7206 170.5 79.6638C170.5 79.607 170.5 79.5503 170.5 79.4936C170.5 79.4369 170.5 79.3803 170.5 79.3238C170.5 79.2672 170.5 79.2107 170.5 79.1543C170.5 79.0978 170.5 79.0414 170.5 78.9851C170.5 78.9288 170.5 78.8725 170.5 78.8163C170.5 78.7601 170.5 78.704 170.5 78.6479C170.5 78.5918 170.5 78.5358 170.5 78.4798C170.5 78.4239 170.5 78.368 170.5 78.3121C170.5 78.2563 170.5 78.2005 170.5 78.1448C170.5 78.089 170.5 78.0334 170.5 77.9778C170.5 77.9222 170.5 77.8666 170.5 77.8112C170.5 77.7557 170.5 77.7003 170.5 77.6449C170.5 77.5896 170.5 77.5343 170.5 77.4791C170.5 77.4238 170.5 77.3687 170.5 77.3136C170.5 77.2585 170.5 77.2034 170.5 77.1485C170.5 77.0935 170.5 77.0386 170.5 76.9837C170.5 76.9289 170.5 76.8741 170.5 76.8194C170.5 76.7647 170.5 76.71 170.5 76.6555C170.5 76.6009 170.5 76.5464 170.5 76.4919C170.5 76.4374 170.5 76.3831 170.5 76.3287C170.5 76.2744 170.5 76.2202 170.5 76.166C170.5 76.1118 170.5 76.0577 170.5 76.0036C170.5 75.9495 170.5 75.8956 170.5 75.8416C170.5 75.7877 170.5 75.7339 170.5 75.6801C170.5 75.6263 170.5 75.5726 170.5 75.5189C170.5 75.4653 170.5 75.4117 170.5 75.3582C170.5 75.3047 170.5 75.2512 170.5 75.1979C170.5 75.1445 170.5 75.0912 170.5 75.038C170.5 74.9847 170.5 74.9316 170.5 74.8785C170.5 74.8254 170.5 74.7724 170.5 74.7194C170.5 74.6665 170.5 74.6136 170.5 74.5608C170.5 74.508 170.5 74.4552 170.5 74.4026C170.5 74.3499 170.5 74.2973 170.5 74.2448C170.5 74.1923 170.5 74.1398 170.5 74.0874C170.5 74.035 170.5 73.9827 170.5 73.9305C170.5 73.8783 170.5 73.8261 170.5 73.774C170.5 73.722 170.5 73.6699 170.5 73.618C170.5 73.5661 170.5 73.5142 170.5 73.4624C170.5 73.4106 170.5 73.3589 170.5 73.3073C170.5 73.2556 170.5 73.2041 170.5 73.1526C170.5 73.1011 170.5 73.0497 170.5 72.9984C170.5 72.947 170.5 72.8958 170.5 72.8446C170.5 72.7934 170.5 72.7423 170.5 72.6913C170.5 72.6402 170.5 72.5893 170.5 72.5384C170.5 72.4875 170.5 72.4367 170.5 72.386C170.5 72.3353 170.5 72.2846 170.5 72.2341C170.5 72.1835 170.5 72.133 170.5 72.0826C170.5 72.0322 170.5 71.9819 170.5 71.9316C170.5 71.8814 170.5 71.8312 170.5 71.7811C170.5 71.731 170.5 71.681 170.5 71.6311C170.5 71.5811 170.5 71.5313 170.5 71.4815C170.5 71.4318 170.5 71.3821 170.5 71.3325C170.5 71.2828 170.5 71.2333 170.5 71.1839C170.5 71.1344 170.5 71.0851 170.5 71.0358C170.5 70.9865 170.5 70.9373 170.5 70.8882C170.5 70.8391 170.5 70.79 170.5 70.7411C170.5 70.6921 170.5 70.6433 170.5 70.5945C170.5 70.5457 170.5 70.497 170.5 70.4484C170.5 70.3997 170.5 70.3512 170.5 70.3027C170.5 70.2543 170.5 70.2059 170.5 70.1576C170.5 70.1094 170.5 70.0612 170.5 70.0131C170.5 69.9649 170.5 69.9169 170.5 69.869C170.5 69.821 170.5 69.7732 170.5 69.7254C170.5 69.6776 170.5 69.63 170.5 69.5824C170.5 69.5348 170.5 69.4873 170.5 69.4398C170.5 69.3924 170.5 69.3451 170.5 69.2978C170.5 69.2506 170.5 69.2034 170.5 69.1563C170.5 69.1093 170.5 69.0623 170.5 69.0154C170.5 68.9685 170.5 68.9217 170.5 68.875C170.5 68.8283 170.5 68.7816 170.5 68.7351C170.5 68.6885 170.5 68.6421 170.5 68.5957C170.5 68.5494 170.5 68.5031 170.5 68.4569C170.5 68.4107 170.5 68.3646 170.5 68.3186C170.5 68.2726 170.5 68.2267 170.5 68.1809C170.5 68.1351 170.5 68.0894 170.5 68.0437C170.5 67.9981 170.5 67.9526 170.5 67.9071C170.5 67.8617 170.5 67.8163 170.5 67.771C170.5 67.7258 170.5 67.6806 170.5 67.6355C170.5 67.5904 170.5 67.5455 170.5 67.5006C170.5 67.4557 170.5 67.4109 170.5 67.3662C170.5 67.3215 170.5 67.2769 170.5 67.2323C170.5 67.1878 170.5 67.1434 170.5 67.0991C170.5 67.0547 170.5 67.0105 170.5 66.9664C170.5 66.9222 170.5 66.8782 170.5 66.8343C170.5 66.7903 170.5 66.7465 170.5 66.7027C170.5 66.6589 170.5 66.6153 170.5 66.5717C170.5 66.5282 170.5 66.4847 170.5 66.4413C170.5 66.398 170.5 66.3547 170.5 66.3115C170.5 66.2684 170.5 66.2253 170.5 66.1823C170.5 66.1393 170.5 66.0965 170.5 66.0537C170.5 66.0109 170.5 65.9682 170.5 65.9257C170.5 65.8831 170.5 65.8406 170.5 65.7982C170.5 65.7558 170.5 65.7136 170.5 65.6714C170.5 65.6292 170.5 65.5871 170.5 65.5451C170.5 65.5031 170.5 65.4613 170.5 65.4195C170.5 65.3777 170.5 65.336 170.5 65.2945C170.5 65.2529 170.5 65.2114 170.5 65.17C170.5 65.1287 170.5 65.0874 170.5 65.0462C170.5 65.0051 170.5 64.964 170.5 64.923C170.5 64.8821 170.5 64.8412 170.5 64.8004C170.5 64.7597 170.5 64.719 170.5 64.6785C170.5 64.6379 170.5 64.5975 170.5 64.5571C170.5 64.5168 170.5 64.4766 170.5 64.4364C170.5 64.3963 170.5 64.3563 170.5 64.3163C170.5 64.2764 170.5 64.2366 170.5 64.1969C170.5 64.1572 170.5 64.1176 170.5 64.0781C170.5 64.0386 170.5 63.9992 170.5 63.9599C170.5 63.9206 170.5 63.8814 170.5 63.8423C170.5 63.8033 170.5 63.7643 170.5 63.7254C170.5 63.6866 170.5 63.6478 170.5 63.6092C170.5 63.5705 170.5 63.532 170.5 63.4936C170.5 63.4552 170.5 63.4168 170.5 63.3786C170.5 63.3404 170.5 63.3023 170.5 63.2643C170.5 63.2263 170.5 63.1885 170.5 63.1507C170.5 63.1129 170.5 63.0752 170.5 63.0377C170.5 63.0001 170.5 62.9627 170.5 62.9254C170.5 62.888 170.5 62.8508 170.5 62.8137C170.5 62.7766 170.5 62.7396 170.5 62.7027C170.5 62.6658 170.5 62.6291 170.5 62.5924C170.5 62.5557 170.5 62.5192 170.5 62.4827C170.5 62.4463 170.5 62.41 170.5 62.3738C170.5 62.3376 170.5 62.3015 170.5 62.2655C170.5 62.2295 170.5 62.1936 170.5 62.1579C170.5 62.1221 170.5 62.0865 170.5 62.0509C170.5 62.0154 170.5 61.98 170.5 61.9447C170.5 61.9094 170.5 61.8742 170.5 61.8391C170.5 61.8041 170.5 61.7691 170.5 61.7343C170.5 61.6994 170.5 61.6647 170.5 61.6301C170.5 61.5955 170.5 61.561 170.5 61.5266C170.5 61.4923 170.5 61.458 170.5 61.4239C170.5 61.3897 170.5 61.3557 170.5 61.3218C170.5 61.2879 170.5 61.2541 170.5 61.2204C170.5 61.1868 170.5 61.1532 170.5 61.1198C170.5 61.0864 170.5 61.053 170.5 61.0199C170.5 60.9867 170.5 60.9536 170.5 60.9206C170.5 60.8877 170.5 60.8548 170.5 60.8221C170.5 60.7894 170.5 60.7568 170.5 60.7243C170.5 60.6919 170.5 60.6595 170.5 60.6273C170.5 60.5951 170.5 60.5629 170.5 60.531C170.5 60.499 170.5 60.4671 170.5 60.4353C170.5 60.4036 170.5 60.372 170.5 60.3405C170.5 60.309 170.5 60.2776 170.5 60.2463C170.5 60.2151 170.5 60.1839 170.5 60.1529C170.5 60.1219 170.5 60.091 170.5 60.0603C170.5 60.0295 170.5 59.9989 170.5 59.9683C170.5 59.9378 170.5 59.9074 170.5 59.8772C170.5 59.8469 170.5 59.8168 170.5 59.7867C170.5 59.7567 170.5 59.7268 170.5 59.6971C170.5 59.6673 170.5 59.6377 170.5 59.6081C170.5 59.5786 170.5 59.5492 170.5 59.52C170.5 59.4907 170.5 59.4616 170.5 59.4326C170.5 59.4036 170.5 59.3747 170.5 59.3459C170.5 59.3172 170.5 59.2885 170.5 59.26C170.5 59.2315 170.5 59.2032 170.5 59.1749C170.5 59.1467 170.5 59.1186 170.5 59.0906C170.5 59.0626 170.5 59.0348 170.5 59.007C170.5 58.9793 170.5 58.9517 170.5 58.9242C170.5 58.8968 170.5 58.8694 170.5 58.8422C170.5 58.815 170.5 58.7879 170.5 58.761C170.5 58.734 170.5 58.7072 170.5 58.6805C170.5 58.6539 170.5 58.6273 170.5 58.6009C170.5 58.5745 170.5 58.5482 170.5 58.522C170.5 58.4959 170.5 58.4698 170.5 58.4439C170.5 58.418 170.5 58.3923 170.5 58.3667C170.5 58.341 170.5 58.3155 170.5 58.2902C170.5 58.2648 170.5 58.2396 170.5 58.2145C170.5 58.1894 170.5 58.1644 170.5 58.1396C170.5 58.1148 170.5 58.0901 170.5 58.0655C170.5 58.041 170.5 58.0166 170.5 57.9923C170.5 57.968 170.5 57.9438 170.5 57.9198C170.5 57.8958 170.5 57.8719 170.5 57.8482C170.5 57.8244 170.5 57.8008 170.5 57.7774C170.5 57.7539 170.5 57.7306 170.5 57.7074C170.5 57.6842 170.5 57.6611 170.5 57.6382C170.5 57.6153 170.5 57.5925 170.5 57.5699C170.5 57.5472 170.5 57.5247 170.5 57.5023C170.5 57.48 170.5 57.4577 170.5 57.4356C170.5 57.4136 170.5 57.3916 170.5 57.3698C170.5 57.348 170.5 57.3263 170.5 57.3048C170.5 57.2832 170.5 57.2619 170.5 57.2406C170.5 57.2194 170.5 57.1982 170.5 57.1773C170.5 57.1563 170.5 57.1355 170.5 57.1148C170.5 57.0941 170.5 57.0736 170.5 57.0531C170.5 57.0327 170.5 57.0125 170.5 56.9924C170.5 56.9722 170.5 56.9523 170.5 56.9324C170.5 56.9126 170.5 56.8929 170.5 56.8734C170.5 56.8538 170.5 56.8344 170.5 56.8151C170.5 56.7959 170.5 56.7768 170.5 56.7578C170.5 56.7388 170.5 56.72 170.5 56.7013C170.5 56.6826 170.5 56.6641 170.5 56.6457C170.5 56.6273 170.5 56.609 170.5 56.5909C170.5 56.5728 170.5 56.5549 170.5 56.537C170.5 56.5192 170.5 56.5016 170.5 56.484C170.5 56.4665 170.5 56.4492 170.5 56.4319C170.5 56.4147 170.5 56.3976 170.5 56.3807C170.5 56.3638 170.5 56.347 170.5 56.3303C170.5 56.3137 170.5 56.2972 170.5 56.2809C170.5 56.2645 170.5 56.2483 170.5 56.2323C170.5 56.2162 170.5 56.2003 170.5 56.1846C170.5 56.1689 170.5 56.1533 170.5 56.1378C170.5 56.1224 170.5 56.1071 170.5 56.0919C170.5 56.0768 170.5 56.0618 170.5 56.0469C170.5 56.0321 170.5 56.0174 170.5 56.0029C170.5 55.9883 170.5 55.9739 170.5 55.9597C170.5 55.9454 170.5 55.9313 170.5 55.9174C170.5 55.9035 170.5 55.8897 170.5 55.8761C170.5 55.8624 170.5 55.8489 170.5 55.8356C170.5 55.8223 170.5 55.8091 170.5 55.7961C170.5 55.7831 170.5 55.7702 170.5 55.7575C170.5 55.7448 170.5 55.7322 170.5 55.7198C170.5 55.7074 170.5 55.6952 170.5 55.6831C170.5 55.671 170.5 55.659 170.5 55.6472C170.5 55.6355 170.5 55.6238 170.5 55.6123C170.5 55.6009 170.5 55.5896 170.5 55.5784C170.5 55.5672 170.5 55.5562 170.5 55.5454C170.5 55.5345 170.5 55.5238 170.5 55.5133C170.5 55.5028 170.5 55.4924 170.5 55.4822C170.5 55.4719 170.5 55.4619 170.5 55.452C170.5 55.4421 170.5 55.4323 170.5 55.4227C170.5 55.4132 170.5 55.4037 170.5 55.3945C170.5 55.3852 170.5 55.3761 170.5 55.3671C170.5 55.3582 170.5 55.3494 170.5 55.3407C170.5 55.3321 170.5 55.3236 170.5 55.3153C170.5 55.307 170.5 55.2989 170.5 55.2909C170.5 55.2829 170.5 55.275 170.5 55.2674C170.5 55.2597 170.5 55.2522 170.5 55.2449C170.5 55.2375 170.5 55.2303 170.5 55.2233C170.5 55.2163 170.5 55.2094 170.5 55.2027C170.5 55.196 170.5 55.1895 170.5 55.1831C170.5 55.1768 170.5 55.1706 170.5 55.1645C170.5 55.1585 170.5 55.1526 170.5 55.1469C170.5 55.1412 170.5 55.1356 170.5 55.1302C170.5 55.1248 170.5 55.1196 170.5 55.1146C170.5 55.1095 170.5 55.1046 170.5 55.0999C170.5 55.0952 170.5 55.0906 170.5 55.0862C170.5 55.0818 170.5 55.0776 170.5 55.0735C170.5 55.0695 170.5 55.0656 170.5 55.0618C170.5 55.0581 170.5 55.0545 170.5 55.0511C170.5 55.0478 170.5 55.0445 170.5 55.0415C170.5 55.0384 170.5 55.0355 170.5 55.0328C170.5 55.0301 170.5 55.0275 170.5 55.0251C170.5 55.0227 170.5 55.0205 170.5 55.0185C170.5 55.0164 170.5 55.0146 170.5 55.0128C170.5 55.0111 170.5 55.0096 170.5 55.0082C170.5 55.0069 170.5 55.0057 170.5 55.0046C170.5 55.0036 170.5 55.0027 170.5 55.0021C170.5 55.0014 170.5 55.0009 170.5 55.0005C170.5 55.0002 170.5 55 169 55C167.5 55 167.5 55.0002 167.5 55.0005C167.5 55.0009 167.5 55.0014 167.5 55.0021C167.5 55.0027 167.5 55.0036 167.5 55.0046C167.5 55.0057 167.5 55.0069 167.5 55.0082C167.5 55.0096 167.5 55.0111 167.5 55.0128C167.5 55.0146 167.5 55.0164 167.5 55.0185C167.5 55.0205 167.5 55.0227 167.5 55.0251C167.5 55.0275 167.5 55.0301 167.5 55.0328C167.5 55.0355 167.5 55.0384 167.5 55.0415C167.5 55.0445 167.5 55.0478 167.5 55.0511C167.5 55.0545 167.5 55.0581 167.5 55.0618C167.5 55.0656 167.5 55.0695 167.5 55.0735C167.5 55.0776 167.5 55.0818 167.5 55.0862C167.5 55.0906 167.5 55.0952 167.5 55.0999C167.5 55.1046 167.5 55.1095 167.5 55.1146C167.5 55.1196 167.5 55.1248 167.5 55.1302C167.5 55.1356 167.5 55.1412 167.5 55.1469C167.5 55.1526 167.5 55.1585 167.5 55.1645C167.5 55.1706 167.5 55.1768 167.5 55.1831C167.5 55.1895 167.5 55.196 167.5 55.2027C167.5 55.2094 167.5 55.2163 167.5 55.2233C167.5 55.2303 167.5 55.2375 167.5 55.2449C167.5 55.2522 167.5 55.2597 167.5 55.2674C167.5 55.275 167.5 55.2829 167.5 55.2909C167.5 55.2989 167.5 55.307 167.5 55.3153C167.5 55.3236 167.5 55.3321 167.5 55.3407C167.5 55.3494 167.5 55.3582 167.5 55.3671C167.5 55.3761 167.5 55.3852 167.5 55.3945C167.5 55.4037 167.5 55.4132 167.5 55.4227C167.5 55.4323 167.5 55.4421 167.5 55.452C167.5 55.4619 167.5 55.4719 167.5 55.4822C167.5 55.4924 167.5 55.5028 167.5 55.5133C167.5 55.5238 167.5 55.5345 167.5 55.5454C167.5 55.5562 167.5 55.5672 167.5 55.5784C167.5 55.5896 167.5 55.6009 167.5 55.6123C167.5 55.6238 167.5 55.6355 167.5 55.6472C167.5 55.659 167.5 55.671 167.5 55.6831C167.5 55.6952 167.5 55.7074 167.5 55.7198C167.5 55.7322 167.5 55.7448 167.5 55.7575C167.5 55.7702 167.5 55.7831 167.5 55.7961C167.5 55.8091 167.5 55.8223 167.5 55.8356C167.5 55.8489 167.5 55.8624 167.5 55.8761C167.5 55.8897 167.5 55.9035 167.5 55.9174C167.5 55.9313 167.5 55.9454 167.5 55.9597C167.5 55.9739 167.5 55.9883 167.5 56.0029C167.5 56.0174 167.5 56.0321 167.5 56.0469C167.5 56.0618 167.5 56.0768 167.5 56.0919C167.5 56.1071 167.5 56.1224 167.5 56.1378C167.5 56.1533 167.5 56.1689 167.5 56.1846C167.5 56.2003 167.5 56.2162 167.5 56.2323C167.5 56.2483 167.5 56.2645 167.5 56.2809C167.5 56.2972 167.5 56.3137 167.5 56.3303C167.5 56.347 167.5 56.3638 167.5 56.3807C167.5 56.3976 167.5 56.4147 167.5 56.4319C167.5 56.4492 167.5 56.4665 167.5 56.484C167.5 56.5016 167.5 56.5192 167.5 56.537C167.5 56.5549 167.5 56.5728 167.5 56.5909C167.5 56.609 167.5 56.6273 167.5 56.6457C167.5 56.6641 167.5 56.6826 167.5 56.7013C167.5 56.72 167.5 56.7388 167.5 56.7578C167.5 56.7768 167.5 56.7959 167.5 56.8151C167.5 56.8344 167.5 56.8538 167.5 56.8734C167.5 56.8929 167.5 56.9126 167.5 56.9324C167.5 56.9523 167.5 56.9722 167.5 56.9924C167.5 57.0125 167.5 57.0327 167.5 57.0531C167.5 57.0736 167.5 57.0941 167.5 57.1148C167.5 57.1355 167.5 57.1563 167.5 57.1773C167.5 57.1982 167.5 57.2194 167.5 57.2406C167.5 57.2619 167.5 57.2832 167.5 57.3048C167.5 57.3263 167.5 57.348 167.5 57.3698C167.5 57.3916 167.5 57.4136 167.5 57.4356C167.5 57.4577 167.5 57.48 167.5 57.5023C167.5 57.5247 167.5 57.5472 167.5 57.5699C167.5 57.5925 167.5 57.6153 167.5 57.6382C167.5 57.6611 167.5 57.6842 167.5 57.7074C167.5 57.7306 167.5 57.7539 167.5 57.7774C167.5 57.8008 167.5 57.8244 167.5 57.8482C167.5 57.8719 167.5 57.8958 167.5 57.9198C167.5 57.9438 167.5 57.968 167.5 57.9923C167.5 58.0166 167.5 58.041 167.5 58.0655C167.5 58.0901 167.5 58.1148 167.5 58.1396C167.5 58.1644 167.5 58.1894 167.5 58.2145C167.5 58.2396 167.5 58.2648 167.5 58.2902C167.5 58.3155 167.5 58.341 167.5 58.3667C167.5 58.3923 167.5 58.418 167.5 58.4439C167.5 58.4698 167.5 58.4959 167.5 58.522C167.5 58.5482 167.5 58.5745 167.5 58.6009C167.5 58.6273 167.5 58.6539 167.5 58.6805C167.5 58.7072 167.5 58.734 167.5 58.761C167.5 58.7879 167.5 58.815 167.5 58.8422C167.5 58.8694 167.5 58.8968 167.5 58.9242C167.5 58.9517 167.5 58.9793 167.5 59.007C167.5 59.0348 167.5 59.0626 167.5 59.0906C167.5 59.1186 167.5 59.1467 167.5 59.1749C167.5 59.2032 167.5 59.2315 167.5 59.26C167.5 59.2885 167.5 59.3172 167.5 59.3459C167.5 59.3747 167.5 59.4036 167.5 59.4326C167.5 59.4616 167.5 59.4907 167.5 59.52C167.5 59.5492 167.5 59.5786 167.5 59.6081C167.5 59.6377 167.5 59.6673 167.5 59.6971C167.5 59.7268 167.5 59.7567 167.5 59.7867C167.5 59.8168 167.5 59.8469 167.5 59.8772C167.5 59.9074 167.5 59.9378 167.5 59.9683C167.5 59.9989 167.5 60.0295 167.5 60.0603C167.5 60.091 167.5 60.1219 167.5 60.1529C167.5 60.1839 167.5 60.2151 167.5 60.2463C167.5 60.2776 167.5 60.309 167.5 60.3405C167.5 60.372 167.5 60.4036 167.5 60.4353C167.5 60.4671 167.5 60.499 167.5 60.531C167.5 60.5629 167.5 60.5951 167.5 60.6273C167.5 60.6595 167.5 60.6919 167.5 60.7243C167.5 60.7568 167.5 60.7894 167.5 60.8221C167.5 60.8548 167.5 60.8877 167.5 60.9206C167.5 60.9536 167.5 60.9867 167.5 61.0199C167.5 61.053 167.5 61.0864 167.5 61.1198C167.5 61.1532 167.5 61.1868 167.5 61.2204C167.5 61.2541 167.5 61.2879 167.5 61.3218C167.5 61.3557 167.5 61.3897 167.5 61.4239C167.5 61.458 167.5 61.4923 167.5 61.5266C167.5 61.561 167.5 61.5955 167.5 61.6301C167.5 61.6647 167.5 61.6994 167.5 61.7343C167.5 61.7691 167.5 61.8041 167.5 61.8391C167.5 61.8742 167.5 61.9094 167.5 61.9447C167.5 61.98 167.5 62.0154 167.5 62.0509C167.5 62.0865 167.5 62.1221 167.5 62.1579C167.5 62.1936 167.5 62.2295 167.5 62.2655C167.5 62.3015 167.5 62.3376 167.5 62.3738C167.5 62.41 167.5 62.4463 167.5 62.4827C167.5 62.5192 167.5 62.5557 167.5 62.5924C167.5 62.6291 167.5 62.6658 167.5 62.7027C167.5 62.7396 167.5 62.7766 167.5 62.8137C167.5 62.8508 167.5 62.888 167.5 62.9254C167.5 62.9627 167.5 63.0001 167.5 63.0377C167.5 63.0752 167.5 63.1129 167.5 63.1507C167.5 63.1885 167.5 63.2263 167.5 63.2643C167.5 63.3023 167.5 63.3404 167.5 63.3786C167.5 63.4168 167.5 63.4552 167.5 63.4936C167.5 63.532 167.5 63.5705 167.5 63.6092C167.5 63.6478 167.5 63.6866 167.5 63.7254C167.5 63.7643 167.5 63.8033 167.5 63.8423C167.5 63.8814 167.5 63.9206 167.5 63.9599C167.5 63.9992 167.5 64.0386 167.5 64.0781C167.5 64.1176 167.5 64.1572 167.5 64.1969C167.5 64.2366 167.5 64.2764 167.5 64.3163C167.5 64.3563 167.5 64.3963 167.5 64.4364C167.5 64.4766 167.5 64.5168 167.5 64.5571C167.5 64.5975 167.5 64.6379 167.5 64.6785C167.5 64.719 167.5 64.7597 167.5 64.8004C167.5 64.8412 167.5 64.8821 167.5 64.923C167.5 64.964 167.5 65.0051 167.5 65.0462C167.5 65.0874 167.5 65.1287 167.5 65.17C167.5 65.2114 167.5 65.2529 167.5 65.2945C167.5 65.336 167.5 65.3777 167.5 65.4195C167.5 65.4613 167.5 65.5031 167.5 65.5451C167.5 65.5871 167.5 65.6292 167.5 65.6714C167.5 65.7136 167.5 65.7558 167.5 65.7982C167.5 65.8406 167.5 65.8831 167.5 65.9257C167.5 65.9682 167.5 66.0109 167.5 66.0537C167.5 66.0965 167.5 66.1393 167.5 66.1823C167.5 66.2253 167.5 66.2684 167.5 66.3115C167.5 66.3547 167.5 66.398 167.5 66.4413C167.5 66.4847 167.5 66.5282 167.5 66.5717C167.5 66.6153 167.5 66.6589 167.5 66.7027C167.5 66.7465 167.5 66.7903 167.5 66.8343C167.5 66.8782 167.5 66.9222 167.5 66.9664C167.5 67.0105 167.5 67.0547 167.5 67.0991C167.5 67.1434 167.5 67.1878 167.5 67.2323C167.5 67.2769 167.5 67.3215 167.5 67.3662C167.5 67.4109 167.5 67.4557 167.5 67.5006C167.5 67.5455 167.5 67.5904 167.5 67.6355C167.5 67.6806 167.5 67.7258 167.5 67.771C167.5 67.8163 167.5 67.8617 167.5 67.9071C167.5 67.9526 167.5 67.9981 167.5 68.0437C167.5 68.0894 167.5 68.1351 167.5 68.1809C167.5 68.2267 167.5 68.2726 167.5 68.3186C167.5 68.3646 167.5 68.4107 167.5 68.4569C167.5 68.5031 167.5 68.5494 167.5 68.5957C167.5 68.6421 167.5 68.6885 167.5 68.7351C167.5 68.7816 167.5 68.8283 167.5 68.875C167.5 68.9217 167.5 68.9685 167.5 69.0154C167.5 69.0623 167.5 69.1093 167.5 69.1563C167.5 69.2034 167.5 69.2506 167.5 69.2978C167.5 69.3451 167.5 69.3924 167.5 69.4398C167.5 69.4873 167.5 69.5348 167.5 69.5824C167.5 69.63 167.5 69.6776 167.5 69.7254C167.5 69.7732 167.5 69.821 167.5 69.869C167.5 69.9169 167.5 69.9649 167.5 70.0131C167.5 70.0612 167.5 70.1094 167.5 70.1576C167.5 70.2059 167.5 70.2543 167.5 70.3027C167.5 70.3512 167.5 70.3997 167.5 70.4484C167.5 70.497 167.5 70.5457 167.5 70.5945C167.5 70.6433 167.5 70.6921 167.5 70.7411C167.5 70.79 167.5 70.8391 167.5 70.8882C167.5 70.9373 167.5 70.9865 167.5 71.0358C167.5 71.0851 167.5 71.1344 167.5 71.1839C167.5 71.2333 167.5 71.2828 167.5 71.3325C167.5 71.3821 167.5 71.4318 167.5 71.4815C167.5 71.5313 167.5 71.5811 167.5 71.6311C167.5 71.681 167.5 71.731 167.5 71.7811C167.5 71.8312 167.5 71.8814 167.5 71.9316C167.5 71.9819 167.5 72.0322 167.5 72.0826C167.5 72.133 167.5 72.1835 167.5 72.2341C167.5 72.2846 167.5 72.3353 167.5 72.386C167.5 72.4367 167.5 72.4875 167.5 72.5384C167.5 72.5893 167.5 72.6402 167.5 72.6913C167.5 72.7423 167.5 72.7934 167.5 72.8446C167.5 72.8958 167.5 72.947 167.5 72.9984C167.5 73.0497 167.5 73.1011 167.5 73.1526C167.5 73.2041 167.5 73.2556 167.5 73.3073C167.5 73.3589 167.5 73.4106 167.5 73.4624C167.5 73.5142 167.5 73.5661 167.5 73.618C167.5 73.6699 167.5 73.722 167.5 73.774C167.5 73.8261 167.5 73.8783 167.5 73.9305C167.5 73.9827 167.5 74.035 167.5 74.0874C167.5 74.1398 167.5 74.1923 167.5 74.2448C167.5 74.2973 167.5 74.3499 167.5 74.4026C167.5 74.4552 167.5 74.508 167.5 74.5608C167.5 74.6136 167.5 74.6665 167.5 74.7194C167.5 74.7724 167.5 74.8254 167.5 74.8785C167.5 74.9316 167.5 74.9847 167.5 75.038C167.5 75.0912 167.5 75.1445 167.5 75.1979C167.5 75.2512 167.5 75.3047 167.5 75.3582C167.5 75.4117 167.5 75.4653 167.5 75.5189C167.5 75.5726 167.5 75.6263 167.5 75.6801C167.5 75.7339 167.5 75.7877 167.5 75.8416C167.5 75.8956 167.5 75.9495 167.5 76.0036C167.5 76.0577 167.5 76.1118 167.5 76.166C167.5 76.2202 167.5 76.2744 167.5 76.3287C167.5 76.3831 167.5 76.4374 167.5 76.4919C167.5 76.5464 167.5 76.6009 167.5 76.6555C167.5 76.71 167.5 76.7647 167.5 76.8194C167.5 76.8741 167.5 76.9289 167.5 76.9837C167.5 77.0386 167.5 77.0935 167.5 77.1485C167.5 77.2034 167.5 77.2585 167.5 77.3136C167.5 77.3687 167.5 77.4238 167.5 77.4791C167.5 77.5343 167.5 77.5896 167.5 77.6449C167.5 77.7003 167.5 77.7557 167.5 77.8112C167.5 77.8666 167.5 77.9222 167.5 77.9778C167.5 78.0334 167.5 78.089 167.5 78.1448C167.5 78.2005 167.5 78.2563 167.5 78.3121C167.5 78.368 167.5 78.4239 167.5 78.4798C167.5 78.5358 167.5 78.5918 167.5 78.6479C167.5 78.704 167.5 78.7601 167.5 78.8163C167.5 78.8725 167.5 78.9288 167.5 78.9851C167.5 79.0414 167.5 79.0978 167.5 79.1543C167.5 79.2107 167.5 79.2672 167.5 79.3238C167.5 79.3803 167.5 79.4369 167.5 79.4936C167.5 79.5503 167.5 79.607 167.5 79.6638C167.5 79.7206 167.5 79.7774 167.5 79.8343C167.5 79.8912 167.5 79.9482 167.5 80.0052C167.5 80.0622 167.5 80.1192 167.5 80.1764C167.5 80.2335 167.5 80.2907 167.5 80.3479C167.5 80.4051 167.5 80.4624 167.5 80.5198C167.5 80.5771 167.5 80.6345 167.5 80.692C167.5 80.7494 167.5 80.8069 167.5 80.8645C167.5 80.922 167.5 80.9796 167.5 81.0373C167.5 81.095 167.5 81.1527 167.5 81.2105C167.5 81.2682 167.5 81.3261 167.5 81.3839C167.5 81.4418 167.5 81.4997 167.5 81.5577C167.5 81.6157 167.5 81.6737 167.5 81.7318C167.5 81.7899 167.5 81.848 167.5 81.9062C167.5 81.9644 167.5 82.0226 167.5 82.0809C167.5 82.1392 167.5 82.1976 167.5 82.2559C167.5 82.3143 167.5 82.3728 167.5 82.4313C167.5 82.4897 167.5 82.5483 167.5 82.6069C167.5 82.6655 167.5 82.7241 167.5 82.7828C167.5 82.8415 167.5 82.9002 167.5 82.959C167.5 83.0178 167.5 83.0766 167.5 83.1355C167.5 83.1943 167.5 83.2533 167.5 83.3122C167.5 83.3712 167.5 83.4302 167.5 83.4893C167.5 83.5483 167.5 83.6075 167.5 83.6666C167.5 83.7258 167.5 83.785 167.5 83.8442C167.5 83.9035 167.5 83.9628 167.5 84.0221C167.5 84.0815 167.5 84.1408 167.5 84.2003C167.5 84.2597 167.5 84.3192 167.5 84.3787C167.5 84.4382 167.5 84.4978 167.5 84.5574C167.5 84.617 167.5 84.6767 167.5 84.7364C167.5 84.796 167.5 84.8558 167.5 84.9156C167.5 84.9754 167.5 85.0352 167.5 85.095C167.5 85.1549 167.5 85.2148 167.5 85.2748C167.5 85.3347 167.5 85.3947 167.5 85.4548C167.5 85.5148 167.5 85.5749 167.5 85.635C167.5 85.6951 167.5 85.7553 167.5 85.8155C167.5 85.8757 167.5 85.9359 167.5 85.9962C167.5 86.0565 167.5 86.1168 167.5 86.1772C167.5 86.2375 167.5 86.2979 167.5 86.3584C167.5 86.4188 167.5 86.4793 167.5 86.5398C167.5 86.6003 167.5 86.6609 167.5 86.7215C167.5 86.7821 167.5 86.8427 167.5 86.9034C167.5 86.9641 167.5 87.0248 167.5 87.0855C167.5 87.1463 167.5 87.2071 167.5 87.2679C167.5 87.3287 167.5 87.3896 167.5 87.4505C167.5 87.5114 167.5 87.5723 167.5 87.6333C167.5 87.6942 167.5 87.7552 167.5 87.8163C167.5 87.8773 167.5 87.9384 167.5 87.9995C167.5 88.0606 167.5 88.1217 167.5 88.1829C167.5 88.2441 167.5 88.3053 167.5 88.3666C167.5 88.4278 167.5 88.4891 167.5 88.5504C167.5 88.6117 167.5 88.6731 167.5 88.7345C167.5 88.7959 167.5 88.8573 167.5 88.9187C167.5 88.9802 167.5 89.0417 167.5 89.1032C167.5 89.1647 167.5 89.2262 167.5 89.2878C167.5 89.3494 167.5 89.411 167.5 89.4726C167.5 89.5343 167.5 89.596 167.5 89.6577C167.5 89.7194 167.5 89.7811 167.5 89.8429C167.5 89.9046 167.5 89.9664 167.5 90.0283C167.5 90.0901 167.5 90.152 167.5 90.2138C167.5 90.2757 167.5 90.3376 167.5 90.3996C167.5 90.4615 167.5 90.5235 167.5 90.5855C167.5 90.6475 167.5 90.7095 167.5 90.7716C167.5 90.8337 167.5 90.8958 167.5 90.9579C167.5 91.02 167.5 91.0821 167.5 91.1443C167.5 91.2065 167.5 91.2687 167.5 91.3309C167.5 91.3931 167.5 91.4554 167.5 91.5176C167.5 91.5799 167.5 91.6422 167.5 91.7046C167.5 91.7669 167.5 91.8292 167.5 91.8916C167.5 91.954 167.5 92.0164 167.5 92.0788C167.5 92.1413 167.5 92.2037 167.5 92.2662C167.5 92.3287 167.5 92.3912 167.5 92.4537C167.5 92.5162 167.5 92.5788 167.5 92.6414C167.5 92.7039 167.5 92.7665 167.5 92.8292C167.5 92.8918 167.5 92.9544 167.5 93.0171C167.5 93.0798 167.5 93.1425 167.5 93.2052C167.5 93.2679 167.5 93.3306 167.5 93.3934C167.5 93.4561 167.5 93.5189 167.5 93.5817C167.5 93.6445 167.5 93.7073 167.5 93.7702C167.5 93.833 167.5 93.8959 167.5 93.9588C167.5 94.0217 167.5 94.0846 167.5 94.1475C167.5 94.2104 167.5 94.2733 167.5 94.3363C167.5 94.3993 167.5 94.4622 167.5 94.5252C167.5 94.5882 167.5 94.6513 167.5 94.7143C167.5 94.7773 167.5 94.8404 167.5 94.9035C167.5 94.9665 167.5 95.0296 167.5 95.0927C167.5 95.1559 167.5 95.219 167.5 95.2821C167.5 95.3453 167.5 95.4084 167.5 95.4716C167.5 95.5348 167.5 95.598 167.5 95.6612C167.5 95.7244 167.5 95.7876 167.5 95.8509C167.5 95.9141 167.5 95.9774 167.5 96.0406C167.5 96.1039 167.5 96.1672 167.5 96.2305C167.5 96.2938 167.5 96.3571 167.5 96.4204C167.5 96.4838 167.5 96.5471 167.5 96.6105C167.5 96.6738 167.5 96.7372 167.5 96.8006C167.5 96.864 167.5 96.9274 167.5 96.9908C167.5 97.0542 167.5 97.1176 167.5 97.1811C167.5 97.2445 167.5 97.308 167.5 97.3714C167.5 97.4349 167.5 97.4984 167.5 97.5618C167.5 97.6253 167.5 97.6888 167.5 97.7523C167.5 97.8158 167.5 97.8794 167.5 97.9429C167.5 98.0064 167.5 98.0699 167.5 98.1335C167.5 98.197 167.5 98.2606 167.5 98.3242C167.5 98.3877 167.5 98.4513 167.5 98.5149C167.5 98.5785 167.5 98.6421 167.5 98.7057C167.5 98.7693 167.5 98.8329 167.5 98.8965C167.5 98.9602 167.5 99.0238 167.5 99.0874C167.5 99.1511 167.5 99.2147 167.5 99.2784C167.5 99.342 167.5 99.4057 167.5 99.4694C167.5 99.533 167.5 99.5967 167.5 99.6604C167.5 99.7241 167.5 99.7877 167.5 99.8514C167.5 99.9151 167.5 99.9788 167.5 100.043C167.5 100.106 167.5 100.17 167.5 100.234C167.5 100.297 167.5 100.361 167.5 100.425C167.5 100.489 167.5 100.552 167.5 100.616C167.5 100.68 167.5 100.743 167.5 100.807C167.5 100.871 167.5 100.935 167.5 100.998C167.5 101.062 167.5 101.126 167.5 101.19C167.5 101.253 167.5 101.317 167.5 101.381C167.5 101.445 167.5 101.508 167.5 101.572C167.5 101.636 167.5 101.7 167.5 101.764C167.5 101.827 167.5 101.891 167.5 101.955C167.5 102.019 167.5 102.082 167.5 102.146C167.5 102.21 167.5 102.274 167.5 102.337C167.5 102.401 167.5 102.465 167.5 102.529C167.5 102.592 167.5 102.656 167.5 102.72C167.5 102.784 167.5 102.848 167.5 102.911C167.5 102.975 167.5 103.039 167.5 103.103C167.5 103.166 167.5 103.23 167.5 103.294C167.5 103.358 167.5 103.421 167.5 103.485C167.5 103.549 167.5 103.613 167.5 103.676C167.5 103.74 167.5 103.804 167.5 103.868C167.5 103.931 167.5 103.995 167.5 104.059C167.5 104.122 167.5 104.186 167.5 104.25C167.5 104.314 167.5 104.377 167.5 104.441C167.5 104.505 167.5 104.568 167.5 104.632C167.5 104.696 167.5 104.76 167.5 104.823C167.5 104.887 167.5 104.951 167.5 105.014C167.5 105.078 167.5 105.142 167.5 105.205C167.5 105.269 167.5 105.333 167.5 105.396C167.5 105.46 167.5 105.523 167.5 105.587C167.5 105.651 167.5 105.714 167.5 105.778C167.5 105.842 167.5 105.905 167.5 105.969C167.5 106.032 167.5 106.096 167.5 106.16C167.5 106.223 167.5 106.287 167.5 106.35C167.5 106.414 167.5 106.477 167.5 106.541C167.5 106.604 167.5 106.668 167.5 106.731C167.5 106.795 167.5 106.858 167.5 106.922C167.5 106.985 167.5 107.049 167.5 107.112C167.5 107.176 167.5 107.239 167.5 107.303C167.5 107.366 167.5 107.43 167.5 107.493C167.5 107.556 167.5 107.62 167.5 107.683C167.5 107.747 167.5 107.81 167.5 107.873C167.5 107.937 167.5 108 167.5 108.063C167.5 108.127 167.5 108.19 167.5 108.253C167.5 108.317 167.5 108.38 167.5 108.443C167.5 108.507 167.5 108.57 167.5 108.633C167.5 108.696 167.5 108.76 167.5 108.823C167.5 108.886 167.5 108.949 167.5 109.012C167.5 109.076 167.5 109.139 167.5 109.202C167.5 109.265 167.5 109.328 167.5 109.391C167.5 109.454 167.5 109.518 167.5 109.581C167.5 109.644 167.5 109.707 167.5 109.77C167.5 109.833 167.5 109.896 167.5 109.959C167.5 110.022 167.5 110.085 167.5 110.148C167.5 110.211 167.5 110.274 167.5 110.337C167.5 110.4 167.5 110.463 167.5 110.526C167.5 110.588 167.5 110.651 167.5 110.714C167.5 110.777 167.5 110.84 167.5 110.903C167.5 110.965 167.5 111.028 167.5 111.091C167.5 111.154 167.5 111.217 167.5 111.279C167.5 111.342 167.5 111.405 167.5 111.467C167.5 111.53 167.5 111.593 167.5 111.655C167.5 111.718 167.5 111.781 167.5 111.843C167.5 111.906 167.5 111.968 167.5 112.031C167.5 112.093 167.5 112.156 167.5 112.218C167.5 112.281 167.5 112.343 167.5 112.406C167.5 112.468 167.5 112.531 167.5 112.593C167.5 112.656 167.5 112.718 167.5 112.78C167.5 112.843 167.5 112.905 167.5 112.967C167.5 113.03 167.5 113.092 167.5 113.154C167.5 113.216 167.5 113.278 167.5 113.341C167.5 113.403 167.5 113.465 167.5 113.527C167.5 113.589 167.5 113.651 167.5 113.713C167.5 113.776 167.5 113.838 167.5 113.9C167.5 113.962 167.5 114.024 167.5 114.086C167.5 114.148 167.5 114.209 167.5 114.271C167.5 114.333 167.5 114.395 167.5 114.457C167.5 114.519 167.5 114.581 167.5 114.642C167.5 114.704 167.5 114.766 167.5 114.828C167.5 114.889 167.5 114.951 167.5 115.013C167.5 115.074 167.5 115.136 167.5 115.198C167.5 115.259 167.5 115.321 167.5 115.382C167.5 115.444 167.5 115.505 167.5 115.567C167.5 115.628 167.5 115.69 167.5 115.751C167.5 115.813 167.5 115.874 167.5 115.935C167.5 115.997 167.5 116.058 167.5 116.119C167.5 116.18 167.5 116.242 167.5 116.303C167.5 116.364 167.5 116.425 167.5 116.486C167.5 116.548 167.5 116.609 167.5 116.67C167.5 116.731 167.5 116.792 167.5 116.853C167.5 116.914 167.5 116.975 167.5 117.036C167.5 117.097 167.5 117.157 167.5 117.218C167.5 117.279 167.5 117.34 167.5 117.401C167.5 117.461 167.5 117.522 167.5 117.583C167.5 117.644 167.5 117.704 167.5 117.765C167.5 117.825 167.5 117.886 167.5 117.947C167.5 118.007 167.5 118.068 167.5 118.128C167.5 118.189 167.5 118.249 167.5 118.309C167.5 118.37 167.5 118.43 167.5 118.49C167.5 118.551 167.5 118.611 167.5 118.671C167.5 118.731 167.5 118.792 167.5 118.852C167.5 118.912 167.5 118.972 167.5 119.032C167.5 119.092 167.5 119.152 167.5 119.212C167.5 119.272 167.5 119.332 167.5 119.392C167.5 119.452 167.5 119.512 167.5 119.572C167.5 119.631 167.5 119.691 167.5 119.751C167.5 119.811 167.5 119.87 167.5 119.93C167.5 119.989 167.5 120.049 167.5 120.109C167.5 120.168 167.5 120.228 167.5 120.287C167.5 120.347 167.5 120.406 167.5 120.465C167.5 120.525 167.5 120.584 167.5 120.643C167.5 120.703 167.5 120.762 167.5 120.821C167.5 120.88 167.5 120.939 167.5 120.998C167.5 121.058 167.5 121.117 167.5 121.176C167.5 121.235 167.5 121.294 167.5 121.352C167.5 121.411 167.5 121.47 167.5 121.529C167.5 121.588 167.5 121.647 167.5 121.705C167.5 121.764 167.5 121.823 167.5 121.881C167.5 121.94 167.5 121.998 167.5 122.057C167.5 122.116 167.5 122.174 167.5 122.232C167.5 122.291 167.5 122.349 167.5 122.408C167.5 122.466 167.5 122.524 167.5 122.582C167.5 122.641 167.5 122.699 167.5 122.757C167.5 122.815 167.5 122.873 167.5 122.931C167.5 122.989 167.5 123.047 167.5 123.105C167.5 123.163 167.5 123.221 167.5 123.278C167.5 123.336 167.5 123.394 167.5 123.452C167.5 123.509 167.5 123.567 167.5 123.625C167.5 123.682 167.5 123.74 167.5 123.797C167.5 123.855 167.5 123.912 167.5 123.97C167.5 124.027 167.5 124.084 167.5 124.141C167.5 124.199 167.5 124.256 167.5 124.313C167.5 124.37 167.5 124.427 167.5 124.484C167.5 124.541 167.5 124.598 167.5 124.655C167.5 124.712 167.5 124.769 167.5 124.826C167.5 124.883 167.5 124.94 167.5 124.996C167.5 125.053 167.5 125.11 167.5 125.166C167.5 125.223 167.5 125.279 167.5 125.336C167.5 125.392 167.5 125.449 167.5 125.505C167.5 125.561 167.5 125.618 167.5 125.674C167.5 125.73 167.5 125.786 167.5 125.843C167.5 125.899 167.5 125.955 167.5 126.011C167.5 126.067 167.5 126.123 167.5 126.179C167.5 126.234 167.5 126.29 167.5 126.346C167.5 126.402 167.5 126.457 167.5 126.513C167.5 126.569 167.5 126.624 167.5 126.68C167.5 126.735 167.5 126.791 167.5 126.846C167.5 126.902 167.5 126.957 167.5 127.012C167.5 127.067 167.5 127.123 167.5 127.178C167.5 127.233 167.5 127.288 167.5 127.343C167.5 127.398 167.5 127.453 167.5 127.508C167.5 127.563 167.5 127.618 167.5 127.672C167.5 127.727 167.5 127.782 167.5 127.836C167.5 127.891 167.5 127.946 167.5 128L170.5 128Z" fill="#214E5C" fill-opacity="0.18"/>
<path d="M278.361 157.524C277.822 158.153 277.895 159.1 278.524 159.639C279.153 160.178 280.1 160.105 280.639 159.476L278.361 157.524ZM295.743 128.16C295.279 127.474 294.347 127.293 293.66 127.757L282.474 135.315C281.788 135.779 281.607 136.711 282.071 137.398C282.535 138.084 283.467 138.265 284.154 137.801L294.097 131.083L300.815 141.026C301.279 141.712 302.211 141.893 302.898 141.429C303.584 140.965 303.765 140.033 303.301 139.346L295.743 128.16ZM280.639 159.476C286.774 152.319 290.6 144.79 292.893 139.057C294.04 136.188 294.807 133.762 295.288 132.046C295.529 131.187 295.698 130.506 295.808 130.035C295.863 129.799 295.904 129.616 295.93 129.49C295.944 129.427 295.954 129.378 295.961 129.343C295.965 129.326 295.967 129.313 295.969 129.303C295.97 129.298 295.971 129.294 295.971 129.291C295.972 129.29 295.972 129.288 295.972 129.287C295.972 129.287 295.972 129.286 295.972 129.286C295.973 129.286 295.973 129.285 294.5 129C293.027 128.715 293.027 128.715 293.027 128.714C293.027 128.714 293.028 128.714 293.028 128.714C293.028 128.714 293.028 128.714 293.027 128.714C293.027 128.715 293.027 128.717 293.026 128.72C293.025 128.725 293.024 128.734 293.021 128.746C293.016 128.772 293.008 128.811 292.996 128.865C292.973 128.973 292.937 129.136 292.887 129.352C292.786 129.783 292.628 130.422 292.399 131.236C291.943 132.863 291.21 135.187 290.107 137.943C287.9 143.46 284.226 150.681 278.361 157.524L280.639 159.476Z" fill="#214E5C" fill-opacity="0.18"/>
<path d="M59.1389 157.524C59.678 158.153 59.6052 159.1 58.9762 159.639C58.3472 160.178 57.4002 160.105 56.8611 159.476L59.1389 157.524ZM41.7571 128.16C42.2209 127.474 43.1534 127.293 43.8398 127.757L55.0257 135.315C55.7122 135.779 55.8926 136.711 55.4288 137.398C54.965 138.084 54.0326 138.265 53.3462 137.801L43.4031 131.083L36.6848 141.026C36.221 141.712 35.2886 141.893 34.6021 141.429C33.9157 140.965 33.7352 140.033 34.199 139.346L41.7571 128.16ZM56.8611 159.476C50.7265 152.319 46.9003 144.79 44.6073 139.057C43.4598 136.188 42.6931 133.762 42.2119 132.046C41.9713 131.187 41.8018 130.506 41.6917 130.035C41.6367 129.799 41.5964 129.616 41.5695 129.49C41.5561 129.427 41.5459 129.378 41.539 129.343C41.5355 129.326 41.5328 129.313 41.5309 129.303C41.5299 129.298 41.5291 129.294 41.5285 129.291C41.5282 129.29 41.528 129.288 41.5278 129.287C41.5277 129.287 41.5276 129.286 41.5275 129.286C41.5274 129.286 41.5273 129.285 43 129C44.4727 128.715 44.4726 128.715 44.4725 128.714C44.4725 128.714 44.4725 128.714 44.4725 128.714C44.4725 128.714 44.4725 128.714 44.4726 128.714C44.4727 128.715 44.4731 128.717 44.4736 128.72C44.4746 128.725 44.4764 128.734 44.479 128.746C44.4841 128.772 44.4923 128.811 44.5037 128.865C44.5266 128.973 44.5626 129.136 44.613 129.352C44.7138 129.783 44.8725 130.422 45.1006 131.236C45.5569 132.863 46.2902 135.187 47.3927 137.943C49.5997 143.46 53.2735 150.681 59.1389 157.524L56.8611 159.476Z" fill="#214E5C" fill-opacity="0.18"/>
<path d="M240.204 84.848V96H238.748V84.848H240.204ZM253.229 87.072C253.912 87.072 254.52 87.216 255.053 87.504C255.586 87.7813 256.008 88.2027 256.317 88.768C256.626 89.3333 256.781 90.0213 256.781 90.832V96H255.341V91.04C255.341 90.1653 255.122 89.4987 254.685 89.04C254.258 88.5707 253.677 88.336 252.941 88.336C252.184 88.336 251.581 88.5813 251.133 89.072C250.685 89.552 250.461 90.2507 250.461 91.168V96H249.021V91.04C249.021 90.1653 248.802 89.4987 248.365 89.04C247.938 88.5707 247.357 88.336 246.621 88.336C245.864 88.336 245.261 88.5813 244.813 89.072C244.365 89.552 244.141 90.2507 244.141 91.168V96H242.685V87.232H244.141V88.496C244.429 88.0373 244.813 87.6853 245.293 87.44C245.784 87.1947 246.322 87.072 246.909 87.072C247.645 87.072 248.296 87.2373 248.861 87.568C249.426 87.8987 249.848 88.384 250.125 89.024C250.37 88.4053 250.776 87.9253 251.341 87.584C251.906 87.2427 252.536 87.072 253.229 87.072ZM260.626 88.848C260.914 88.3467 261.34 87.9307 261.906 87.6C262.482 87.2587 263.148 87.088 263.906 87.088C264.684 87.088 265.388 87.2747 266.017 87.648C266.657 88.0213 267.159 88.5493 267.522 89.232C267.884 89.904 268.066 90.688 268.066 91.584C268.066 92.4693 267.884 93.2587 267.522 93.952C267.159 94.6453 266.657 95.184 266.017 95.568C265.388 95.952 264.684 96.144 263.906 96.144C263.159 96.144 262.498 95.9787 261.922 95.648C261.356 95.3067 260.924 94.8853 260.626 94.384V100.16H259.17V87.232H260.626V88.848ZM266.578 91.584C266.578 90.9227 266.444 90.3467 266.178 89.856C265.911 89.3653 265.548 88.992 265.09 88.736C264.642 88.48 264.146 88.352 263.602 88.352C263.068 88.352 262.572 88.4853 262.114 88.752C261.666 89.008 261.303 89.3867 261.026 89.888C260.759 90.3787 260.626 90.9493 260.626 91.6C260.626 92.2613 260.759 92.8427 261.026 93.344C261.303 93.8347 261.666 94.2133 262.114 94.48C262.572 94.736 263.068 94.864 263.602 94.864C264.146 94.864 264.642 94.736 265.09 94.48C265.548 94.2133 265.911 93.8347 266.178 93.344C266.444 92.8427 266.578 92.256 266.578 91.584ZM273.806 96.144C272.985 96.144 272.238 95.9573 271.566 95.584C270.905 95.2107 270.382 94.6827 269.998 94C269.625 93.3067 269.438 92.5067 269.438 91.6C269.438 90.704 269.63 89.9147 270.014 89.232C270.409 88.5387 270.942 88.0107 271.614 87.648C272.286 87.2747 273.038 87.088 273.87 87.088C274.702 87.088 275.454 87.2747 276.126 87.648C276.798 88.0107 277.326 88.5333 277.71 89.216C278.105 89.8987 278.302 90.6933 278.302 91.6C278.302 92.5067 278.099 93.3067 277.694 94C277.299 94.6827 276.761 95.2107 276.078 95.584C275.395 95.9573 274.638 96.144 273.806 96.144ZM273.806 94.864C274.329 94.864 274.819 94.7413 275.278 94.496C275.737 94.2507 276.105 93.8827 276.382 93.392C276.67 92.9013 276.814 92.304 276.814 91.6C276.814 90.896 276.675 90.2987 276.398 89.808C276.121 89.3173 275.758 88.9547 275.31 88.72C274.862 88.4747 274.377 88.352 273.854 88.352C273.321 88.352 272.83 88.4747 272.382 88.72C271.945 88.9547 271.593 89.3173 271.326 89.808C271.059 90.2987 270.926 90.896 270.926 91.6C270.926 92.3147 271.054 92.9173 271.31 93.408C271.577 93.8987 271.929 94.2667 272.366 94.512C272.803 94.7467 273.283 94.864 273.806 94.864ZM281.672 88.656C281.928 88.1547 282.291 87.7653 282.76 87.488C283.24 87.2107 283.822 87.072 284.504 87.072V88.576H284.12C282.488 88.576 281.672 89.4613 281.672 91.232V96H280.216V87.232H281.672V88.656ZM287.961 88.432V93.6C287.961 94.0267 288.052 94.3307 288.233 94.512C288.414 94.6827 288.729 94.768 289.177 94.768H290.249V96H288.937C288.126 96 287.518 95.8133 287.113 95.44C286.708 95.0667 286.505 94.4533 286.505 93.6V88.432H285.369V87.232H286.505V85.024H287.961V87.232H290.249V88.432H287.961ZM299.847 88.432H298.007V96H296.551V88.432H295.415V87.232H296.551V86.608C296.551 85.6267 296.802 84.912 297.303 84.464C297.815 84.0053 298.631 83.776 299.751 83.776V84.992C299.111 84.992 298.658 85.12 298.391 85.376C298.135 85.6213 298.007 86.032 298.007 86.608V87.232H299.847V88.432ZM303.001 88.656C303.257 88.1547 303.619 87.7653 304.089 87.488C304.569 87.2107 305.15 87.072 305.833 87.072V88.576H305.449C303.817 88.576 303.001 89.4613 303.001 91.232V96H301.545V87.232H303.001V88.656ZM311.337 96.144C310.516 96.144 309.769 95.9573 309.097 95.584C308.436 95.2107 307.913 94.6827 307.529 94C307.156 93.3067 306.969 92.5067 306.969 91.6C306.969 90.704 307.161 89.9147 307.545 89.232C307.94 88.5387 308.473 88.0107 309.145 87.648C309.817 87.2747 310.569 87.088 311.401 87.088C312.233 87.088 312.985 87.2747 313.657 87.648C314.329 88.0107 314.857 88.5333 315.241 89.216C315.636 89.8987 315.833 90.6933 315.833 91.6C315.833 92.5067 315.631 93.3067 315.225 94C314.831 94.6827 314.292 95.2107 313.609 95.584C312.927 95.9573 312.169 96.144 311.337 96.144ZM311.337 94.864C311.86 94.864 312.351 94.7413 312.809 94.496C313.268 94.2507 313.636 93.8827 313.913 93.392C314.201 92.9013 314.345 92.304 314.345 91.6C314.345 90.896 314.207 90.2987 313.929 89.808C313.652 89.3173 313.289 88.9547 312.841 88.72C312.393 88.4747 311.908 88.352 311.385 88.352C310.852 88.352 310.361 88.4747 309.913 88.72C309.476 88.9547 309.124 89.3173 308.857 89.808C308.591 90.2987 308.457 90.896 308.457 91.6C308.457 92.3147 308.585 92.9173 308.841 93.408C309.108 93.8987 309.46 94.2667 309.897 94.512C310.335 94.7467 310.815 94.864 311.337 94.864ZM328.292 87.072C328.974 87.072 329.582 87.216 330.116 87.504C330.649 87.7813 331.07 88.2027 331.38 88.768C331.689 89.3333 331.844 90.0213 331.844 90.832V96H330.404V91.04C330.404 90.1653 330.185 89.4987 329.748 89.04C329.321 88.5707 328.74 88.336 328.004 88.336C327.246 88.336 326.644 88.5813 326.196 89.072C325.748 89.552 325.524 90.2507 325.524 91.168V96H324.084V91.04C324.084 90.1653 323.865 89.4987 323.428 89.04C323.001 88.5707 322.42 88.336 321.684 88.336C320.926 88.336 320.324 88.5813 319.876 89.072C319.428 89.552 319.204 90.2507 319.204 91.168V96H317.748V87.232H319.204V88.496C319.492 88.0373 319.876 87.6853 320.356 87.44C320.846 87.1947 321.385 87.072 321.972 87.072C322.708 87.072 323.358 87.2373 323.924 87.568C324.489 87.8987 324.91 88.384 325.188 89.024C325.433 88.4053 325.838 87.9253 326.404 87.584C326.969 87.2427 327.598 87.072 328.292 87.072ZM281.407 113.584C281.407 112.688 281.588 111.904 281.951 111.232C282.313 110.549 282.809 110.021 283.439 109.648C284.079 109.275 284.788 109.088 285.567 109.088C286.335 109.088 287.001 109.253 287.567 109.584C288.132 109.915 288.553 110.331 288.831 110.832V109.232H290.303V118H288.831V116.368C288.543 116.88 288.111 117.307 287.535 117.648C286.969 117.979 286.308 118.144 285.551 118.144C284.772 118.144 284.068 117.952 283.439 117.568C282.809 117.184 282.313 116.645 281.951 115.952C281.588 115.259 281.407 114.469 281.407 113.584ZM288.831 113.6C288.831 112.939 288.697 112.363 288.431 111.872C288.164 111.381 287.801 111.008 287.343 110.752C286.895 110.485 286.399 110.352 285.855 110.352C285.311 110.352 284.815 110.48 284.367 110.736C283.919 110.992 283.561 111.365 283.295 111.856C283.028 112.347 282.895 112.923 282.895 113.584C282.895 114.256 283.028 114.843 283.295 115.344C283.561 115.835 283.919 116.213 284.367 116.48C284.815 116.736 285.311 116.864 285.855 116.864C286.399 116.864 286.895 116.736 287.343 116.48C287.801 116.213 288.164 115.835 288.431 115.344C288.697 114.843 288.831 114.261 288.831 113.6ZM294.219 106.16V118H292.763V106.16H294.219ZM298.157 110.864C298.455 110.341 298.893 109.915 299.469 109.584C300.045 109.253 300.701 109.088 301.437 109.088C302.226 109.088 302.935 109.275 303.565 109.648C304.194 110.021 304.69 110.549 305.053 111.232C305.415 111.904 305.597 112.688 305.597 113.584C305.597 114.469 305.415 115.259 305.053 115.952C304.69 116.645 304.189 117.184 303.549 117.568C302.919 117.952 302.215 118.144 301.437 118.144C300.679 118.144 300.013 117.979 299.437 117.648C298.871 117.317 298.445 116.896 298.157 116.384V118H296.701V106.16H298.157V110.864ZM304.109 113.584C304.109 112.923 303.975 112.347 303.709 111.856C303.442 111.365 303.079 110.992 302.621 110.736C302.173 110.48 301.677 110.352 301.133 110.352C300.599 110.352 300.103 110.485 299.645 110.752C299.197 111.008 298.834 111.387 298.557 111.888C298.29 112.379 298.157 112.949 298.157 113.6C298.157 114.261 298.29 114.843 298.557 115.344C298.834 115.835 299.197 116.213 299.645 116.48C300.103 116.736 300.599 116.864 301.133 116.864C301.677 116.864 302.173 116.736 302.621 116.48C303.079 116.213 303.442 115.835 303.709 115.344C303.975 114.843 304.109 114.256 304.109 113.584ZM315.289 109.232V118H313.833V116.704C313.556 117.152 313.167 117.504 312.665 117.76C312.175 118.005 311.631 118.128 311.033 118.128C310.351 118.128 309.737 117.989 309.193 117.712C308.649 117.424 308.217 116.997 307.897 116.432C307.588 115.867 307.433 115.179 307.433 114.368V109.232H308.873V114.176C308.873 115.04 309.092 115.707 309.529 116.176C309.967 116.635 310.564 116.864 311.321 116.864C312.1 116.864 312.713 116.624 313.161 116.144C313.609 115.664 313.833 114.965 313.833 114.048V109.232H315.289ZM328.292 109.072C328.974 109.072 329.582 109.216 330.116 109.504C330.649 109.781 331.07 110.203 331.38 110.768C331.689 111.333 331.844 112.021 331.844 112.832V118H330.404V113.04C330.404 112.165 330.185 111.499 329.748 111.04C329.321 110.571 328.74 110.336 328.004 110.336C327.246 110.336 326.644 110.581 326.196 111.072C325.748 111.552 325.524 112.251 325.524 113.168V118H324.084V113.04C324.084 112.165 323.865 111.499 323.428 111.04C323.001 110.571 322.42 110.336 321.684 110.336C320.926 110.336 320.324 110.581 319.876 111.072C319.428 111.552 319.204 112.251 319.204 113.168V118H317.748V109.232H319.204V110.496C319.492 110.037 319.876 109.685 320.356 109.44C320.846 109.195 321.385 109.072 321.972 109.072C322.708 109.072 323.358 109.237 323.924 109.568C324.489 109.899 324.91 110.384 325.188 111.024C325.433 110.405 325.838 109.925 326.404 109.584C326.969 109.243 327.598 109.072 328.292 109.072Z" fill="black" fill-opacity="0.5"/>
<path d="M2.688 86.032V89.76H6.752V90.96H2.688V94.8H7.232V96H1.232V84.832H7.232V86.032H2.688ZM13.7071 87.072C14.7738 87.072 15.6378 87.3973 16.2991 88.048C16.9605 88.688 17.2911 89.616 17.2911 90.832V96H15.8511V91.04C15.8511 90.1653 15.6325 89.4987 15.1951 89.04C14.7578 88.5707 14.1605 88.336 13.4031 88.336C12.6351 88.336 12.0218 88.576 11.5631 89.056C11.1151 89.536 10.8911 90.2347 10.8911 91.152V96H9.43513V87.232H10.8911V88.48C11.1791 88.032 11.5685 87.6853 12.0591 87.44C12.5605 87.1947 13.1098 87.072 13.7071 87.072ZM21.4455 88.432V93.6C21.4455 94.0267 21.5362 94.3307 21.7175 94.512C21.8988 94.6827 22.2135 94.768 22.6615 94.768H23.7335V96H22.4215C21.6108 96 21.0028 95.8133 20.5975 95.44C20.1922 95.0667 19.9895 94.4533 19.9895 93.6V88.432H18.8535V87.232H19.9895V85.024H21.4455V87.232H23.7335V88.432H21.4455ZM33.4976 91.28C33.4976 91.5573 33.4816 91.8507 33.4496 92.16H26.4416C26.495 93.024 26.7883 93.7013 27.3216 94.192C27.8656 94.672 28.5216 94.912 29.2896 94.912C29.919 94.912 30.4416 94.768 30.8576 94.48C31.2843 94.1813 31.583 93.7867 31.7536 93.296H33.3216C33.087 94.1387 32.6176 94.8267 31.9136 95.36C31.2096 95.8827 30.335 96.144 29.2896 96.144C28.4576 96.144 27.711 95.9573 27.0496 95.584C26.399 95.2107 25.887 94.6827 25.5136 94C25.1403 93.3067 24.9536 92.5067 24.9536 91.6C24.9536 90.6933 25.135 89.8987 25.4976 89.216C25.8603 88.5333 26.367 88.0107 27.0176 87.648C27.679 87.2747 28.4363 87.088 29.2896 87.088C30.1216 87.088 30.8576 87.2693 31.4976 87.632C32.1376 87.9947 32.6283 88.496 32.9696 89.136C33.3216 89.7653 33.4976 90.48 33.4976 91.28ZM31.9936 90.976C31.9936 90.4213 31.871 89.9467 31.6256 89.552C31.3803 89.1467 31.0443 88.8427 30.6176 88.64C30.2016 88.4267 29.7376 88.32 29.2256 88.32C28.4896 88.32 27.8603 88.5547 27.3376 89.024C26.8256 89.4933 26.5323 90.144 26.4576 90.976H31.9936ZM36.8755 88.656C37.1315 88.1547 37.4942 87.7653 37.9635 87.488C38.4435 87.2107 39.0248 87.072 39.7075 87.072V88.576H39.3235C37.6915 88.576 36.8755 89.4613 36.8755 91.232V96H35.4195V87.232H36.8755V88.656ZM47.4299 88.432V93.6C47.4299 94.0267 47.5205 94.3307 47.7019 94.512C47.8832 94.6827 48.1979 94.768 48.6459 94.768H49.7179V96H48.4059C47.5952 96 46.9872 95.8133 46.5819 95.44C46.1765 95.0667 45.9739 94.4533 45.9739 93.6V88.432H44.8379V87.232H45.9739V85.024H47.4299V87.232H49.7179V88.432H47.4299ZM55.834 87.072C56.4953 87.072 57.0927 87.216 57.626 87.504C58.1593 87.7813 58.5753 88.2027 58.874 88.768C59.1833 89.3333 59.338 90.0213 59.338 90.832V96H57.898V91.04C57.898 90.1653 57.6793 89.4987 57.242 89.04C56.8047 88.5707 56.2073 88.336 55.45 88.336C54.682 88.336 54.0687 88.576 53.61 89.056C53.162 89.536 52.938 90.2347 52.938 91.152V96H51.482V84.16H52.938V88.48C53.226 88.032 53.6207 87.6853 54.122 87.44C54.634 87.1947 55.2047 87.072 55.834 87.072ZM69.7164 91.28C69.7164 91.5573 69.7004 91.8507 69.6684 92.16H62.6604C62.7137 93.024 63.007 93.7013 63.5404 94.192C64.0844 94.672 64.7404 94.912 65.5084 94.912C66.1377 94.912 66.6604 94.768 67.0764 94.48C67.503 94.1813 67.8017 93.7867 67.9724 93.296H69.5404C69.3057 94.1387 68.8364 94.8267 68.1324 95.36C67.4284 95.8827 66.5537 96.144 65.5084 96.144C64.6764 96.144 63.9297 95.9573 63.2684 95.584C62.6177 95.2107 62.1057 94.6827 61.7324 94C61.359 93.3067 61.1724 92.5067 61.1724 91.6C61.1724 90.6933 61.3537 89.8987 61.7164 89.216C62.079 88.5333 62.5857 88.0107 63.2364 87.648C63.8977 87.2747 64.655 87.088 65.5084 87.088C66.3404 87.088 67.0764 87.2693 67.7164 87.632C68.3564 87.9947 68.847 88.496 69.1884 89.136C69.5404 89.7653 69.7164 90.48 69.7164 91.28ZM68.2124 90.976C68.2124 90.4213 68.0897 89.9467 67.8444 89.552C67.599 89.1467 67.263 88.8427 66.8364 88.64C66.4204 88.4267 65.9564 88.32 65.4444 88.32C64.7084 88.32 64.079 88.5547 63.5564 89.024C63.0444 89.4933 62.751 90.144 62.6764 90.976H68.2124ZM77.3599 88.864C77.6585 88.3413 78.0959 87.9147 78.6719 87.584C79.2479 87.2533 79.9039 87.088 80.6399 87.088C81.4292 87.088 82.1385 87.2747 82.7679 87.648C83.3972 88.0213 83.8932 88.5493 84.2559 89.232C84.6185 89.904 84.7999 90.688 84.7999 91.584C84.7999 92.4693 84.6185 93.2587 84.2559 93.952C83.8932 94.6453 83.3919 95.184 82.7519 95.568C82.1225 95.952 81.4185 96.144 80.6399 96.144C79.8825 96.144 79.2159 95.9787 78.6399 95.648C78.0745 95.3173 77.6479 94.896 77.3599 94.384V96H75.9039V84.16H77.3599V88.864ZM83.3119 91.584C83.3119 90.9227 83.1785 90.3467 82.9119 89.856C82.6452 89.3653 82.2825 88.992 81.8239 88.736C81.3759 88.48 80.8799 88.352 80.3359 88.352C79.8025 88.352 79.3065 88.4853 78.8479 88.752C78.3999 89.008 78.0372 89.3867 77.7599 89.888C77.4932 90.3787 77.3599 90.9493 77.3599 91.6C77.3599 92.2613 77.4932 92.8427 77.7599 93.344C78.0372 93.8347 78.3999 94.2133 78.8479 94.48C79.3065 94.736 79.8025 94.864 80.3359 94.864C80.8799 94.864 81.3759 94.736 81.8239 94.48C82.2825 94.2133 82.6452 93.8347 82.9119 93.344C83.1785 92.8427 83.3119 92.256 83.3119 91.584ZM87.4684 85.808C87.191 85.808 86.9564 85.712 86.7644 85.52C86.5724 85.328 86.4764 85.0933 86.4764 84.816C86.4764 84.5387 86.5724 84.304 86.7644 84.112C86.9564 83.92 87.191 83.824 87.4684 83.824C87.735 83.824 87.959 83.92 88.1404 84.112C88.3324 84.304 88.4284 84.5387 88.4284 84.816C88.4284 85.0933 88.3324 85.328 88.1404 85.52C87.959 85.712 87.735 85.808 87.4684 85.808ZM88.1724 87.232V96H86.7164V87.232H88.1724ZM92.1099 84.16V96H90.6539V84.16H92.1099ZM96.0474 84.16V96H94.5914V84.16H96.0474ZM11.776 109.072C12.4587 109.072 13.0667 109.216 13.6 109.504C14.1333 109.781 14.5547 110.203 14.864 110.768C15.1733 111.333 15.328 112.021 15.328 112.832V118H13.888V113.04C13.888 112.165 13.6693 111.499 13.232 111.04C12.8053 110.571 12.224 110.336 11.488 110.336C10.7307 110.336 10.128 110.581 9.68 111.072C9.232 111.552 9.008 112.251 9.008 113.168V118H7.568V113.04C7.568 112.165 7.34933 111.499 6.912 111.04C6.48533 110.571 5.904 110.336 5.168 110.336C4.41067 110.336 3.808 110.581 3.36 111.072C2.912 111.552 2.688 112.251 2.688 113.168V118H1.232V109.232H2.688V110.496C2.976 110.037 3.36 109.685 3.84 109.44C4.33067 109.195 4.86933 109.072 5.456 109.072C6.192 109.072 6.84267 109.237 7.408 109.568C7.97333 109.899 8.39467 110.384 8.672 111.024C8.91733 110.405 9.32267 109.925 9.888 109.584C10.4533 109.243 11.0827 109.072 11.776 109.072ZM17.1724 113.584C17.1724 112.688 17.3537 111.904 17.7164 111.232C18.079 110.549 18.575 110.021 19.2044 109.648C19.8444 109.275 20.5537 109.088 21.3324 109.088C22.1004 109.088 22.767 109.253 23.3324 109.584C23.8977 109.915 24.319 110.331 24.5964 110.832V109.232H26.0684V118H24.5964V116.368C24.3084 116.88 23.8764 117.307 23.3004 117.648C22.735 117.979 22.0737 118.144 21.3164 118.144C20.5377 118.144 19.8337 117.952 19.2044 117.568C18.575 117.184 18.079 116.645 17.7164 115.952C17.3537 115.259 17.1724 114.469 17.1724 113.584ZM24.5964 113.6C24.5964 112.939 24.463 112.363 24.1964 111.872C23.9297 111.381 23.567 111.008 23.1084 110.752C22.6604 110.485 22.1644 110.352 21.6204 110.352C21.0764 110.352 20.5804 110.48 20.1324 110.736C19.6844 110.992 19.327 111.365 19.0604 111.856C18.7937 112.347 18.6604 112.923 18.6604 113.584C18.6604 114.256 18.7937 114.843 19.0604 115.344C19.327 115.835 19.6844 116.213 20.1324 116.48C20.5804 116.736 21.0764 116.864 21.6204 116.864C22.1644 116.864 22.6604 116.736 23.1084 116.48C23.567 116.213 23.9297 115.835 24.1964 115.344C24.463 114.843 24.5964 114.261 24.5964 113.6ZM32.8009 109.072C33.8675 109.072 34.7315 109.397 35.3929 110.048C36.0542 110.688 36.3849 111.616 36.3849 112.832V118H34.9449V113.04C34.9449 112.165 34.7262 111.499 34.2889 111.04C33.8515 110.571 33.2542 110.336 32.4969 110.336C31.7289 110.336 31.1155 110.576 30.6569 111.056C30.2089 111.536 29.9849 112.235 29.9849 113.152V118H28.5289V109.232H29.9849V110.48C30.2729 110.032 30.6622 109.685 31.1529 109.44C31.6542 109.195 32.2035 109.072 32.8009 109.072ZM46.5393 109.232V118H45.0833V116.704C44.8059 117.152 44.4166 117.504 43.9153 117.76C43.4246 118.005 42.8806 118.128 42.2833 118.128C41.6006 118.128 40.9873 117.989 40.4433 117.712C39.8993 117.424 39.4673 116.997 39.1473 116.432C38.8379 115.867 38.6833 115.179 38.6833 114.368V109.232H40.1233V114.176C40.1233 115.04 40.3419 115.707 40.7793 116.176C41.2166 116.635 41.8139 116.864 42.5713 116.864C43.3499 116.864 43.9633 116.624 44.4113 116.144C44.8593 115.664 45.0833 114.965 45.0833 114.048V109.232H46.5393ZM48.4536 113.584C48.4536 112.688 48.635 111.904 48.9976 111.232C49.3603 110.549 49.8563 110.021 50.4856 109.648C51.1256 109.275 51.835 109.088 52.6136 109.088C53.3816 109.088 54.0483 109.253 54.6136 109.584C55.179 109.915 55.6003 110.331 55.8776 110.832V109.232H57.3496V118H55.8776V116.368C55.5896 116.88 55.1576 117.307 54.5816 117.648C54.0163 117.979 53.355 118.144 52.5976 118.144C51.819 118.144 51.115 117.952 50.4856 117.568C49.8563 117.184 49.3603 116.645 48.9976 115.952C48.635 115.259 48.4536 114.469 48.4536 113.584ZM55.8776 113.6C55.8776 112.939 55.7443 112.363 55.4776 111.872C55.211 111.381 54.8483 111.008 54.3896 110.752C53.9416 110.485 53.4456 110.352 52.9016 110.352C52.3576 110.352 51.8616 110.48 51.4136 110.736C50.9656 110.992 50.6083 111.365 50.3416 111.856C50.075 112.347 49.9416 112.923 49.9416 113.584C49.9416 114.256 50.075 114.843 50.3416 115.344C50.6083 115.835 50.9656 116.213 51.4136 116.48C51.8616 116.736 52.3576 116.864 52.9016 116.864C53.4456 116.864 53.9416 116.736 54.3896 116.48C54.8483 116.213 55.211 115.835 55.4776 115.344C55.7443 114.843 55.8776 114.261 55.8776 113.6ZM61.2661 106.16V118H59.8101V106.16H61.2661ZM65.2036 106.16V118H63.7476V106.16H65.2036ZM75.2371 109.232L69.9571 122.128H68.4531L70.1811 117.904L66.6451 109.232H68.2611L71.0131 116.336L73.7331 109.232H75.2371Z" fill="black" fill-opacity="0.5"/>
<path d="M123.588 5.848V7.032H120.548V17H119.092V7.032H116.036V5.848H123.588ZM124.836 12.584C124.836 11.688 125.018 10.904 125.38 10.232C125.743 9.54933 126.239 9.02133 126.868 8.648C127.508 8.27467 128.218 8.088 128.996 8.088C129.764 8.088 130.431 8.25333 130.996 8.584C131.562 8.91467 131.983 9.33067 132.26 9.832V8.232H133.732V17H132.26V15.368C131.972 15.88 131.54 16.3067 130.964 16.648C130.399 16.9787 129.738 17.144 128.98 17.144C128.202 17.144 127.498 16.952 126.868 16.568C126.239 16.184 125.743 15.6453 125.38 14.952C125.018 14.2587 124.836 13.4693 124.836 12.584ZM132.26 12.6C132.26 11.9387 132.127 11.3627 131.86 10.872C131.594 10.3813 131.231 10.008 130.772 9.752C130.324 9.48533 129.828 9.352 129.284 9.352C128.74 9.352 128.244 9.48 127.796 9.736C127.348 9.992 126.991 10.3653 126.724 10.856C126.458 11.3467 126.324 11.9227 126.324 12.584C126.324 13.256 126.458 13.8427 126.724 14.344C126.991 14.8347 127.348 15.2133 127.796 15.48C128.244 15.736 128.74 15.864 129.284 15.864C129.828 15.864 130.324 15.736 130.772 15.48C131.231 15.2133 131.594 14.8347 131.86 14.344C132.127 13.8427 132.26 13.2613 132.26 12.6ZM141.089 17L137.649 13.128V17H136.193V5.16H137.649V12.12L141.025 8.232H143.057L138.929 12.6L143.073 17H141.089ZM152.427 12.28C152.427 12.5573 152.411 12.8507 152.379 13.16H145.371C145.425 14.024 145.718 14.7013 146.251 15.192C146.795 15.672 147.451 15.912 148.219 15.912C148.849 15.912 149.371 15.768 149.787 15.48C150.214 15.1813 150.513 14.7867 150.683 14.296H152.251C152.017 15.1387 151.547 15.8267 150.843 16.36C150.139 16.8827 149.265 17.144 148.219 17.144C147.387 17.144 146.641 16.9573 145.979 16.584C145.329 16.2107 144.817 15.6827 144.443 15C144.07 14.3067 143.883 13.5067 143.883 12.6C143.883 11.6933 144.065 10.8987 144.427 10.216C144.79 9.53333 145.297 9.01067 145.947 8.648C146.609 8.27467 147.366 8.088 148.219 8.088C149.051 8.088 149.787 8.26933 150.427 8.632C151.067 8.99467 151.558 9.496 151.899 10.136C152.251 10.7653 152.427 11.48 152.427 12.28ZM150.923 11.976C150.923 11.4213 150.801 10.9467 150.555 10.552C150.31 10.1467 149.974 9.84267 149.547 9.64C149.131 9.42667 148.667 9.32 148.155 9.32C147.419 9.32 146.79 9.55467 146.267 10.024C145.755 10.4933 145.462 11.144 145.387 11.976H150.923ZM166.071 9.112C166.071 10.04 165.751 10.8133 165.111 11.432C164.481 12.04 163.516 12.344 162.215 12.344H160.071V17H158.615V5.848H162.215C163.473 5.848 164.428 6.152 165.079 6.76C165.74 7.368 166.071 8.152 166.071 9.112ZM162.215 11.144C163.025 11.144 163.623 10.968 164.007 10.616C164.391 10.264 164.583 9.76267 164.583 9.112C164.583 7.736 163.793 7.048 162.215 7.048H160.071V11.144H162.215ZM172.232 8.072C172.894 8.072 173.491 8.216 174.024 8.504C174.558 8.78133 174.974 9.20267 175.272 9.768C175.582 10.3333 175.736 11.0213 175.736 11.832V17H174.296V12.04C174.296 11.1653 174.078 10.4987 173.64 10.04C173.203 9.57067 172.606 9.336 171.848 9.336C171.08 9.336 170.467 9.576 170.008 10.056C169.56 10.536 169.336 11.2347 169.336 12.152V17H167.88V5.16H169.336V9.48C169.624 9.032 170.019 8.68533 170.52 8.44C171.032 8.19467 171.603 8.072 172.232 8.072ZM181.939 17.144C181.117 17.144 180.371 16.9573 179.699 16.584C179.037 16.2107 178.515 15.6827 178.131 15C177.757 14.3067 177.571 13.5067 177.571 12.6C177.571 11.704 177.763 10.9147 178.147 10.232C178.541 9.53867 179.075 9.01067 179.747 8.648C180.419 8.27467 181.171 8.088 182.003 8.088C182.835 8.088 183.587 8.27467 184.259 8.648C184.931 9.01067 185.459 9.53333 185.843 10.216C186.237 10.8987 186.435 11.6933 186.435 12.6C186.435 13.5067 186.232 14.3067 185.827 15C185.432 15.6827 184.893 16.2107 184.211 16.584C183.528 16.9573 182.771 17.144 181.939 17.144ZM181.939 15.864C182.461 15.864 182.952 15.7413 183.411 15.496C183.869 15.2507 184.237 14.8827 184.515 14.392C184.803 13.9013 184.947 13.304 184.947 12.6C184.947 11.896 184.808 11.2987 184.531 10.808C184.253 10.3173 183.891 9.95467 183.443 9.72C182.995 9.47467 182.509 9.352 181.987 9.352C181.453 9.352 180.963 9.47467 180.515 9.72C180.077 9.95467 179.725 10.3173 179.459 10.808C179.192 11.2987 179.059 11.896 179.059 12.6C179.059 13.3147 179.187 13.9173 179.443 14.408C179.709 14.8987 180.061 15.2667 180.499 15.512C180.936 15.7467 181.416 15.864 181.939 15.864ZM190.125 9.432V14.6C190.125 15.0267 190.216 15.3307 190.397 15.512C190.579 15.6827 190.893 15.768 191.341 15.768H192.413V17H191.101C190.291 17 189.683 16.8133 189.277 16.44C188.872 16.0667 188.669 15.4533 188.669 14.6V9.432H187.533V8.232H188.669V6.024H190.125V8.232H192.413V9.432H190.125ZM198.001 17.144C197.18 17.144 196.433 16.9573 195.761 16.584C195.1 16.2107 194.577 15.6827 194.193 15C193.82 14.3067 193.633 13.5067 193.633 12.6C193.633 11.704 193.825 10.9147 194.209 10.232C194.604 9.53867 195.137 9.01067 195.809 8.648C196.481 8.27467 197.233 8.088 198.065 8.088C198.897 8.088 199.649 8.27467 200.321 8.648C200.993 9.01067 201.521 9.53333 201.905 10.216C202.3 10.8987 202.497 11.6933 202.497 12.6C202.497 13.5067 202.295 14.3067 201.889 15C201.495 15.6827 200.956 16.2107 200.273 16.584C199.591 16.9573 198.833 17.144 198.001 17.144ZM198.001 15.864C198.524 15.864 199.015 15.7413 199.473 15.496C199.932 15.2507 200.3 14.8827 200.577 14.392C200.865 13.9013 201.009 13.304 201.009 12.6C201.009 11.896 200.871 11.2987 200.593 10.808C200.316 10.3173 199.953 9.95467 199.505 9.72C199.057 9.47467 198.572 9.352 198.049 9.352C197.516 9.352 197.025 9.47467 196.577 9.72C196.14 9.95467 195.788 10.3173 195.521 10.808C195.255 11.2987 195.121 11.896 195.121 12.6C195.121 13.3147 195.249 13.9173 195.505 14.408C195.772 14.8987 196.124 15.2667 196.561 15.512C196.999 15.7467 197.479 15.864 198.001 15.864ZM210.453 9.432V14.6C210.453 15.0267 210.544 15.3307 210.725 15.512C210.907 15.6827 211.221 15.768 211.669 15.768H212.741V17H211.429C210.619 17 210.011 16.8133 209.605 16.44C209.2 16.0667 208.997 15.4533 208.997 14.6V9.432H207.861V8.232H208.997V6.024H210.453V8.232H212.741V9.432H210.453ZM218.329 17.144C217.508 17.144 216.761 16.9573 216.089 16.584C215.428 16.2107 214.905 15.6827 214.521 15C214.148 14.3067 213.961 13.5067 213.961 12.6C213.961 11.704 214.153 10.9147 214.537 10.232C214.932 9.53867 215.465 9.01067 216.137 8.648C216.809 8.27467 217.561 8.088 218.393 8.088C219.225 8.088 219.977 8.27467 220.649 8.648C221.321 9.01067 221.849 9.53333 222.233 10.216C222.628 10.8987 222.825 11.6933 222.825 12.6C222.825 13.5067 222.623 14.3067 222.217 15C221.823 15.6827 221.284 16.2107 220.601 16.584C219.919 16.9573 219.161 17.144 218.329 17.144ZM218.329 15.864C218.852 15.864 219.343 15.7413 219.801 15.496C220.26 15.2507 220.628 14.8827 220.905 14.392C221.193 13.9013 221.337 13.304 221.337 12.6C221.337 11.896 221.199 11.2987 220.921 10.808C220.644 10.3173 220.281 9.95467 219.833 9.72C219.385 9.47467 218.9 9.352 218.377 9.352C217.844 9.352 217.353 9.47467 216.905 9.72C216.468 9.95467 216.116 10.3173 215.849 10.808C215.583 11.2987 215.449 11.896 215.449 12.6C215.449 13.3147 215.577 13.9173 215.833 14.408C216.1 14.8987 216.452 15.2667 216.889 15.512C217.327 15.7467 217.807 15.864 218.329 15.864ZM108.961 39.144C108.289 39.144 107.686 39.032 107.153 38.808C106.62 38.5733 106.198 38.2533 105.889 37.848C105.58 37.432 105.409 36.9573 105.377 36.424H106.881C106.924 36.8613 107.126 37.2187 107.489 37.496C107.862 37.7733 108.348 37.912 108.945 37.912C109.5 37.912 109.937 37.7893 110.257 37.544C110.577 37.2987 110.737 36.9893 110.737 36.616C110.737 36.232 110.566 35.9493 110.225 35.768C109.884 35.576 109.356 35.3893 108.641 35.208C107.99 35.0373 107.457 34.8667 107.041 34.696C106.636 34.5147 106.284 34.2533 105.985 33.912C105.697 33.56 105.553 33.1013 105.553 32.536C105.553 32.088 105.686 31.6773 105.953 31.304C106.22 30.9307 106.598 30.6373 107.089 30.424C107.58 30.2 108.14 30.088 108.769 30.088C109.74 30.088 110.524 30.3333 111.121 30.824C111.718 31.3147 112.038 31.9867 112.081 32.84H110.625C110.593 32.3813 110.406 32.0133 110.065 31.736C109.734 31.4587 109.286 31.32 108.721 31.32C108.198 31.32 107.782 31.432 107.473 31.656C107.164 31.88 107.009 32.1733 107.009 32.536C107.009 32.824 107.1 33.064 107.281 33.256C107.473 33.4373 107.708 33.5867 107.985 33.704C108.273 33.8107 108.668 33.9333 109.169 34.072C109.798 34.2427 110.31 34.4133 110.705 34.584C111.1 34.744 111.436 34.9893 111.713 35.32C112.001 35.6507 112.15 36.0827 112.161 36.616C112.161 37.096 112.028 37.528 111.761 37.912C111.494 38.296 111.116 38.6 110.625 38.824C110.145 39.0373 109.59 39.144 108.961 39.144ZM113.672 34.6C113.672 33.6933 113.854 32.904 114.216 32.232C114.579 31.5493 115.08 31.0213 115.72 30.648C116.371 30.2747 117.112 30.088 117.944 30.088C119.022 30.088 119.907 30.3493 120.6 30.872C121.304 31.3947 121.768 32.12 121.992 33.048H120.424C120.275 32.5147 119.982 32.0933 119.544 31.784C119.118 31.4747 118.584 31.32 117.944 31.32C117.112 31.32 116.44 31.608 115.928 32.184C115.416 32.7493 115.16 33.5547 115.16 34.6C115.16 35.656 115.416 36.472 115.928 37.048C116.44 37.624 117.112 37.912 117.944 37.912C118.584 37.912 119.118 37.7627 119.544 37.464C119.971 37.1653 120.264 36.7387 120.424 36.184H121.992C121.758 37.08 121.288 37.8 120.584 38.344C119.88 38.8773 119 39.144 117.944 39.144C117.112 39.144 116.371 38.9573 115.72 38.584C115.08 38.2107 114.579 37.6827 114.216 37C113.854 36.3173 113.672 35.5173 113.672 34.6ZM123.391 34.584C123.391 33.688 123.572 32.904 123.935 32.232C124.298 31.5493 124.794 31.0213 125.423 30.648C126.063 30.2747 126.772 30.088 127.551 30.088C128.319 30.088 128.986 30.2533 129.551 30.584C130.116 30.9147 130.538 31.3307 130.815 31.832V30.232H132.287V39H130.815V37.368C130.527 37.88 130.095 38.3067 129.519 38.648C128.954 38.9787 128.292 39.144 127.535 39.144C126.756 39.144 126.052 38.952 125.423 38.568C124.794 38.184 124.298 37.6453 123.935 36.952C123.572 36.2587 123.391 35.4693 123.391 34.584ZM130.815 34.6C130.815 33.9387 130.682 33.3627 130.415 32.872C130.148 32.3813 129.786 32.008 129.327 31.752C128.879 31.4853 128.383 31.352 127.839 31.352C127.295 31.352 126.799 31.48 126.351 31.736C125.903 31.992 125.546 32.3653 125.279 32.856C125.012 33.3467 124.879 33.9227 124.879 34.584C124.879 35.256 125.012 35.8427 125.279 36.344C125.546 36.8347 125.903 37.2133 126.351 37.48C126.799 37.736 127.295 37.864 127.839 37.864C128.383 37.864 128.879 37.736 129.327 37.48C129.786 37.2133 130.148 36.8347 130.415 36.344C130.682 35.8427 130.815 35.2613 130.815 34.6ZM139.02 30.072C140.086 30.072 140.95 30.3973 141.612 31.048C142.273 31.688 142.604 32.616 142.604 33.832V39H141.164V34.04C141.164 33.1653 140.945 32.4987 140.508 32.04C140.07 31.5707 139.473 31.336 138.716 31.336C137.948 31.336 137.334 31.576 136.876 32.056C136.428 32.536 136.204 33.2347 136.204 34.152V39H134.748V30.232H136.204V31.48C136.492 31.032 136.881 30.6853 137.372 30.44C137.873 30.1947 138.422 30.072 139.02 30.072ZM151.024 31.432V36.6C151.024 37.0267 151.114 37.3307 151.296 37.512C151.477 37.6827 151.792 37.768 152.24 37.768H153.312V39H152C151.189 39 150.581 38.8133 150.176 38.44C149.77 38.0667 149.568 37.4533 149.568 36.6V31.432H148.432V30.232H149.568V28.024H151.024V30.232H153.312V31.432H151.024ZM159.428 30.072C160.089 30.072 160.686 30.216 161.22 30.504C161.753 30.7813 162.169 31.2027 162.468 31.768C162.777 32.3333 162.932 33.0213 162.932 33.832V39H161.492V34.04C161.492 33.1653 161.273 32.4987 160.836 32.04C160.398 31.5707 159.801 31.336 159.044 31.336C158.276 31.336 157.662 31.576 157.204 32.056C156.756 32.536 156.532 33.2347 156.532 34.152V39H155.076V27.16H156.532V31.48C156.82 31.032 157.214 30.6853 157.716 30.44C158.228 30.1947 158.798 30.072 159.428 30.072ZM173.31 34.28C173.31 34.5573 173.294 34.8507 173.262 35.16H166.254C166.307 36.024 166.601 36.7013 167.134 37.192C167.678 37.672 168.334 37.912 169.102 37.912C169.731 37.912 170.254 37.768 170.67 37.48C171.097 37.1813 171.395 36.7867 171.566 36.296H173.134C172.899 37.1387 172.43 37.8267 171.726 38.36C171.022 38.8827 170.147 39.144 169.102 39.144C168.27 39.144 167.523 38.9573 166.862 38.584C166.211 38.2107 165.699 37.6827 165.326 37C164.953 36.3067 164.766 35.5067 164.766 34.6C164.766 33.6933 164.947 32.8987 165.31 32.216C165.673 31.5333 166.179 31.0107 166.83 30.648C167.491 30.2747 168.249 30.088 169.102 30.088C169.934 30.088 170.67 30.2693 171.31 30.632C171.95 30.9947 172.441 31.496 172.782 32.136C173.134 32.7653 173.31 33.48 173.31 34.28ZM171.806 33.976C171.806 33.4213 171.683 32.9467 171.438 32.552C171.193 32.1467 170.857 31.8427 170.43 31.64C170.014 31.4267 169.55 31.32 169.038 31.32C168.302 31.32 167.673 31.5547 167.15 32.024C166.638 32.4933 166.345 33.144 166.27 33.976H171.806ZM180.954 31.656C181.21 31.1547 181.572 30.7653 182.042 30.488C182.522 30.2107 183.103 30.072 183.786 30.072V31.576H183.402C181.77 31.576 180.954 32.4613 180.954 34.232V39H179.498V30.232H180.954V31.656ZM193.466 34.28C193.466 34.5573 193.45 34.8507 193.418 35.16H186.41C186.464 36.024 186.757 36.7013 187.29 37.192C187.834 37.672 188.49 37.912 189.258 37.912C189.888 37.912 190.41 37.768 190.826 37.48C191.253 37.1813 191.552 36.7867 191.722 36.296H193.29C193.056 37.1387 192.586 37.8267 191.882 38.36C191.178 38.8827 190.304 39.144 189.258 39.144C188.426 39.144 187.68 38.9573 187.018 38.584C186.368 38.2107 185.856 37.6827 185.482 37C185.109 36.3067 184.922 35.5067 184.922 34.6C184.922 33.6933 185.104 32.8987 185.466 32.216C185.829 31.5333 186.336 31.0107 186.986 30.648C187.648 30.2747 188.405 30.088 189.258 30.088C190.09 30.088 190.826 30.2693 191.466 30.632C192.106 30.9947 192.597 31.496 192.938 32.136C193.29 32.7653 193.466 33.48 193.466 34.28ZM191.962 33.976C191.962 33.4213 191.84 32.9467 191.594 32.552C191.349 32.1467 191.013 31.8427 190.586 31.64C190.17 31.4267 189.706 31.32 189.194 31.32C188.458 31.32 187.829 31.5547 187.306 32.024C186.794 32.4933 186.501 33.144 186.426 33.976H191.962ZM194.844 34.6C194.844 33.6933 195.026 32.904 195.388 32.232C195.751 31.5493 196.252 31.0213 196.892 30.648C197.543 30.2747 198.284 30.088 199.116 30.088C200.194 30.088 201.079 30.3493 201.772 30.872C202.476 31.3947 202.94 32.12 203.164 33.048H201.596C201.447 32.5147 201.154 32.0933 200.716 31.784C200.29 31.4747 199.756 31.32 199.116 31.32C198.284 31.32 197.612 31.608 197.1 32.184C196.588 32.7493 196.332 33.5547 196.332 34.6C196.332 35.656 196.588 36.472 197.1 37.048C197.612 37.624 198.284 37.912 199.116 37.912C199.756 37.912 200.29 37.7627 200.716 37.464C201.143 37.1653 201.436 36.7387 201.596 36.184H203.164C202.93 37.08 202.46 37.8 201.756 38.344C201.052 38.8773 200.172 39.144 199.116 39.144C198.284 39.144 197.543 38.9573 196.892 38.584C196.252 38.2107 195.751 37.6827 195.388 37C195.026 36.3173 194.844 35.5173 194.844 34.6ZM213.107 34.28C213.107 34.5573 213.091 34.8507 213.059 35.16H206.051C206.104 36.024 206.398 36.7013 206.931 37.192C207.475 37.672 208.131 37.912 208.899 37.912C209.528 37.912 210.051 37.768 210.467 37.48C210.894 37.1813 211.192 36.7867 211.363 36.296H212.931C212.696 37.1387 212.227 37.8267 211.523 38.36C210.819 38.8827 209.944 39.144 208.899 39.144C208.067 39.144 207.32 38.9573 206.659 38.584C206.008 38.2107 205.496 37.6827 205.123 37C204.75 36.3067 204.563 35.5067 204.563 34.6C204.563 33.6933 204.744 32.8987 205.107 32.216C205.47 31.5333 205.976 31.0107 206.627 30.648C207.288 30.2747 208.046 30.088 208.899 30.088C209.731 30.088 210.467 30.2693 211.107 30.632C211.747 30.9947 212.238 31.496 212.579 32.136C212.931 32.7653 213.107 33.48 213.107 34.28ZM211.603 33.976C211.603 33.4213 211.48 32.9467 211.235 32.552C210.99 32.1467 210.654 31.8427 210.227 31.64C209.811 31.4267 209.347 31.32 208.835 31.32C208.099 31.32 207.47 31.5547 206.947 32.024C206.435 32.4933 206.142 33.144 206.067 33.976H211.603ZM215.781 28.808C215.504 28.808 215.269 28.712 215.077 28.52C214.885 28.328 214.789 28.0933 214.789 27.816C214.789 27.5387 214.885 27.304 215.077 27.112C215.269 26.92 215.504 26.824 215.781 26.824C216.048 26.824 216.272 26.92 216.453 27.112C216.645 27.304 216.741 27.5387 216.741 27.816C216.741 28.0933 216.645 28.328 216.453 28.52C216.272 28.712 216.048 28.808 215.781 28.808ZM216.485 30.232V39H215.029V30.232H216.485ZM220.422 31.848C220.71 31.3467 221.137 30.9307 221.702 30.6C222.278 30.2587 222.945 30.088 223.702 30.088C224.481 30.088 225.185 30.2747 225.814 30.648C226.454 31.0213 226.956 31.5493 227.318 32.232C227.681 32.904 227.862 33.688 227.862 34.584C227.862 35.4693 227.681 36.2587 227.318 36.952C226.956 37.6453 226.454 38.184 225.814 38.568C225.185 38.952 224.481 39.144 223.702 39.144C222.956 39.144 222.294 38.9787 221.718 38.648C221.153 38.3067 220.721 37.8853 220.422 37.384V43.16H218.966V30.232H220.422V31.848ZM226.374 34.584C226.374 33.9227 226.241 33.3467 225.974 32.856C225.708 32.3653 225.345 31.992 224.886 31.736C224.438 31.48 223.942 31.352 223.398 31.352C222.865 31.352 222.369 31.4853 221.91 31.752C221.462 32.008 221.1 32.3867 220.822 32.888C220.556 33.3787 220.422 33.9493 220.422 34.6C220.422 35.2613 220.556 35.8427 220.822 36.344C221.1 36.8347 221.462 37.2133 221.91 37.48C222.369 37.736 222.865 37.864 223.398 37.864C223.942 37.864 224.438 37.736 224.886 37.48C225.345 37.2133 225.708 36.8347 225.974 36.344C226.241 35.8427 226.374 35.256 226.374 34.584ZM231.555 31.432V36.6C231.555 37.0267 231.646 37.3307 231.827 37.512C232.008 37.6827 232.323 37.768 232.771 37.768H233.843V39H232.531C231.72 39 231.112 38.8133 230.707 38.44C230.302 38.0667 230.099 37.4533 230.099 36.6V31.432H228.963V30.232H230.099V28.024H231.555V30.232H233.843V31.432H231.555Z" fill="black" fill-opacity="0.5"/>
</svg>
