<svg width="282" height="88" viewBox="0 0 282 88" fill="none" xmlns="http://www.w3.org/2000/svg">
<rect width="282" height="88" rx="16" fill="black"/>
<path d="M20.704 17.848C21.92 17.848 22.9707 18.0773 23.856 18.536C24.752 18.984 25.4347 19.6293 25.904 20.472C26.384 21.3147 26.624 22.3067 26.624 23.448C26.624 24.5893 26.384 25.5813 25.904 26.424C25.4347 27.256 24.752 27.896 23.856 28.344C22.9707 28.7813 21.92 29 20.704 29H17.232V17.848H20.704ZM20.704 27.8C22.144 27.8 23.2427 27.4213 24 26.664C24.7573 25.896 25.136 24.824 25.136 23.448C25.136 22.0613 24.752 20.9787 23.984 20.2C23.2267 19.4213 22.1333 19.032 20.704 19.032H18.688V27.8H20.704ZM30.0005 21.656C30.2565 21.1547 30.6192 20.7653 31.0885 20.488C31.5685 20.2107 32.1498 20.072 32.8325 20.072V21.576H32.4485C30.8165 21.576 30.0005 22.4613 30.0005 24.232V29H28.5445V20.232H30.0005V21.656ZM33.9693 24.584C33.9693 23.688 34.1506 22.904 34.5133 22.232C34.8759 21.5493 35.3719 21.0213 36.0013 20.648C36.6413 20.2747 37.3506 20.088 38.1293 20.088C38.8973 20.088 39.5639 20.2533 40.1293 20.584C40.6946 20.9147 41.1159 21.3307 41.3933 21.832V20.232H42.8653V29H41.3933V27.368C41.1053 27.88 40.6733 28.3067 40.0973 28.648C39.5319 28.9787 38.8706 29.144 38.1133 29.144C37.3346 29.144 36.6306 28.952 36.0013 28.568C35.3719 28.184 34.8759 27.6453 34.5133 26.952C34.1506 26.2587 33.9693 25.4693 33.9693 24.584ZM41.3933 24.6C41.3933 23.9387 41.2599 23.3627 40.9933 22.872C40.7266 22.3813 40.3639 22.008 39.9053 21.752C39.4573 21.4853 38.9613 21.352 38.4173 21.352C37.8733 21.352 37.3773 21.48 36.9293 21.736C36.4813 21.992 36.1239 22.3653 35.8573 22.856C35.5906 23.3467 35.4573 23.9227 35.4573 24.584C35.4573 25.256 35.5906 25.8427 35.8573 26.344C36.1239 26.8347 36.4813 27.2133 36.9293 27.48C37.3773 27.736 37.8733 27.864 38.4173 27.864C38.9613 27.864 39.4573 27.736 39.9053 27.48C40.3639 27.2133 40.7266 26.8347 40.9933 26.344C41.2599 25.8427 41.3933 25.2613 41.3933 24.6ZM48.9418 20.088C49.6991 20.088 50.3604 20.2533 50.9258 20.584C51.5018 20.9147 51.9284 21.3307 52.2058 21.832V20.232H53.6778V29.192C53.6778 29.992 53.5071 30.7013 53.1658 31.32C52.8244 31.9493 52.3338 32.44 51.6938 32.792C51.0644 33.144 50.3284 33.32 49.4858 33.32C48.3338 33.32 47.3738 33.048 46.6058 32.504C45.8378 31.96 45.3844 31.2187 45.2458 30.28H46.6858C46.8458 30.8133 47.1764 31.24 47.6778 31.56C48.1791 31.8907 48.7818 32.056 49.4858 32.056C50.2858 32.056 50.9364 31.8053 51.4378 31.304C51.9498 30.8027 52.2058 30.0987 52.2058 29.192V27.352C51.9178 27.864 51.4911 28.2907 50.9258 28.632C50.3604 28.9733 49.6991 29.144 48.9418 29.144C48.1631 29.144 47.4538 28.952 46.8138 28.568C46.1844 28.184 45.6884 27.6453 45.3258 26.952C44.9631 26.2587 44.7818 25.4693 44.7818 24.584C44.7818 23.688 44.9631 22.904 45.3258 22.232C45.6884 21.5493 46.1844 21.0213 46.8138 20.648C47.4538 20.2747 48.1631 20.088 48.9418 20.088ZM52.2058 24.6C52.2058 23.9387 52.0724 23.3627 51.8058 22.872C51.5391 22.3813 51.1764 22.008 50.7178 21.752C50.2698 21.4853 49.7738 21.352 49.2298 21.352C48.6858 21.352 48.1898 21.48 47.7418 21.736C47.2938 21.992 46.9364 22.3653 46.6698 22.856C46.4031 23.3467 46.2698 23.9227 46.2698 24.584C46.2698 25.256 46.4031 25.8427 46.6698 26.344C46.9364 26.8347 47.2938 27.2133 47.7418 27.48C48.1898 27.736 48.6858 27.864 49.2298 27.864C49.7738 27.864 50.2698 27.736 50.7178 27.48C51.1764 27.2133 51.5391 26.8347 51.8058 26.344C52.0724 25.8427 52.2058 25.2613 52.2058 24.6ZM59.8599 24.584C59.8599 23.688 60.0412 22.904 60.4039 22.232C60.7665 21.5493 61.2625 21.0213 61.8919 20.648C62.5319 20.2747 63.2412 20.088 64.0199 20.088C64.7879 20.088 65.4545 20.2533 66.0199 20.584C66.5852 20.9147 67.0065 21.3307 67.2839 21.832V20.232H68.7559V29H67.2839V27.368C66.9959 27.88 66.5639 28.3067 65.9879 28.648C65.4225 28.9787 64.7612 29.144 64.0039 29.144C63.2252 29.144 62.5212 28.952 61.8919 28.568C61.2625 28.184 60.7665 27.6453 60.4039 26.952C60.0412 26.2587 59.8599 25.4693 59.8599 24.584ZM67.2839 24.6C67.2839 23.9387 67.1505 23.3627 66.8839 22.872C66.6172 22.3813 66.2545 22.008 65.7959 21.752C65.3479 21.4853 64.8519 21.352 64.3079 21.352C63.7639 21.352 63.2679 21.48 62.8199 21.736C62.3719 21.992 62.0145 22.3653 61.7479 22.856C61.4812 23.3467 61.3479 23.9227 61.3479 24.584C61.3479 25.256 61.4812 25.8427 61.7479 26.344C62.0145 26.8347 62.3719 27.2133 62.8199 27.48C63.2679 27.736 63.7639 27.864 64.3079 27.864C64.8519 27.864 65.3479 27.736 65.7959 27.48C66.2545 27.2133 66.6172 26.8347 66.8839 26.344C67.1505 25.8427 67.2839 25.2613 67.2839 24.6ZM79.05 21.432H77.21V29H75.754V21.432H74.618V20.232H75.754V19.608C75.754 18.6267 76.0047 17.912 76.506 17.464C77.018 17.0053 77.834 16.776 78.954 16.776V17.992C78.314 17.992 77.8607 18.12 77.594 18.376C77.338 18.6213 77.21 19.032 77.21 19.608V20.232H79.05V21.432ZM82.2036 21.656C82.4596 21.1547 82.8223 20.7653 83.2916 20.488C83.7716 20.2107 84.353 20.072 85.0356 20.072V21.576H84.6516C83.0196 21.576 82.2036 22.4613 82.2036 24.232V29H80.7476V20.232H82.2036V21.656ZM87.4684 18.808C87.191 18.808 86.9564 18.712 86.7644 18.52C86.5724 18.328 86.4764 18.0933 86.4764 17.816C86.4764 17.5387 86.5724 17.304 86.7644 17.112C86.9564 16.92 87.191 16.824 87.4684 16.824C87.735 16.824 87.959 16.92 88.1404 17.112C88.3324 17.304 88.4284 17.5387 88.4284 17.816C88.4284 18.0933 88.3324 18.328 88.1404 18.52C87.959 18.712 87.735 18.808 87.4684 18.808ZM88.1724 20.232V29H86.7164V20.232H88.1724ZM98.6539 24.28C98.6539 24.5573 98.6379 24.8507 98.6059 25.16H91.5979C91.6512 26.024 91.9445 26.7013 92.4779 27.192C93.0219 27.672 93.6779 27.912 94.4459 27.912C95.0752 27.912 95.5979 27.768 96.0139 27.48C96.4405 27.1813 96.7392 26.7867 96.9099 26.296H98.4779C98.2432 27.1387 97.7739 27.8267 97.0699 28.36C96.3659 28.8827 95.4912 29.144 94.4459 29.144C93.6139 29.144 92.8672 28.9573 92.2059 28.584C91.5552 28.2107 91.0432 27.6827 90.6699 27C90.2965 26.3067 90.1099 25.5067 90.1099 24.6C90.1099 23.6933 90.2912 22.8987 90.6539 22.216C91.0165 21.5333 91.5232 21.0107 92.1739 20.648C92.8352 20.2747 93.5925 20.088 94.4459 20.088C95.2779 20.088 96.0139 20.2693 96.6539 20.632C97.2939 20.9947 97.7845 21.496 98.1259 22.136C98.4779 22.7653 98.6539 23.48 98.6539 24.28ZM97.1499 23.976C97.1499 23.4213 97.0272 22.9467 96.7819 22.552C96.5365 22.1467 96.2005 21.8427 95.7739 21.64C95.3579 21.4267 94.8939 21.32 94.3819 21.32C93.6459 21.32 93.0165 21.5547 92.4939 22.024C91.9819 22.4933 91.6885 23.144 91.6139 23.976H97.1499ZM104.848 20.072C105.914 20.072 106.778 20.3973 107.44 21.048C108.101 21.688 108.432 22.616 108.432 23.832V29H106.992V24.04C106.992 23.1653 106.773 22.4987 106.336 22.04C105.898 21.5707 105.301 21.336 104.544 21.336C103.776 21.336 103.162 21.576 102.704 22.056C102.256 22.536 102.032 23.2347 102.032 24.152V29H100.576V20.232H102.032V21.48C102.32 21.032 102.709 20.6853 103.2 20.44C103.701 20.1947 104.25 20.072 104.848 20.072ZM110.266 24.584C110.266 23.688 110.447 22.904 110.81 22.232C111.173 21.5493 111.669 21.0213 112.298 20.648C112.938 20.2747 113.653 20.088 114.442 20.088C115.125 20.088 115.759 20.248 116.346 20.568C116.933 20.8773 117.381 21.288 117.69 21.8V17.16H119.162V29H117.69V27.352C117.402 27.8747 116.975 28.3067 116.41 28.648C115.845 28.9787 115.183 29.144 114.426 29.144C113.647 29.144 112.938 28.952 112.298 28.568C111.669 28.184 111.173 27.6453 110.81 26.952C110.447 26.2587 110.266 25.4693 110.266 24.584ZM117.69 24.6C117.69 23.9387 117.557 23.3627 117.29 22.872C117.023 22.3813 116.661 22.008 116.202 21.752C115.754 21.4853 115.258 21.352 114.714 21.352C114.17 21.352 113.674 21.48 113.226 21.736C112.778 21.992 112.421 22.3653 112.154 22.856C111.887 23.3467 111.754 23.9227 111.754 24.584C111.754 25.256 111.887 25.8427 112.154 26.344C112.421 26.8347 112.778 27.2133 113.226 27.48C113.674 27.736 114.17 27.864 114.714 27.864C115.258 27.864 115.754 27.736 116.202 27.48C116.661 27.2133 117.023 26.8347 117.29 26.344C117.557 25.8427 117.69 25.2613 117.69 24.6ZM127.664 21.432V26.6C127.664 27.0267 127.755 27.3307 127.936 27.512C128.118 27.6827 128.432 27.768 128.88 27.768H129.952V29H128.64C127.83 29 127.222 28.8133 126.816 28.44C126.411 28.0667 126.208 27.4533 126.208 26.6V21.432H125.072V20.232H126.208V18.024H127.664V20.232H129.952V21.432H127.664ZM135.54 29.144C134.719 29.144 133.972 28.9573 133.3 28.584C132.639 28.2107 132.116 27.6827 131.732 27C131.359 26.3067 131.172 25.5067 131.172 24.6C131.172 23.704 131.364 22.9147 131.748 22.232C132.143 21.5387 132.676 21.0107 133.348 20.648C134.02 20.2747 134.772 20.088 135.604 20.088C136.436 20.088 137.188 20.2747 137.86 20.648C138.532 21.0107 139.06 21.5333 139.444 22.216C139.839 22.8987 140.036 23.6933 140.036 24.6C140.036 25.5067 139.834 26.3067 139.428 27C139.034 27.6827 138.495 28.2107 137.812 28.584C137.13 28.9573 136.372 29.144 135.54 29.144ZM135.54 27.864C136.063 27.864 136.554 27.7413 137.012 27.496C137.471 27.2507 137.839 26.8827 138.116 26.392C138.404 25.9013 138.548 25.304 138.548 24.6C138.548 23.896 138.41 23.2987 138.132 22.808C137.855 22.3173 137.492 21.9547 137.044 21.72C136.596 21.4747 136.111 21.352 135.588 21.352C135.055 21.352 134.564 21.4747 134.116 21.72C133.679 21.9547 133.327 22.3173 133.06 22.808C132.794 23.2987 132.66 23.896 132.66 24.6C132.66 25.3147 132.788 25.9173 133.044 26.408C133.311 26.8987 133.663 27.2667 134.1 27.512C134.538 27.7467 135.018 27.864 135.54 27.864ZM145.672 24.584C145.672 23.688 145.854 22.904 146.216 22.232C146.579 21.5493 147.075 21.0213 147.704 20.648C148.344 20.2747 149.054 20.088 149.832 20.088C150.6 20.088 151.267 20.2533 151.832 20.584C152.398 20.9147 152.819 21.3307 153.096 21.832V20.232H154.568V29H153.096V27.368C152.808 27.88 152.376 28.3067 151.8 28.648C151.235 28.9787 150.574 29.144 149.816 29.144C149.038 29.144 148.334 28.952 147.704 28.568C147.075 28.184 146.579 27.6453 146.216 26.952C145.854 26.2587 145.672 25.4693 145.672 24.584ZM153.096 24.6C153.096 23.9387 152.963 23.3627 152.696 22.872C152.43 22.3813 152.067 22.008 151.608 21.752C151.16 21.4853 150.664 21.352 150.12 21.352C149.576 21.352 149.08 21.48 148.632 21.736C148.184 21.992 147.827 22.3653 147.56 22.856C147.294 23.3467 147.16 23.9227 147.16 24.584C147.16 25.256 147.294 25.8427 147.56 26.344C147.827 26.8347 148.184 27.2133 148.632 27.48C149.08 27.736 149.576 27.864 150.12 27.864C150.664 27.864 151.16 27.736 151.608 27.48C152.067 27.2133 152.43 26.8347 152.696 26.344C152.963 25.8427 153.096 25.2613 153.096 24.6ZM160.133 29.144C159.461 29.144 158.858 29.032 158.325 28.808C157.792 28.5733 157.37 28.2533 157.061 27.848C156.752 27.432 156.581 26.9573 156.549 26.424H158.053C158.096 26.8613 158.298 27.2187 158.661 27.496C159.034 27.7733 159.52 27.912 160.117 27.912C160.672 27.912 161.109 27.7893 161.429 27.544C161.749 27.2987 161.909 26.9893 161.909 26.616C161.909 26.232 161.738 25.9493 161.397 25.768C161.056 25.576 160.528 25.3893 159.813 25.208C159.162 25.0373 158.629 24.8667 158.213 24.696C157.808 24.5147 157.456 24.2533 157.157 23.912C156.869 23.56 156.725 23.1013 156.725 22.536C156.725 22.088 156.858 21.6773 157.125 21.304C157.392 20.9307 157.77 20.6373 158.261 20.424C158.752 20.2 159.312 20.088 159.941 20.088C160.912 20.088 161.696 20.3333 162.293 20.824C162.89 21.3147 163.21 21.9867 163.253 22.84H161.797C161.765 22.3813 161.578 22.0133 161.237 21.736C160.906 21.4587 160.458 21.32 159.893 21.32C159.37 21.32 158.954 21.432 158.645 21.656C158.336 21.88 158.181 22.1733 158.181 22.536C158.181 22.824 158.272 23.064 158.453 23.256C158.645 23.4373 158.88 23.5867 159.157 23.704C159.445 23.8107 159.84 23.9333 160.341 24.072C160.97 24.2427 161.482 24.4133 161.877 24.584C162.272 24.744 162.608 24.9893 162.885 25.32C163.173 25.6507 163.322 26.0827 163.333 26.616C163.333 27.096 163.2 27.528 162.933 27.912C162.666 28.296 162.288 28.6 161.797 28.824C161.317 29.0373 160.762 29.144 160.133 29.144ZM168.492 29.144C167.82 29.144 167.218 29.032 166.684 28.808C166.151 28.5733 165.73 28.2533 165.42 27.848C165.111 27.432 164.94 26.9573 164.908 26.424H166.412C166.455 26.8613 166.658 27.2187 167.02 27.496C167.394 27.7733 167.879 27.912 168.476 27.912C169.031 27.912 169.468 27.7893 169.788 27.544C170.108 27.2987 170.268 26.9893 170.268 26.616C170.268 26.232 170.098 25.9493 169.756 25.768C169.415 25.576 168.887 25.3893 168.172 25.208C167.522 25.0373 166.988 24.8667 166.572 24.696C166.167 24.5147 165.815 24.2533 165.516 23.912C165.228 23.56 165.084 23.1013 165.084 22.536C165.084 22.088 165.218 21.6773 165.484 21.304C165.751 20.9307 166.13 20.6373 166.62 20.424C167.111 20.2 167.671 20.088 168.3 20.088C169.271 20.088 170.055 20.3333 170.652 20.824C171.25 21.3147 171.57 21.9867 171.612 22.84H170.156C170.124 22.3813 169.938 22.0133 169.596 21.736C169.266 21.4587 168.818 21.32 168.252 21.32C167.73 21.32 167.314 21.432 167.004 21.656C166.695 21.88 166.54 22.1733 166.54 22.536C166.54 22.824 166.631 23.064 166.812 23.256C167.004 23.4373 167.239 23.5867 167.516 23.704C167.804 23.8107 168.199 23.9333 168.7 24.072C169.33 24.2427 169.842 24.4133 170.236 24.584C170.631 24.744 170.967 24.9893 171.244 25.32C171.532 25.6507 171.682 26.0827 171.692 26.616C171.692 27.096 171.559 27.528 171.292 27.912C171.026 28.296 170.647 28.6 170.156 28.824C169.676 29.0373 169.122 29.144 168.492 29.144ZM174.5 18.808C174.222 18.808 173.988 18.712 173.796 18.52C173.604 18.328 173.508 18.0933 173.508 17.816C173.508 17.5387 173.604 17.304 173.796 17.112C173.988 16.92 174.222 16.824 174.5 16.824C174.766 16.824 174.99 16.92 175.172 17.112C175.364 17.304 175.46 17.5387 175.46 17.816C175.46 18.0933 175.364 18.328 175.172 18.52C174.99 18.712 174.766 18.808 174.5 18.808ZM175.204 20.232V29H173.748V20.232H175.204ZM181.301 20.088C182.058 20.088 182.72 20.2533 183.285 20.584C183.861 20.9147 184.288 21.3307 184.565 21.832V20.232H186.037V29.192C186.037 29.992 185.866 30.7013 185.525 31.32C185.184 31.9493 184.693 32.44 184.053 32.792C183.424 33.144 182.688 33.32 181.845 33.32C180.693 33.32 179.733 33.048 178.965 32.504C178.197 31.96 177.744 31.2187 177.605 30.28H179.045C179.205 30.8133 179.536 31.24 180.037 31.56C180.538 31.8907 181.141 32.056 181.845 32.056C182.645 32.056 183.296 31.8053 183.797 31.304C184.309 30.8027 184.565 30.0987 184.565 29.192V27.352C184.277 27.864 183.85 28.2907 183.285 28.632C182.72 28.9733 182.058 29.144 181.301 29.144C180.522 29.144 179.813 28.952 179.173 28.568C178.544 28.184 178.048 27.6453 177.685 26.952C177.322 26.2587 177.141 25.4693 177.141 24.584C177.141 23.688 177.322 22.904 177.685 22.232C178.048 21.5493 178.544 21.0213 179.173 20.648C179.813 20.2747 180.522 20.088 181.301 20.088ZM184.565 24.6C184.565 23.9387 184.432 23.3627 184.165 22.872C183.898 22.3813 183.536 22.008 183.077 21.752C182.629 21.4853 182.133 21.352 181.589 21.352C181.045 21.352 180.549 21.48 180.101 21.736C179.653 21.992 179.296 22.3653 179.029 22.856C178.762 23.3467 178.629 23.9227 178.629 24.584C178.629 25.256 178.762 25.8427 179.029 26.344C179.296 26.8347 179.653 27.2133 180.101 27.48C180.549 27.736 181.045 27.864 181.589 27.864C182.133 27.864 182.629 27.736 183.077 27.48C183.536 27.2133 183.898 26.8347 184.165 26.344C184.432 25.8427 184.565 25.2613 184.565 24.6ZM192.77 20.072C193.836 20.072 194.7 20.3973 195.362 21.048C196.023 21.688 196.354 22.616 196.354 23.832V29H194.914V24.04C194.914 23.1653 194.695 22.4987 194.258 22.04C193.82 21.5707 193.223 21.336 192.466 21.336C191.698 21.336 191.084 21.576 190.626 22.056C190.178 22.536 189.954 23.2347 189.954 24.152V29H188.498V20.232H189.954V21.48C190.242 21.032 190.631 20.6853 191.122 20.44C191.623 20.1947 192.172 20.072 192.77 20.072ZM204.774 21.432V26.6C204.774 27.0267 204.864 27.3307 205.046 27.512C205.227 27.6827 205.542 27.768 205.99 27.768H207.062V29H205.75C204.939 29 204.331 28.8133 203.926 28.44C203.52 28.0667 203.318 27.4533 203.318 26.6V21.432H202.182V20.232H203.318V18.024H204.774V20.232H207.062V21.432H204.774ZM213.178 20.072C213.839 20.072 214.436 20.216 214.97 20.504C215.503 20.7813 215.919 21.2027 216.218 21.768C216.527 22.3333 216.682 23.0213 216.682 23.832V29H215.242V24.04C215.242 23.1653 215.023 22.4987 214.586 22.04C214.148 21.5707 213.551 21.336 212.794 21.336C212.026 21.336 211.412 21.576 210.954 22.056C210.506 22.536 210.282 23.2347 210.282 24.152V29H208.826V17.16H210.282V21.48C210.57 21.032 210.964 20.6853 211.466 20.44C211.978 20.1947 212.548 20.072 213.178 20.072ZM227.06 24.28C227.06 24.5573 227.044 24.8507 227.012 25.16H220.004C220.057 26.024 220.351 26.7013 220.884 27.192C221.428 27.672 222.084 27.912 222.852 27.912C223.481 27.912 224.004 27.768 224.42 27.48C224.847 27.1813 225.145 26.7867 225.316 26.296H226.884C226.649 27.1387 226.18 27.8267 225.476 28.36C224.772 28.8827 223.897 29.144 222.852 29.144C222.02 29.144 221.273 28.9573 220.612 28.584C219.961 28.2107 219.449 27.6827 219.076 27C218.703 26.3067 218.516 25.5067 218.516 24.6C218.516 23.6933 218.697 22.8987 219.06 22.216C219.423 21.5333 219.929 21.0107 220.58 20.648C221.241 20.2747 221.999 20.088 222.852 20.088C223.684 20.088 224.42 20.2693 225.06 20.632C225.7 20.9947 226.191 21.496 226.532 22.136C226.884 22.7653 227.06 23.48 227.06 24.28ZM225.556 23.976C225.556 23.4213 225.433 22.9467 225.188 22.552C224.943 22.1467 224.607 21.8427 224.18 21.64C223.764 21.4267 223.3 21.32 222.788 21.32C222.052 21.32 221.423 21.5547 220.9 22.024C220.388 22.4933 220.095 23.144 220.02 23.976H225.556ZM232.704 24.584C232.704 23.688 232.885 22.904 233.248 22.232C233.61 21.5493 234.106 21.0213 234.736 20.648C235.376 20.2747 236.09 20.088 236.88 20.088C237.562 20.088 238.197 20.248 238.784 20.568C239.37 20.8773 239.818 21.288 240.128 21.8V17.16H241.6V29H240.128V27.352C239.84 27.8747 239.413 28.3067 238.848 28.648C238.282 28.9787 237.621 29.144 236.864 29.144C236.085 29.144 235.376 28.952 234.736 28.568C234.106 28.184 233.61 27.6453 233.248 26.952C232.885 26.2587 232.704 25.4693 232.704 24.584ZM240.128 24.6C240.128 23.9387 239.994 23.3627 239.728 22.872C239.461 22.3813 239.098 22.008 238.64 21.752C238.192 21.4853 237.696 21.352 237.152 21.352C236.608 21.352 236.112 21.48 235.664 21.736C235.216 21.992 234.858 22.3653 234.592 22.856C234.325 23.3467 234.192 23.9227 234.192 24.584C234.192 25.256 234.325 25.8427 234.592 26.344C234.858 26.8347 235.216 27.2133 235.664 27.48C236.112 27.736 236.608 27.864 237.152 27.864C237.696 27.864 238.192 27.736 238.64 27.48C239.098 27.2133 239.461 26.8347 239.728 26.344C239.994 25.8427 240.128 25.2613 240.128 24.6ZM244.812 18.808C244.535 18.808 244.3 18.712 244.108 18.52C243.916 18.328 243.82 18.0933 243.82 17.816C243.82 17.5387 243.916 17.304 244.108 17.112C244.3 16.92 244.535 16.824 244.812 16.824C245.079 16.824 245.303 16.92 245.484 17.112C245.676 17.304 245.772 17.5387 245.772 17.816C245.772 18.0933 245.676 18.328 245.484 18.52C245.303 18.712 245.079 18.808 244.812 18.808ZM245.516 20.232V29H244.06V20.232H245.516ZM251.102 29.144C250.43 29.144 249.827 29.032 249.294 28.808C248.76 28.5733 248.339 28.2533 248.03 27.848C247.72 27.432 247.55 26.9573 247.518 26.424H249.022C249.064 26.8613 249.267 27.2187 249.63 27.496C250.003 27.7733 250.488 27.912 251.086 27.912C251.64 27.912 252.078 27.7893 252.398 27.544C252.718 27.2987 252.878 26.9893 252.878 26.616C252.878 26.232 252.707 25.9493 252.366 25.768C252.024 25.576 251.496 25.3893 250.782 25.208C250.131 25.0373 249.598 24.8667 249.182 24.696C248.776 24.5147 248.424 24.2533 248.126 23.912C247.838 23.56 247.694 23.1013 247.694 22.536C247.694 22.088 247.827 21.6773 248.094 21.304C248.36 20.9307 248.739 20.6373 249.23 20.424C249.72 20.2 250.28 20.088 250.91 20.088C251.88 20.088 252.664 20.3333 253.262 20.824C253.859 21.3147 254.179 21.9867 254.222 22.84H252.766C252.734 22.3813 252.547 22.0133 252.206 21.736C251.875 21.4587 251.427 21.32 250.862 21.32C250.339 21.32 249.923 21.432 249.614 21.656C249.304 21.88 249.15 22.1733 249.15 22.536C249.15 22.824 249.24 23.064 249.422 23.256C249.614 23.4373 249.848 23.5867 250.126 23.704C250.414 23.8107 250.808 23.9333 251.31 24.072C251.939 24.2427 252.451 24.4133 252.846 24.584C253.24 24.744 253.576 24.9893 253.854 25.32C254.142 25.6507 254.291 26.0827 254.302 26.616C254.302 27.096 254.168 27.528 253.902 27.912C253.635 28.296 253.256 28.6 252.766 28.824C252.286 29.0373 251.731 29.144 251.102 29.144ZM260.709 20.072C261.37 20.072 261.968 20.216 262.501 20.504C263.034 20.7813 263.45 21.2027 263.749 21.768C264.058 22.3333 264.213 23.0213 264.213 23.832V29H262.773V24.04C262.773 23.1653 262.554 22.4987 262.117 22.04C261.68 21.5707 261.082 21.336 260.325 21.336C259.557 21.336 258.944 21.576 258.485 22.056C258.037 22.536 257.813 23.2347 257.813 24.152V29H256.357V17.16H257.813V21.48C258.101 21.032 258.496 20.6853 258.997 20.44C259.509 20.1947 260.08 20.072 260.709 20.072Z" fill="white"/>
<rect x="211" y="42" width="55" height="30" rx="15" fill="#0DAADC"/>
<path d="M233.288 63.112C232.253 63.112 231.309 62.872 230.456 62.392C229.603 61.9013 228.925 61.224 228.424 60.36C227.933 59.4853 227.688 58.504 227.688 57.416C227.688 56.328 227.933 55.352 228.424 54.488C228.925 53.6133 229.603 52.936 230.456 52.456C231.309 51.9653 232.253 51.72 233.288 51.72C234.333 51.72 235.283 51.9653 236.136 52.456C236.989 52.936 237.661 53.608 238.152 54.472C238.643 55.336 238.888 56.3173 238.888 57.416C238.888 58.5147 238.643 59.496 238.152 60.36C237.661 61.224 236.989 61.9013 236.136 62.392C235.283 62.872 234.333 63.112 233.288 63.112ZM233.288 61.848C234.067 61.848 234.765 61.6667 235.384 61.304C236.013 60.9413 236.504 60.424 236.856 59.752C237.219 59.08 237.4 58.3013 237.4 57.416C237.4 56.52 237.219 55.7413 236.856 55.08C236.504 54.408 236.019 53.8907 235.4 53.528C234.781 53.1653 234.077 52.984 233.288 52.984C232.499 52.984 231.795 53.1653 231.176 53.528C230.557 53.8907 230.067 54.408 229.704 55.08C229.352 55.7413 229.176 56.52 229.176 57.416C229.176 58.3013 229.352 59.08 229.704 59.752C230.067 60.424 230.557 60.9413 231.176 61.304C231.805 61.6667 232.509 61.848 233.288 61.848ZM246.858 63L242.266 57.912V63H240.81V51.848H242.266V57.016L246.874 51.848H248.714L243.658 57.432L248.762 63H246.858Z" fill="white"/>
</svg>
