<svg width="208" height="132" viewBox="0 0 208 132" fill="none" xmlns="http://www.w3.org/2000/svg">
<g clip-path="url(#clip0_675_6952)">
<rect x="59" width="90" height="90" rx="22" fill="#0DAADC"/>
<rect x="59" width="90" height="90" fill="#0DAADC"/>
<path d="M102.989 70.9277C98.8578 70.9277 95.2793 70.353 92.253 69.2035C89.2488 68.0541 86.8962 66.3852 85.1953 64.1968C83.2756 61.669 82.5429 58.66 82.3789 55.5427H95.3014C95.5246 56.548 95.9751 57.4062 96.7593 58.0958C97.4882 58.7369 98.405 59.2453 99.5094 59.6211C100.614 59.9747 101.829 60.1516 103.154 60.1516C104.568 60.1516 105.772 59.9747 106.766 59.6211C107.782 59.2674 108.566 58.7811 109.118 58.1621C109.671 57.5432 109.947 56.8358 109.947 56.0401V56.0069C109.947 54.8796 109.406 54.0285 108.323 53.4538C107.241 52.8791 105.374 52.3485 102.723 51.8622L97.919 51.0001C93.1697 50.1601 89.5249 48.5575 86.9846 46.1923C84.4664 43.8271 83.2073 40.7877 83.2073 37.074V37.0409C83.2073 33.8357 84.0467 31.0615 85.7255 28.7184C87.4264 26.3752 89.7569 24.5626 92.7169 23.2806C95.6769 21.9985 99.0456 21.3574 102.823 21.3574C107.086 21.3574 110.676 21.9543 113.592 23.1479C116.507 24.3416 118.738 26.0437 120.285 28.2542C122.072 30.7831 122.698 33.703 122.836 36.7425H109.914C109.816 35.7608 109.537 34.8739 108.82 34.1562C108.224 33.5151 107.418 33.0178 106.401 32.6641C105.407 32.3104 104.27 32.1336 102.989 32.1336C101.707 32.1336 100.625 32.3104 99.7414 32.6641C98.8799 32.9957 98.2282 33.4599 97.7864 34.0567C97.3446 34.6314 97.1238 35.2835 97.1238 36.013V36.0461C97.1238 37.1293 97.6649 37.9693 98.7473 38.5661C99.8297 39.1408 101.564 39.6493 103.949 40.0914L108.754 40.9534C112.178 41.5724 115.005 42.4676 117.236 43.6392C119.467 44.8108 121.124 46.3139 122.207 48.1486C123.311 49.9612 123.863 52.1606 123.863 54.7469V54.7801C123.863 58.0737 123.035 60.9363 121.378 63.3678C119.744 65.7773 117.369 67.6452 114.254 68.9715C111.14 70.2756 107.384 70.9277 102.989 70.9277Z" fill="white"/>
<path fill-rule="evenodd" clip-rule="evenodd" d="M106.306 22.9452C105.958 21.3676 106.163 19.718 106.888 18.274L112.488 7.1159C112.903 6.29041 113.887 5.9295 114.737 6.29185C115.626 6.67082 116.039 7.69856 115.659 8.58701L110.776 20.0234C110.585 20.4713 110.793 20.9894 111.241 21.1805C111.689 21.3714 112.206 21.1634 112.398 20.7158L117.276 9.29159C117.657 8.39838 118.694 7.98773 119.583 8.37752C120.461 8.76215 120.865 9.78219 120.489 10.6636L115.549 22.2336C115.383 22.6207 115.556 23.069 115.937 23.2458C116.336 23.4303 116.808 23.2489 116.981 22.8451L121.95 11.2055C122.302 10.3825 123.245 9.98947 124.077 10.3193C124.902 10.6467 125.321 11.5687 125.024 12.4057L120.847 24.1729C120.297 25.7244 119.219 27.0334 117.802 27.8719L113.819 30.2294C112.996 30.7165 112.174 31.3047 111.812 32.1901L92.9023 78.5231C92.1211 80.3547 90.0031 81.2063 88.1715 80.4251C86.3399 79.644 85.4884 77.526 86.2695 75.6944L107.208 29.721C107.537 28.9986 107.461 28.171 107.29 27.3958L106.306 22.9452Z" fill="#214E5C"/>
<mask id="mask0_675_6952" style="mask-type:alpha" maskUnits="userSpaceOnUse" x="93" y="37" width="17" height="18">
<path fill-rule="evenodd" clip-rule="evenodd" d="M109.757 39.5946L105.231 54.7997C104.949 55.3935 93.2335 52.6914 93.2335 51.5038L98.5948 37.7014C98.5948 36.641 109.757 39.0008 109.757 39.5946Z" fill="white"/>
</mask>
<g mask="url(#mask0_675_6952)">
<path d="M103.048 70.9022C98.9173 70.9022 95.3385 70.3278 92.312 69.1791C89.3076 68.0304 86.9549 66.3625 85.2539 64.1754C83.575 61.9663 82.6471 59.2933 82.4704 56.1564L82.4373 55.5268H95.3606L95.4269 55.825C95.6257 56.6865 96.0896 57.4376 96.8186 58.0783C97.5476 58.7189 98.4644 59.227 99.5689 59.6026C100.674 59.956 101.889 60.1328 103.214 60.1328C104.628 60.1328 105.832 59.956 106.826 59.6026C107.842 59.2491 108.626 58.7631 109.179 58.1446C109.731 57.526 110.007 56.8191 110.007 56.0238V55.9907C110.007 54.864 109.466 54.0135 108.383 53.4391C107.301 52.8648 105.434 52.3346 102.783 51.8486L97.9784 50.987C93.2288 50.1476 89.5837 48.546 87.0433 46.1822C84.5249 43.8185 83.2657 40.7809 83.2657 37.0696V37.0365C83.2657 33.8332 84.1051 31.0608 85.7841 28.7191C87.4851 26.3775 89.8157 24.566 92.7759 23.2847C95.7361 22.0034 99.105 21.3628 102.883 21.3628C107.146 21.3628 110.736 21.9593 113.652 23.1522C116.568 24.3451 118.799 26.0461 120.346 28.2552C121.892 30.4423 122.732 33.0269 122.864 36.0092L122.897 36.7382H109.974L109.941 36.4069C109.852 35.5232 109.499 34.7721 108.88 34.1536C108.284 33.5129 107.478 33.0159 106.461 32.6624C105.467 32.309 104.33 32.1322 103.048 32.1322C101.767 32.1322 100.685 32.309 99.8009 32.6624C98.9394 32.9938 98.2877 33.4577 97.8458 34.0542C97.404 34.6285 97.1831 35.2802 97.1831 36.0092V36.0424C97.1831 37.1248 97.7243 37.9643 98.8068 38.5608C99.8893 39.1351 101.623 39.6432 104.009 40.085L108.814 40.9466C112.238 41.5652 115.066 42.4598 117.297 43.6307C119.528 44.8015 121.185 46.3037 122.268 48.1373C123.372 49.9487 123.924 52.1468 123.924 54.7315V54.7646C123.924 58.0562 123.096 60.917 121.439 63.347C119.804 65.755 117.43 67.6217 114.315 68.9471C111.2 70.2505 107.444 70.9022 103.048 70.9022Z" fill="white"/>
</g>
</g>
<path d="M42.2309 104.62V109.52H48.8109V112.628H42.2309V117.808H49.6509V121H38.3109V101.428H49.6509V104.62H42.2309ZM52.2052 113.188C52.2052 111.62 52.5132 110.229 53.1292 109.016C53.7639 107.803 54.6133 106.869 55.6773 106.216C56.7599 105.563 57.9639 105.236 59.2893 105.236C60.4466 105.236 61.4546 105.469 62.3133 105.936C63.1906 106.403 63.8906 106.991 64.4133 107.7V105.488H68.3613V121H64.4133V118.732C63.9093 119.46 63.2093 120.067 62.3133 120.552C61.4359 121.019 60.4186 121.252 59.2613 121.252C57.9546 121.252 56.7599 120.916 55.6773 120.244C54.6133 119.572 53.7639 118.629 53.1292 117.416C52.5132 116.184 52.2052 114.775 52.2052 113.188ZM64.4133 113.244C64.4133 112.292 64.2266 111.48 63.8533 110.808C63.4799 110.117 62.9759 109.595 62.3413 109.24C61.7066 108.867 61.0253 108.68 60.2973 108.68C59.5693 108.68 58.8973 108.857 58.2812 109.212C57.6653 109.567 57.1613 110.089 56.7693 110.78C56.3959 111.452 56.2093 112.255 56.2093 113.188C56.2093 114.121 56.3959 114.943 56.7693 115.652C57.1613 116.343 57.6653 116.875 58.2812 117.248C58.9159 117.621 59.5879 117.808 60.2973 117.808C61.0253 117.808 61.7066 117.631 62.3413 117.276C62.9759 116.903 63.4799 116.38 63.8533 115.708C64.2266 115.017 64.4133 114.196 64.4133 113.244ZM78.1258 121.252C76.8565 121.252 75.7178 121.028 74.7098 120.58C73.7018 120.113 72.8991 119.488 72.3018 118.704C71.7231 117.92 71.4058 117.052 71.3498 116.1H75.2978C75.3725 116.697 75.6618 117.192 76.1658 117.584C76.6885 117.976 77.3325 118.172 78.0978 118.172C78.8445 118.172 79.4231 118.023 79.8338 117.724C80.2631 117.425 80.4778 117.043 80.4778 116.576C80.4778 116.072 80.2165 115.699 79.6938 115.456C79.1898 115.195 78.3778 114.915 77.2578 114.616C76.1005 114.336 75.1485 114.047 74.4018 113.748C73.6738 113.449 73.0391 112.992 72.4978 112.376C71.9751 111.76 71.7138 110.929 71.7138 109.884C71.7138 109.025 71.9565 108.241 72.4418 107.532C72.9458 106.823 73.6551 106.263 74.5698 105.852C75.5031 105.441 76.5951 105.236 77.8458 105.236C79.6938 105.236 81.1685 105.703 82.2698 106.636C83.3711 107.551 83.9778 108.792 84.0898 110.36H80.3378C80.2818 109.744 80.0205 109.259 79.5538 108.904C79.1058 108.531 78.4991 108.344 77.7338 108.344C77.0245 108.344 76.4738 108.475 76.0818 108.736C75.7085 108.997 75.5218 109.361 75.5218 109.828C75.5218 110.351 75.7831 110.752 76.3058 111.032C76.8285 111.293 77.6405 111.564 78.7418 111.844C79.8618 112.124 80.7858 112.413 81.5138 112.712C82.2418 113.011 82.8671 113.477 83.3898 114.112C83.9311 114.728 84.2111 115.549 84.2298 116.576C84.2298 117.472 83.9778 118.275 83.4738 118.984C82.9885 119.693 82.2791 120.253 81.3458 120.664C80.4311 121.056 79.3578 121.252 78.1258 121.252ZM102.288 105.488L92.6836 128.336H88.5116L91.8716 120.608L85.6556 105.488H90.0516L94.0556 116.324L98.1156 105.488H102.288ZM117.821 121.196C116.458 121.196 115.226 120.963 114.125 120.496C113.042 120.029 112.183 119.357 111.549 118.48C110.914 117.603 110.587 116.567 110.569 115.372H114.769C114.825 116.175 115.105 116.809 115.609 117.276C116.131 117.743 116.841 117.976 117.737 117.976C118.651 117.976 119.37 117.761 119.893 117.332C120.415 116.884 120.677 116.305 120.677 115.596C120.677 115.017 120.499 114.541 120.145 114.168C119.79 113.795 119.342 113.505 118.801 113.3C118.278 113.076 117.55 112.833 116.617 112.572C115.347 112.199 114.311 111.835 113.509 111.48C112.725 111.107 112.043 110.556 111.465 109.828C110.905 109.081 110.625 108.092 110.625 106.86C110.625 105.703 110.914 104.695 111.493 103.836C112.071 102.977 112.883 102.324 113.929 101.876C114.974 101.409 116.169 101.176 117.513 101.176C119.529 101.176 121.162 101.671 122.413 102.66C123.682 103.631 124.382 104.993 124.513 106.748H120.201C120.163 106.076 119.874 105.525 119.333 105.096C118.81 104.648 118.11 104.424 117.233 104.424C116.467 104.424 115.851 104.62 115.385 105.012C114.937 105.404 114.713 105.973 114.713 106.72C114.713 107.243 114.881 107.681 115.217 108.036C115.571 108.372 116.001 108.652 116.505 108.876C117.027 109.081 117.755 109.324 118.689 109.604C119.958 109.977 120.994 110.351 121.797 110.724C122.599 111.097 123.29 111.657 123.869 112.404C124.447 113.151 124.737 114.131 124.737 115.344C124.737 116.389 124.466 117.36 123.925 118.256C123.383 119.152 122.59 119.871 121.545 120.412C120.499 120.935 119.258 121.196 117.821 121.196ZM132.055 107.728C132.559 107.019 133.25 106.431 134.127 105.964C135.023 105.479 136.04 105.236 137.179 105.236C138.504 105.236 139.699 105.563 140.763 106.216C141.846 106.869 142.695 107.803 143.311 109.016C143.946 110.211 144.263 111.601 144.263 113.188C144.263 114.775 143.946 116.184 143.311 117.416C142.695 118.629 141.846 119.572 140.763 120.244C139.699 120.916 138.504 121.252 137.179 121.252C136.04 121.252 135.032 121.019 134.155 120.552C133.296 120.085 132.596 119.497 132.055 118.788V128.392H128.135V105.488H132.055V107.728ZM140.259 113.188C140.259 112.255 140.063 111.452 139.671 110.78C139.298 110.089 138.794 109.567 138.159 109.212C137.543 108.857 136.871 108.68 136.143 108.68C135.434 108.68 134.762 108.867 134.127 109.24C133.511 109.595 133.007 110.117 132.615 110.808C132.242 111.499 132.055 112.311 132.055 113.244C132.055 114.177 132.242 114.989 132.615 115.68C133.007 116.371 133.511 116.903 134.127 117.276C134.762 117.631 135.434 117.808 136.143 117.808C136.871 117.808 137.543 117.621 138.159 117.248C138.794 116.875 139.298 116.343 139.671 115.652C140.063 114.961 140.259 114.14 140.259 113.188ZM151.032 100.28V121H147.112V100.28H151.032ZM156.893 103.64C156.202 103.64 155.623 103.425 155.157 102.996C154.709 102.548 154.485 101.997 154.485 101.344C154.485 100.691 154.709 100.149 155.157 99.72C155.623 99.272 156.202 99.048 156.893 99.048C157.583 99.048 158.153 99.272 158.601 99.72C159.067 100.149 159.301 100.691 159.301 101.344C159.301 101.997 159.067 102.548 158.601 102.996C158.153 103.425 157.583 103.64 156.893 103.64ZM158.825 105.488V121H154.905V105.488H158.825ZM167.262 108.708V116.212C167.262 116.735 167.383 117.117 167.626 117.36C167.887 117.584 168.316 117.696 168.914 117.696H170.734V121H168.27C164.966 121 163.314 119.395 163.314 116.184V108.708H161.466V105.488H163.314V101.652H167.262V105.488H170.734V108.708H167.262Z" fill="black"/>
<defs>
<clipPath id="clip0_675_6952">
<rect x="59" width="90" height="90" rx="22" fill="white"/>
</clipPath>
</defs>
</svg>
