<svg width="221" height="96" viewBox="0 0 221 96" fill="none" xmlns="http://www.w3.org/2000/svg">
<g filter="url(#filter0_d_346_14330)">
<path d="M20 24C20 17.3726 25.3726 12 32 12H189C195.627 12 201 17.3726 201 24V56C201 62.6274 195.627 68 189 68H32C25.3726 68 20 62.6274 20 56V24Z" fill="#282828"/>
<circle cx="48" cy="40" r="12" fill="#0DAADC"/>
<path d="M42 40.2308L46.4211 44L54 37" stroke="white" stroke-width="2" stroke-linecap="round" stroke-linejoin="round"/>
<path d="M78.688 33.848V45H77.232V33.848H78.688ZM91.7135 36.072C92.3962 36.072 93.0042 36.216 93.5375 36.504C94.0708 36.7813 94.4922 37.2027 94.8015 37.768C95.1108 38.3333 95.2655 39.0213 95.2655 39.832V45H93.8255V40.04C93.8255 39.1653 93.6068 38.4987 93.1695 38.04C92.7428 37.5707 92.1615 37.336 91.4255 37.336C90.6682 37.336 90.0655 37.5813 89.6175 38.072C89.1695 38.552 88.9455 39.2507 88.9455 40.168V45H87.5055V40.04C87.5055 39.1653 87.2868 38.4987 86.8495 38.04C86.4228 37.5707 85.8415 37.336 85.1055 37.336C84.3482 37.336 83.7455 37.5813 83.2975 38.072C82.8495 38.552 82.6255 39.2507 82.6255 40.168V45H81.1695V36.232H82.6255V37.496C82.9135 37.0373 83.2975 36.6853 83.7775 36.44C84.2682 36.1947 84.8068 36.072 85.3935 36.072C86.1295 36.072 86.7802 36.2373 87.3455 36.568C87.9108 36.8987 88.3322 37.384 88.6095 38.024C88.8548 37.4053 89.2602 36.9253 89.8255 36.584C90.3908 36.2427 91.0202 36.072 91.7135 36.072ZM97.1099 40.584C97.1099 39.688 97.2912 38.904 97.6539 38.232C98.0165 37.5493 98.5125 37.0213 99.1419 36.648C99.7819 36.2747 100.491 36.088 101.27 36.088C102.038 36.088 102.705 36.2533 103.27 36.584C103.835 36.9147 104.257 37.3307 104.534 37.832V36.232H106.006V45H104.534V43.368C104.246 43.88 103.814 44.3067 103.238 44.648C102.673 44.9787 102.011 45.144 101.254 45.144C100.475 45.144 99.7712 44.952 99.1419 44.568C98.5125 44.184 98.0165 43.6453 97.6539 42.952C97.2912 42.2587 97.1099 41.4693 97.1099 40.584ZM104.534 40.6C104.534 39.9387 104.401 39.3627 104.134 38.872C103.867 38.3813 103.505 38.008 103.046 37.752C102.598 37.4853 102.102 37.352 101.558 37.352C101.014 37.352 100.518 37.48 100.07 37.736C99.6219 37.992 99.2645 38.3653 98.9979 38.856C98.7312 39.3467 98.5979 39.9227 98.5979 40.584C98.5979 41.256 98.7312 41.8427 98.9979 42.344C99.2645 42.8347 99.6219 43.2133 100.07 43.48C100.518 43.736 101.014 43.864 101.558 43.864C102.102 43.864 102.598 43.736 103.046 43.48C103.505 43.2133 103.867 42.8347 104.134 42.344C104.401 41.8427 104.534 41.2613 104.534 40.6ZM112.082 36.088C112.84 36.088 113.501 36.2533 114.066 36.584C114.642 36.9147 115.069 37.3307 115.346 37.832V36.232H116.818V45.192C116.818 45.992 116.648 46.7013 116.306 47.32C115.965 47.9493 115.474 48.44 114.834 48.792C114.205 49.144 113.469 49.32 112.626 49.32C111.474 49.32 110.514 49.048 109.746 48.504C108.978 47.96 108.525 47.2187 108.386 46.28H109.826C109.986 46.8133 110.317 47.24 110.818 47.56C111.32 47.8907 111.922 48.056 112.626 48.056C113.426 48.056 114.077 47.8053 114.578 47.304C115.09 46.8027 115.346 46.0987 115.346 45.192V43.352C115.058 43.864 114.632 44.2907 114.066 44.632C113.501 44.9733 112.84 45.144 112.082 45.144C111.304 45.144 110.594 44.952 109.954 44.568C109.325 44.184 108.829 43.6453 108.466 42.952C108.104 42.2587 107.922 41.4693 107.922 40.584C107.922 39.688 108.104 38.904 108.466 38.232C108.829 37.5493 109.325 37.0213 109.954 36.648C110.594 36.2747 111.304 36.088 112.082 36.088ZM115.346 40.6C115.346 39.9387 115.213 39.3627 114.946 38.872C114.68 38.3813 114.317 38.008 113.858 37.752C113.41 37.4853 112.914 37.352 112.37 37.352C111.826 37.352 111.33 37.48 110.882 37.736C110.434 37.992 110.077 38.3653 109.81 38.856C109.544 39.3467 109.41 39.9227 109.41 40.584C109.41 41.256 109.544 41.8427 109.81 42.344C110.077 42.8347 110.434 43.2133 110.882 43.48C111.33 43.736 111.826 43.864 112.37 43.864C112.914 43.864 113.41 43.736 113.858 43.48C114.317 43.2133 114.68 42.8347 114.946 42.344C115.213 41.8427 115.346 41.2613 115.346 40.6ZM127.279 40.28C127.279 40.5573 127.263 40.8507 127.231 41.16H120.223C120.276 42.024 120.57 42.7013 121.103 43.192C121.647 43.672 122.303 43.912 123.071 43.912C123.7 43.912 124.223 43.768 124.639 43.48C125.066 43.1813 125.364 42.7867 125.535 42.296H127.103C126.868 43.1387 126.399 43.8267 125.695 44.36C124.991 44.8827 124.116 45.144 123.071 45.144C122.239 45.144 121.492 44.9573 120.831 44.584C120.18 44.2107 119.668 43.6827 119.295 43C118.922 42.3067 118.735 41.5067 118.735 40.6C118.735 39.6933 118.916 38.8987 119.279 38.216C119.642 37.5333 120.148 37.0107 120.799 36.648C121.46 36.2747 122.218 36.088 123.071 36.088C123.903 36.088 124.639 36.2693 125.279 36.632C125.919 36.9947 126.41 37.496 126.751 38.136C127.103 38.7653 127.279 39.48 127.279 40.28ZM125.775 39.976C125.775 39.4213 125.652 38.9467 125.407 38.552C125.162 38.1467 124.826 37.8427 124.399 37.64C123.983 37.4267 123.519 37.32 123.007 37.32C122.271 37.32 121.642 37.5547 121.119 38.024C120.607 38.4933 120.314 39.144 120.239 39.976H125.775ZM136.57 45.144C135.898 45.144 135.296 45.032 134.762 44.808C134.229 44.5733 133.808 44.2533 133.498 43.848C133.189 43.432 133.018 42.9573 132.986 42.424H134.49C134.533 42.8613 134.736 43.2187 135.098 43.496C135.472 43.7733 135.957 43.912 136.554 43.912C137.109 43.912 137.546 43.7893 137.866 43.544C138.186 43.2987 138.346 42.9893 138.346 42.616C138.346 42.232 138.176 41.9493 137.834 41.768C137.493 41.576 136.965 41.3893 136.25 41.208C135.6 41.0373 135.066 40.8667 134.65 40.696C134.245 40.5147 133.893 40.2533 133.594 39.912C133.306 39.56 133.162 39.1013 133.162 38.536C133.162 38.088 133.296 37.6773 133.562 37.304C133.829 36.9307 134.208 36.6373 134.698 36.424C135.189 36.2 135.749 36.088 136.378 36.088C137.349 36.088 138.133 36.3333 138.73 36.824C139.328 37.3147 139.648 37.9867 139.69 38.84H138.234C138.202 38.3813 138.016 38.0133 137.674 37.736C137.344 37.4587 136.896 37.32 136.33 37.32C135.808 37.32 135.392 37.432 135.082 37.656C134.773 37.88 134.618 38.1733 134.618 38.536C134.618 38.824 134.709 39.064 134.89 39.256C135.082 39.4373 135.317 39.5867 135.594 39.704C135.882 39.8107 136.277 39.9333 136.778 40.072C137.408 40.2427 137.92 40.4133 138.314 40.584C138.709 40.744 139.045 40.9893 139.322 41.32C139.61 41.6507 139.76 42.0827 139.77 42.616C139.77 43.096 139.637 43.528 139.37 43.912C139.104 44.296 138.725 44.6 138.234 44.824C137.754 45.0373 137.2 45.144 136.57 45.144ZM141.282 40.584C141.282 39.688 141.463 38.904 141.826 38.232C142.188 37.5493 142.684 37.0213 143.314 36.648C143.954 36.2747 144.663 36.088 145.442 36.088C146.21 36.088 146.876 36.2533 147.442 36.584C148.007 36.9147 148.428 37.3307 148.706 37.832V36.232H150.178V45H148.706V43.368C148.418 43.88 147.986 44.3067 147.41 44.648C146.844 44.9787 146.183 45.144 145.426 45.144C144.647 45.144 143.943 44.952 143.314 44.568C142.684 44.184 142.188 43.6453 141.826 42.952C141.463 42.2587 141.282 41.4693 141.282 40.584ZM148.706 40.6C148.706 39.9387 148.572 39.3627 148.306 38.872C148.039 38.3813 147.676 38.008 147.218 37.752C146.77 37.4853 146.274 37.352 145.73 37.352C145.186 37.352 144.69 37.48 144.242 37.736C143.794 37.992 143.436 38.3653 143.17 38.856C142.903 39.3467 142.77 39.9227 142.77 40.584C142.77 41.256 142.903 41.8427 143.17 42.344C143.436 42.8347 143.794 43.2133 144.242 43.48C144.69 43.736 145.186 43.864 145.73 43.864C146.274 43.864 146.77 43.736 147.218 43.48C147.676 43.2133 148.039 42.8347 148.306 42.344C148.572 41.8427 148.706 41.2613 148.706 40.6ZM155.902 43.656L158.622 36.232H160.174L156.734 45H155.038L151.598 36.232H153.166L155.902 43.656ZM169.607 40.28C169.607 40.5573 169.591 40.8507 169.559 41.16H162.551C162.604 42.024 162.898 42.7013 163.431 43.192C163.975 43.672 164.631 43.912 165.399 43.912C166.028 43.912 166.551 43.768 166.967 43.48C167.394 43.1813 167.692 42.7867 167.863 42.296H169.431C169.196 43.1387 168.727 43.8267 168.023 44.36C167.319 44.8827 166.444 45.144 165.399 45.144C164.567 45.144 163.82 44.9573 163.159 44.584C162.508 44.2107 161.996 43.6827 161.623 43C161.25 42.3067 161.063 41.5067 161.063 40.6C161.063 39.6933 161.244 38.8987 161.607 38.216C161.97 37.5333 162.476 37.0107 163.127 36.648C163.788 36.2747 164.546 36.088 165.399 36.088C166.231 36.088 166.967 36.2693 167.607 36.632C168.247 36.9947 168.738 37.496 169.079 38.136C169.431 38.7653 169.607 39.48 169.607 40.28ZM168.103 39.976C168.103 39.4213 167.98 38.9467 167.735 38.552C167.49 38.1467 167.154 37.8427 166.727 37.64C166.311 37.4267 165.847 37.32 165.335 37.32C164.599 37.32 163.97 37.5547 163.447 38.024C162.935 38.4933 162.642 39.144 162.567 39.976H168.103ZM170.985 40.584C170.985 39.688 171.166 38.904 171.529 38.232C171.892 37.5493 172.388 37.0213 173.017 36.648C173.657 36.2747 174.372 36.088 175.161 36.088C175.844 36.088 176.478 36.248 177.065 36.568C177.652 36.8773 178.1 37.288 178.409 37.8V33.16H179.881V45H178.409V43.352C178.121 43.8747 177.694 44.3067 177.129 44.648C176.564 44.9787 175.902 45.144 175.145 45.144C174.366 45.144 173.657 44.952 173.017 44.568C172.388 44.184 171.892 43.6453 171.529 42.952C171.166 42.2587 170.985 41.4693 170.985 40.584ZM178.409 40.6C178.409 39.9387 178.276 39.3627 178.009 38.872C177.742 38.3813 177.38 38.008 176.921 37.752C176.473 37.4853 175.977 37.352 175.433 37.352C174.889 37.352 174.393 37.48 173.945 37.736C173.497 37.992 173.14 38.3653 172.873 38.856C172.606 39.3467 172.473 39.9227 172.473 40.584C172.473 41.256 172.606 41.8427 172.873 42.344C173.14 42.8347 173.497 43.2133 173.945 43.48C174.393 43.736 174.889 43.864 175.433 43.864C175.977 43.864 176.473 43.736 176.921 43.48C177.38 43.2133 177.742 42.8347 178.009 42.344C178.276 41.8427 178.409 41.2613 178.409 40.6ZM182.805 45.096C182.528 45.096 182.293 45 182.101 44.808C181.909 44.616 181.813 44.3813 181.813 44.104C181.813 43.8267 181.909 43.592 182.101 43.4C182.293 43.208 182.528 43.112 182.805 43.112C183.072 43.112 183.296 43.208 183.477 43.4C183.669 43.592 183.765 43.8267 183.765 44.104C183.765 44.3813 183.669 44.616 183.477 44.808C183.296 45 183.072 45.096 182.805 45.096Z" fill="white"/>
</g>
<defs>
<filter id="filter0_d_346_14330" x="0" y="0" width="221" height="96" filterUnits="userSpaceOnUse" color-interpolation-filters="sRGB">
<feFlood flood-opacity="0" result="BackgroundImageFix"/>
<feColorMatrix in="SourceAlpha" type="matrix" values="0 0 0 0 0 0 0 0 0 0 0 0 0 0 0 0 0 0 127 0" result="hardAlpha"/>
<feOffset dy="8"/>
<feGaussianBlur stdDeviation="10"/>
<feColorMatrix type="matrix" values="0 0 0 0 0 0 0 0 0 0 0 0 0 0 0 0 0 0 0.1 0"/>
<feBlend mode="normal" in2="BackgroundImageFix" result="effect1_dropShadow_346_14330"/>
<feBlend mode="normal" in="SourceGraphic" in2="effect1_dropShadow_346_14330" result="shape"/>
</filter>
</defs>
</svg>
