<svg width="361" height="83" viewBox="0 0 361 83" fill="none" xmlns="http://www.w3.org/2000/svg">
<g clip-path="url(#clip0_671_6270)">
<rect x="102.5" y="2" width="30" height="30" rx="8" fill="#0DAADC"/>
<rect x="102.5" y="2" width="30" height="30" fill="#0DAADC"/>
<path d="M117.163 25.6426C115.786 25.6426 114.593 25.451 113.584 25.0678C112.583 24.6847 111.799 24.1284 111.232 23.3989C110.592 22.5563 110.348 21.5533 110.293 20.5142H114.6C114.675 20.8493 114.825 21.1354 115.086 21.3653C115.329 21.579 115.635 21.7484 116.003 21.8737C116.371 21.9916 116.776 22.0505 117.218 22.0505C117.689 22.0505 118.091 21.9916 118.422 21.8737C118.761 21.7558 119.022 21.5937 119.206 21.3874C119.39 21.1811 119.482 20.9453 119.482 20.68V20.669C119.482 20.2932 119.302 20.0095 118.941 19.8179C118.58 19.6264 117.958 19.4495 117.074 19.2874L115.473 19C113.89 18.72 112.675 18.1858 111.828 17.3974C110.989 16.609 110.569 15.5959 110.569 14.358V14.347C110.569 13.2786 110.849 12.3538 111.408 11.5728C111.975 10.7917 112.752 10.1875 113.739 9.76018C114.726 9.33282 115.849 9.11914 117.108 9.11914C118.529 9.11914 119.725 9.31809 120.697 9.71597C121.669 10.1139 122.413 10.6812 122.928 11.4181C123.524 12.261 123.733 13.2343 123.779 14.2475H119.471C119.439 13.9203 119.346 13.6246 119.107 13.3854C118.908 13.1717 118.639 13.0059 118.3 12.888C117.969 12.7701 117.59 12.7112 117.163 12.7112C116.736 12.7112 116.375 12.7701 116.08 12.888C115.793 12.9986 115.576 13.1533 115.429 13.3522C115.282 13.5438 115.208 13.7612 115.208 14.0043V14.0154C115.208 14.3764 115.388 14.6564 115.749 14.8554C116.11 15.0469 116.688 15.2164 117.483 15.3638L119.085 15.6511C120.226 15.8575 121.168 16.1559 121.912 16.5464C122.656 16.9369 123.208 17.438 123.569 18.0495C123.937 18.6537 124.121 19.3869 124.121 20.249V20.26C124.121 21.3579 123.845 22.3121 123.293 23.1226C122.748 23.9258 121.956 24.5484 120.918 24.9905C119.88 25.4252 118.628 25.6426 117.163 25.6426Z" fill="white"/>
<path fill-rule="evenodd" clip-rule="evenodd" d="M118.269 9.64843C118.152 9.12254 118.221 8.57268 118.462 8.09134L120.329 4.37199C120.467 4.09682 120.796 3.97652 121.079 4.0973C121.375 4.22363 121.513 4.56621 121.386 4.86236L119.759 8.6745C119.695 8.8238 119.764 8.9965 119.914 9.06018C120.063 9.12383 120.235 9.05449 120.299 8.90528L121.925 5.09722C122.052 4.79948 122.398 4.6626 122.694 4.79253C122.987 4.92074 123.122 5.26075 122.996 5.55455L121.349 9.41122C121.294 9.54025 121.352 9.6897 121.479 9.74864C121.612 9.81013 121.769 9.74966 121.827 9.61504L123.483 5.73518C123.601 5.46086 123.915 5.32984 124.192 5.4398C124.467 5.54893 124.607 5.85626 124.508 6.13526L123.116 10.0577C122.932 10.5748 122.573 11.0112 122.101 11.2907L120.773 12.0765C120.499 12.2388 120.225 12.4349 120.104 12.7301L113.801 28.1744C113.54 28.7849 112.834 29.0688 112.224 28.8084C111.613 28.548 111.329 27.842 111.59 27.2315L118.569 11.907C118.679 11.6662 118.654 11.3903 118.596 11.132L118.269 9.64843Z" fill="#214E5C"/>
<mask id="mask0_671_6270" style="mask-type:alpha" maskUnits="userSpaceOnUse" x="113" y="14" width="7" height="7">
<path fill-rule="evenodd" clip-rule="evenodd" d="M119.419 15.1982L117.91 20.2666C117.816 20.4645 113.911 19.5638 113.911 19.1679L115.698 14.5671C115.698 14.2137 119.419 15.0003 119.419 15.1982Z" fill="white"/>
</mask>
<g mask="url(#mask0_671_6270)">
<path d="M117.183 25.6341C115.806 25.6341 114.613 25.4426 113.604 25.0597C112.603 24.6768 111.818 24.1208 111.251 23.3918C110.692 22.6555 110.382 21.7644 110.324 20.7188L110.312 20.5089H114.62L114.642 20.6083C114.709 20.8955 114.863 21.1459 115.106 21.3594C115.349 21.573 115.655 21.7424 116.023 21.8675C116.391 21.9854 116.796 22.0443 117.238 22.0443C117.709 22.0443 118.111 21.9854 118.442 21.8675C118.781 21.7497 119.042 21.5877 119.226 21.3815C119.41 21.1753 119.502 20.9397 119.502 20.6746V20.6636C119.502 20.288 119.322 20.0045 118.961 19.8131C118.6 19.6216 117.978 19.4449 117.094 19.2829L115.493 18.9957C113.91 18.7159 112.695 18.182 111.848 17.3941C111.008 16.6062 110.589 15.5936 110.589 14.3565V14.3455C110.589 13.2778 110.868 12.3536 111.428 11.5731C111.995 10.7925 112.772 10.1887 113.759 9.76158C114.745 9.33449 115.868 9.12094 117.128 9.12094C118.549 9.12094 119.745 9.31976 120.717 9.7174C121.689 10.115 122.433 10.682 122.949 11.4184C123.464 12.1474 123.744 13.009 123.788 14.0031L123.799 14.2461H119.491L119.48 14.1356C119.451 13.8411 119.333 13.5907 119.127 13.3845C118.928 13.171 118.659 13.0053 118.321 12.8875C117.989 12.7697 117.61 12.7108 117.183 12.7108C116.756 12.7108 116.395 12.7697 116.1 12.8875C115.813 12.9979 115.596 13.1526 115.449 13.3514C115.301 13.5429 115.228 13.7601 115.228 14.0031V14.0141C115.228 14.375 115.408 14.6548 115.769 14.8536C116.13 15.0451 116.708 15.2144 117.503 15.3617L119.105 15.6489C120.246 15.8551 121.189 16.1533 121.932 16.5436C122.676 16.9338 123.228 17.4346 123.589 18.0458C123.957 18.6496 124.142 19.3823 124.142 20.2438V20.2549C124.142 21.3521 123.865 22.3057 123.313 23.1157C122.768 23.9183 121.977 24.5406 120.938 24.9824C119.9 25.4168 118.648 25.6341 117.183 25.6341Z" fill="white"/>
</g>
</g>
<path d="M146.158 11.44V14.848H151.654V18.016H146.158V21.712H152.374V25H142.054V8.152H152.374V11.44H146.158ZM154.223 18.28C154.223 16.904 154.479 15.696 154.991 14.656C155.519 13.616 156.231 12.816 157.127 12.256C158.023 11.696 159.023 11.416 160.127 11.416C161.071 11.416 161.895 11.608 162.599 11.992C163.319 12.376 163.871 12.88 164.255 13.504V11.608H168.359V25H164.255V23.104C163.855 23.728 163.295 24.232 162.575 24.616C161.871 25 161.047 25.192 160.103 25.192C159.015 25.192 158.023 24.912 157.127 24.352C156.231 23.776 155.519 22.968 154.991 21.928C154.479 20.872 154.223 19.656 154.223 18.28ZM164.255 18.304C164.255 17.28 163.967 16.472 163.391 15.88C162.831 15.288 162.143 14.992 161.327 14.992C160.511 14.992 159.815 15.288 159.239 15.88C158.679 16.456 158.399 17.256 158.399 18.28C158.399 19.304 158.679 20.12 159.239 20.728C159.815 21.32 160.511 21.616 161.327 21.616C162.143 21.616 162.831 21.32 163.391 20.728C163.967 20.136 164.255 19.328 164.255 18.304ZM176.776 25.192C175.608 25.192 174.568 24.992 173.656 24.592C172.744 24.192 172.024 23.648 171.496 22.96C170.968 22.256 170.672 21.472 170.608 20.608H174.664C174.712 21.072 174.928 21.448 175.312 21.736C175.696 22.024 176.168 22.168 176.728 22.168C177.24 22.168 177.632 22.072 177.904 21.88C178.192 21.672 178.336 21.408 178.336 21.088C178.336 20.704 178.136 20.424 177.736 20.248C177.336 20.056 176.688 19.848 175.792 19.624C174.832 19.4 174.032 19.168 173.392 18.928C172.752 18.672 172.2 18.28 171.736 17.752C171.272 17.208 171.04 16.48 171.04 15.568C171.04 14.8 171.248 14.104 171.664 13.48C172.096 12.84 172.72 12.336 173.536 11.968C174.368 11.6 175.352 11.416 176.488 11.416C178.168 11.416 179.488 11.832 180.448 12.664C181.424 13.496 181.984 14.6 182.128 15.976H178.336C178.272 15.512 178.064 15.144 177.712 14.872C177.376 14.6 176.928 14.464 176.368 14.464C175.888 14.464 175.52 14.56 175.264 14.752C175.008 14.928 174.88 15.176 174.88 15.496C174.88 15.88 175.08 16.168 175.48 16.36C175.896 16.552 176.536 16.744 177.4 16.936C178.392 17.192 179.2 17.448 179.824 17.704C180.448 17.944 180.992 18.344 181.456 18.904C181.936 19.448 182.184 20.184 182.2 21.112C182.2 21.896 181.976 22.6 181.528 23.224C181.096 23.832 180.464 24.312 179.632 24.664C178.816 25.016 177.864 25.192 176.776 25.192ZM198.391 11.608L189.991 31.36H185.575L188.647 24.544L183.199 11.608H187.783L190.879 19.984L193.951 11.608H198.391ZM211.057 25.168C209.825 25.168 208.721 24.968 207.745 24.568C206.769 24.168 205.985 23.576 205.393 22.792C204.817 22.008 204.513 21.064 204.481 19.96H208.849C208.913 20.584 209.129 21.064 209.497 21.4C209.865 21.72 210.345 21.88 210.937 21.88C211.545 21.88 212.025 21.744 212.377 21.472C212.729 21.184 212.905 20.792 212.905 20.296C212.905 19.88 212.761 19.536 212.473 19.264C212.201 18.992 211.857 18.768 211.441 18.592C211.041 18.416 210.465 18.216 209.713 17.992C208.625 17.656 207.737 17.32 207.049 16.984C206.361 16.648 205.769 16.152 205.273 15.496C204.777 14.84 204.529 13.984 204.529 12.928C204.529 11.36 205.097 10.136 206.233 9.256C207.369 8.36 208.849 7.912 210.673 7.912C212.529 7.912 214.025 8.36 215.161 9.256C216.297 10.136 216.905 11.368 216.985 12.952H212.545C212.513 12.408 212.313 11.984 211.945 11.68C211.577 11.36 211.105 11.2 210.529 11.2C210.033 11.2 209.633 11.336 209.329 11.608C209.025 11.864 208.873 12.24 208.873 12.736C208.873 13.28 209.129 13.704 209.641 14.008C210.153 14.312 210.953 14.64 212.041 14.992C213.129 15.36 214.009 15.712 214.681 16.048C215.369 16.384 215.961 16.872 216.457 17.512C216.953 18.152 217.201 18.976 217.201 19.984C217.201 20.944 216.953 21.816 216.457 22.6C215.977 23.384 215.273 24.008 214.345 24.472C213.417 24.936 212.321 25.168 211.057 25.168ZM223.83 13.504C224.23 12.88 224.782 12.376 225.486 11.992C226.19 11.608 227.014 11.416 227.958 11.416C229.062 11.416 230.062 11.696 230.958 12.256C231.854 12.816 232.558 13.616 233.07 14.656C233.598 15.696 233.862 16.904 233.862 18.28C233.862 19.656 233.598 20.872 233.07 21.928C232.558 22.968 231.854 23.776 230.958 24.352C230.062 24.912 229.062 25.192 227.958 25.192C227.03 25.192 226.206 25 225.486 24.616C224.782 24.232 224.23 23.736 223.83 23.128V31.384H219.726V11.608H223.83V13.504ZM229.686 18.28C229.686 17.256 229.398 16.456 228.822 15.88C228.262 15.288 227.566 14.992 226.734 14.992C225.918 14.992 225.222 15.288 224.646 15.88C224.086 16.472 223.806 17.28 223.806 18.304C223.806 19.328 224.086 20.136 224.646 20.728C225.222 21.32 225.918 21.616 226.734 21.616C227.55 21.616 228.246 21.32 228.822 20.728C229.398 20.12 229.686 19.304 229.686 18.28ZM240.119 7.24V25H236.015V7.24H240.119ZM245.157 10.216C244.437 10.216 243.845 10.008 243.381 9.592C242.933 9.16 242.709 8.632 242.709 8.008C242.709 7.368 242.933 6.84 243.381 6.424C243.845 5.992 244.437 5.776 245.157 5.776C245.861 5.776 246.437 5.992 246.885 6.424C247.349 6.84 247.581 7.368 247.581 8.008C247.581 8.632 247.349 9.16 246.885 9.592C246.437 10.008 245.861 10.216 245.157 10.216ZM247.197 11.608V25H243.093V11.608H247.197ZM257.636 21.52V25H255.548C254.06 25 252.9 24.64 252.068 23.92C251.236 23.184 250.82 21.992 250.82 20.344V15.016H249.188V11.608H250.82V8.344H254.924V11.608H257.612V15.016H254.924V20.392C254.924 20.792 255.02 21.08 255.212 21.256C255.404 21.432 255.724 21.52 256.172 21.52H257.636Z" fill="black"/>
<path d="M81.768 57.112C81.032 57.112 80.3707 56.984 79.784 56.728C79.208 56.4613 78.7547 56.0987 78.424 55.64C78.0933 55.1707 77.9227 54.632 77.912 54.024H79.464C79.5173 54.5467 79.7307 54.9893 80.104 55.352C80.488 55.704 81.0427 55.88 81.768 55.88C82.4613 55.88 83.0053 55.7093 83.4 55.368C83.8053 55.016 84.008 54.568 84.008 54.024C84.008 53.5973 83.8907 53.2507 83.656 52.984C83.4213 52.7173 83.128 52.5147 82.776 52.376C82.424 52.2373 81.9493 52.088 81.352 51.928C80.616 51.736 80.024 51.544 79.576 51.352C79.1387 51.16 78.76 50.8613 78.44 50.456C78.1307 50.04 77.976 49.4853 77.976 48.792C77.976 48.184 78.1307 47.6453 78.44 47.176C78.7493 46.7067 79.1813 46.344 79.736 46.088C80.3013 45.832 80.9467 45.704 81.672 45.704C82.7173 45.704 83.5707 45.9653 84.232 46.488C84.904 47.0107 85.2827 47.704 85.368 48.568H83.768C83.7147 48.1413 83.4907 47.768 83.096 47.448C82.7013 47.1173 82.1787 46.952 81.528 46.952C80.92 46.952 80.424 47.112 80.04 47.432C79.656 47.7413 79.464 48.1787 79.464 48.744C79.464 49.1493 79.576 49.48 79.8 49.736C80.0347 49.992 80.3173 50.1893 80.648 50.328C80.9893 50.456 81.464 50.6053 82.072 50.776C82.808 50.9787 83.4 51.1813 83.848 51.384C84.296 51.576 84.68 51.88 85 52.296C85.32 52.7013 85.48 53.256 85.48 53.96C85.48 54.504 85.336 55.016 85.048 55.496C84.76 55.976 84.3333 56.3653 83.768 56.664C83.2027 56.9627 82.536 57.112 81.768 57.112ZM89.0786 49.848C89.3666 49.3467 89.7933 48.9307 90.3586 48.6C90.9346 48.2587 91.6013 48.088 92.3586 48.088C93.1373 48.088 93.8413 48.2747 94.4706 48.648C95.1106 49.0213 95.612 49.5493 95.9746 50.232C96.3373 50.904 96.5186 51.688 96.5186 52.584C96.5186 53.4693 96.3373 54.2587 95.9746 54.952C95.612 55.6453 95.1106 56.184 94.4706 56.568C93.8413 56.952 93.1373 57.144 92.3586 57.144C91.612 57.144 90.9506 56.9787 90.3746 56.648C89.8093 56.3067 89.3773 55.8853 89.0786 55.384V61.16H87.6226V48.232H89.0786V49.848ZM95.0306 52.584C95.0306 51.9227 94.8973 51.3467 94.6306 50.856C94.364 50.3653 94.0013 49.992 93.5426 49.736C93.0946 49.48 92.5986 49.352 92.0546 49.352C91.5213 49.352 91.0253 49.4853 90.5666 49.752C90.1186 50.008 89.756 50.3867 89.4786 50.888C89.212 51.3787 89.0786 51.9493 89.0786 52.6C89.0786 53.2613 89.212 53.8427 89.4786 54.344C89.756 54.8347 90.1186 55.2133 90.5666 55.48C91.0253 55.736 91.5213 55.864 92.0546 55.864C92.5986 55.864 93.0946 55.736 93.5426 55.48C94.0013 55.2133 94.364 54.8347 94.6306 54.344C94.8973 53.8427 95.0306 53.256 95.0306 52.584ZM99.8911 45.16V57H98.4351V45.16H99.8911ZM103.125 46.808C102.847 46.808 102.613 46.712 102.421 46.52C102.229 46.328 102.133 46.0933 102.133 45.816C102.133 45.5387 102.229 45.304 102.421 45.112C102.613 44.92 102.847 44.824 103.125 44.824C103.391 44.824 103.615 44.92 103.797 45.112C103.989 45.304 104.085 45.5387 104.085 45.816C104.085 46.0933 103.989 46.328 103.797 46.52C103.615 46.712 103.391 46.808 103.125 46.808ZM103.829 48.232V57H102.373V48.232H103.829ZM108.086 49.432V54.6C108.086 55.0267 108.177 55.3307 108.358 55.512C108.539 55.6827 108.854 55.768 109.302 55.768H110.374V57H109.062C108.251 57 107.643 56.8133 107.238 56.44C106.833 56.0667 106.63 55.4533 106.63 54.6V49.432H105.494V48.232H106.63V46.024H108.086V48.232H110.374V49.432H108.086ZM117.86 47.032V50.76H121.924V51.96H117.86V55.8H122.404V57H116.404V45.832H122.404V47.032H117.86ZM124.063 52.584C124.063 51.688 124.244 50.904 124.607 50.232C124.97 49.5493 125.466 49.0213 126.095 48.648C126.735 48.2747 127.444 48.088 128.223 48.088C128.991 48.088 129.658 48.2533 130.223 48.584C130.788 48.9147 131.21 49.3307 131.487 49.832V48.232H132.959V57H131.487V55.368C131.199 55.88 130.767 56.3067 130.191 56.648C129.626 56.9787 128.964 57.144 128.207 57.144C127.428 57.144 126.724 56.952 126.095 56.568C125.466 56.184 124.97 55.6453 124.607 54.952C124.244 54.2587 124.063 53.4693 124.063 52.584ZM131.487 52.6C131.487 51.9387 131.354 51.3627 131.087 50.872C130.82 50.3813 130.458 50.008 129.999 49.752C129.551 49.4853 129.055 49.352 128.511 49.352C127.967 49.352 127.471 49.48 127.023 49.736C126.575 49.992 126.218 50.3653 125.951 50.856C125.684 51.3467 125.551 51.9227 125.551 52.584C125.551 53.256 125.684 53.8427 125.951 54.344C126.218 54.8347 126.575 55.2133 127.023 55.48C127.471 55.736 127.967 55.864 128.511 55.864C129.055 55.864 129.551 55.736 129.999 55.48C130.458 55.2133 130.82 54.8347 131.087 54.344C131.354 53.8427 131.487 53.2613 131.487 52.6ZM138.524 57.144C137.852 57.144 137.249 57.032 136.716 56.808C136.182 56.5733 135.761 56.2533 135.452 55.848C135.142 55.432 134.972 54.9573 134.94 54.424H136.444C136.486 54.8613 136.689 55.2187 137.052 55.496C137.425 55.7733 137.91 55.912 138.508 55.912C139.062 55.912 139.5 55.7893 139.82 55.544C140.14 55.2987 140.3 54.9893 140.3 54.616C140.3 54.232 140.129 53.9493 139.788 53.768C139.446 53.576 138.918 53.3893 138.204 53.208C137.553 53.0373 137.02 52.8667 136.604 52.696C136.198 52.5147 135.846 52.2533 135.548 51.912C135.26 51.56 135.116 51.1013 135.116 50.536C135.116 50.088 135.249 49.6773 135.516 49.304C135.782 48.9307 136.161 48.6373 136.652 48.424C137.142 48.2 137.702 48.088 138.332 48.088C139.302 48.088 140.086 48.3333 140.684 48.824C141.281 49.3147 141.601 49.9867 141.644 50.84H140.188C140.156 50.3813 139.969 50.0133 139.628 49.736C139.297 49.4587 138.849 49.32 138.284 49.32C137.761 49.32 137.345 49.432 137.036 49.656C136.726 49.88 136.572 50.1733 136.572 50.536C136.572 50.824 136.662 51.064 136.844 51.256C137.036 51.4373 137.27 51.5867 137.548 51.704C137.836 51.8107 138.23 51.9333 138.732 52.072C139.361 52.2427 139.873 52.4133 140.268 52.584C140.662 52.744 140.998 52.9893 141.276 53.32C141.564 53.6507 141.713 54.0827 141.724 54.616C141.724 55.096 141.59 55.528 141.324 55.912C141.057 56.296 140.678 56.6 140.188 56.824C139.708 57.0373 139.153 57.144 138.524 57.144ZM144.531 46.808C144.254 46.808 144.019 46.712 143.827 46.52C143.635 46.328 143.539 46.0933 143.539 45.816C143.539 45.5387 143.635 45.304 143.827 45.112C144.019 44.92 144.254 44.824 144.531 44.824C144.798 44.824 145.022 44.92 145.203 45.112C145.395 45.304 145.491 45.5387 145.491 45.816C145.491 46.0933 145.395 46.328 145.203 46.52C145.022 46.712 144.798 46.808 144.531 46.808ZM145.235 48.232V57H143.779V48.232H145.235ZM149.172 45.16V57H147.716V45.16H149.172ZM159.206 48.232L153.926 61.128H152.422L154.15 56.904L150.614 48.232H152.23L154.982 55.336L157.702 48.232H159.206ZM173.383 49.08C173.074 48.4293 172.626 47.928 172.039 47.576C171.452 47.2133 170.77 47.032 169.991 47.032C169.212 47.032 168.508 47.2133 167.879 47.576C167.26 47.928 166.77 48.44 166.407 49.112C166.055 49.7733 165.879 50.5413 165.879 51.416C165.879 52.2907 166.055 53.0587 166.407 53.72C166.77 54.3813 167.26 54.8933 167.879 55.256C168.508 55.608 169.212 55.784 169.991 55.784C171.079 55.784 171.975 55.4587 172.679 54.808C173.383 54.1573 173.794 53.2773 173.911 52.168H169.463V50.984H175.463V52.104C175.378 53.0213 175.09 53.864 174.599 54.632C174.108 55.3893 173.463 55.992 172.663 56.44C171.863 56.8773 170.972 57.096 169.991 57.096C168.956 57.096 168.012 56.856 167.159 56.376C166.306 55.8853 165.628 55.208 165.127 54.344C164.636 53.48 164.391 52.504 164.391 51.416C164.391 50.328 164.636 49.352 165.127 48.488C165.628 47.6133 166.306 46.936 167.159 46.456C168.012 45.9653 168.956 45.72 169.991 45.72C171.175 45.72 172.22 46.0133 173.127 46.6C174.044 47.1867 174.711 48.0133 175.127 49.08H173.383ZM176.844 52.584C176.844 51.688 177.026 50.904 177.388 50.232C177.751 49.5493 178.247 49.0213 178.876 48.648C179.516 48.2747 180.226 48.088 181.004 48.088C181.772 48.088 182.439 48.2533 183.004 48.584C183.57 48.9147 183.991 49.3307 184.268 49.832V48.232H185.74V57H184.268V55.368C183.98 55.88 183.548 56.3067 182.972 56.648C182.407 56.9787 181.746 57.144 180.988 57.144C180.21 57.144 179.506 56.952 178.876 56.568C178.247 56.184 177.751 55.6453 177.388 54.952C177.026 54.2587 176.844 53.4693 176.844 52.584ZM184.268 52.6C184.268 51.9387 184.135 51.3627 183.868 50.872C183.602 50.3813 183.239 50.008 182.78 49.752C182.332 49.4853 181.836 49.352 181.292 49.352C180.748 49.352 180.252 49.48 179.804 49.736C179.356 49.992 178.999 50.3653 178.732 50.856C178.466 51.3467 178.332 51.9227 178.332 52.584C178.332 53.256 178.466 53.8427 178.732 54.344C178.999 54.8347 179.356 55.2133 179.804 55.48C180.252 55.736 180.748 55.864 181.292 55.864C181.836 55.864 182.332 55.736 182.78 55.48C183.239 55.2133 183.602 54.8347 183.868 54.344C184.135 53.8427 184.268 53.2613 184.268 52.6ZM189.977 49.432V54.6C189.977 55.0267 190.067 55.3307 190.249 55.512C190.43 55.6827 190.745 55.768 191.193 55.768H192.265V57H190.953C190.142 57 189.534 56.8133 189.129 56.44C188.723 56.0667 188.521 55.4533 188.521 54.6V49.432H187.385V48.232H188.521V46.024H189.977V48.232H192.265V49.432H189.977ZM198.381 48.072C199.042 48.072 199.64 48.216 200.173 48.504C200.706 48.7813 201.122 49.2027 201.421 49.768C201.73 50.3333 201.885 51.0213 201.885 51.832V57H200.445V52.04C200.445 51.1653 200.226 50.4987 199.789 50.04C199.352 49.5707 198.754 49.336 197.997 49.336C197.229 49.336 196.616 49.576 196.157 50.056C195.709 50.536 195.485 51.2347 195.485 52.152V57H194.029V45.16H195.485V49.48C195.773 49.032 196.168 48.6853 196.669 48.44C197.181 48.1947 197.752 48.072 198.381 48.072ZM212.263 52.28C212.263 52.5573 212.247 52.8507 212.215 53.16H205.207C205.261 54.024 205.554 54.7013 206.087 55.192C206.631 55.672 207.287 55.912 208.055 55.912C208.685 55.912 209.207 55.768 209.623 55.48C210.05 55.1813 210.349 54.7867 210.519 54.296H212.087C211.853 55.1387 211.383 55.8267 210.679 56.36C209.975 56.8827 209.101 57.144 208.055 57.144C207.223 57.144 206.477 56.9573 205.815 56.584C205.165 56.2107 204.653 55.6827 204.279 55C203.906 54.3067 203.719 53.5067 203.719 52.6C203.719 51.6933 203.901 50.8987 204.263 50.216C204.626 49.5333 205.133 49.0107 205.783 48.648C206.445 48.2747 207.202 48.088 208.055 48.088C208.887 48.088 209.623 48.2693 210.263 48.632C210.903 48.9947 211.394 49.496 211.735 50.136C212.087 50.7653 212.263 51.48 212.263 52.28ZM210.759 51.976C210.759 51.4213 210.637 50.9467 210.391 50.552C210.146 50.1467 209.81 49.8427 209.383 49.64C208.967 49.4267 208.503 49.32 207.991 49.32C207.255 49.32 206.626 49.5547 206.103 50.024C205.591 50.4933 205.298 51.144 205.223 51.976H210.759ZM215.641 49.656C215.897 49.1547 216.26 48.7653 216.729 48.488C217.209 48.2107 217.79 48.072 218.473 48.072V49.576H218.089C216.457 49.576 215.641 50.4613 215.641 52.232V57H214.185V48.232H215.641V49.656ZM233.012 45.848V57H231.556V51.944H225.876V57H224.42V45.848H225.876V50.744H231.556V45.848H233.012ZM234.954 52.584C234.954 51.688 235.135 50.904 235.498 50.232C235.86 49.5493 236.356 49.0213 236.986 48.648C237.626 48.2747 238.335 48.088 239.114 48.088C239.882 48.088 240.548 48.2533 241.114 48.584C241.679 48.9147 242.1 49.3307 242.378 49.832V48.232H243.85V57H242.378V55.368C242.09 55.88 241.658 56.3067 241.082 56.648C240.516 56.9787 239.855 57.144 239.098 57.144C238.319 57.144 237.615 56.952 236.986 56.568C236.356 56.184 235.86 55.6453 235.498 54.952C235.135 54.2587 234.954 53.4693 234.954 52.584ZM242.378 52.6C242.378 51.9387 242.244 51.3627 241.978 50.872C241.711 50.3813 241.348 50.008 240.89 49.752C240.442 49.4853 239.946 49.352 239.402 49.352C238.858 49.352 238.362 49.48 237.914 49.736C237.466 49.992 237.108 50.3653 236.842 50.856C236.575 51.3467 236.442 51.9227 236.442 52.584C236.442 53.256 236.575 53.8427 236.842 54.344C237.108 54.8347 237.466 55.2133 237.914 55.48C238.362 55.736 238.858 55.864 239.402 55.864C239.946 55.864 240.442 55.736 240.89 55.48C241.348 55.2133 241.711 54.8347 241.978 54.344C242.244 53.8427 242.378 53.2613 242.378 52.6ZM247.766 49.848C248.054 49.3467 248.481 48.9307 249.046 48.6C249.622 48.2587 250.289 48.088 251.046 48.088C251.825 48.088 252.529 48.2747 253.158 48.648C253.798 49.0213 254.299 49.5493 254.662 50.232C255.025 50.904 255.206 51.688 255.206 52.584C255.206 53.4693 255.025 54.2587 254.662 54.952C254.299 55.6453 253.798 56.184 253.158 56.568C252.529 56.952 251.825 57.144 251.046 57.144C250.299 57.144 249.638 56.9787 249.062 56.648C248.497 56.3067 248.065 55.8853 247.766 55.384V61.16H246.31V48.232H247.766V49.848ZM253.718 52.584C253.718 51.9227 253.585 51.3467 253.318 50.856C253.051 50.3653 252.689 49.992 252.23 49.736C251.782 49.48 251.286 49.352 250.742 49.352C250.209 49.352 249.713 49.4853 249.254 49.752C248.806 50.008 248.443 50.3867 248.166 50.888C247.899 51.3787 247.766 51.9493 247.766 52.6C247.766 53.2613 247.899 53.8427 248.166 54.344C248.443 54.8347 248.806 55.2133 249.254 55.48C249.713 55.736 250.209 55.864 250.742 55.864C251.286 55.864 251.782 55.736 252.23 55.48C252.689 55.2133 253.051 54.8347 253.318 54.344C253.585 53.8427 253.718 53.256 253.718 52.584ZM258.579 49.848C258.867 49.3467 259.293 48.9307 259.859 48.6C260.435 48.2587 261.101 48.088 261.859 48.088C262.637 48.088 263.341 48.2747 263.971 48.648C264.611 49.0213 265.112 49.5493 265.475 50.232C265.837 50.904 266.019 51.688 266.019 52.584C266.019 53.4693 265.837 54.2587 265.475 54.952C265.112 55.6453 264.611 56.184 263.971 56.568C263.341 56.952 262.637 57.144 261.859 57.144C261.112 57.144 260.451 56.9787 259.875 56.648C259.309 56.3067 258.877 55.8853 258.579 55.384V61.16H257.123V48.232H258.579V49.848ZM264.531 52.584C264.531 51.9227 264.397 51.3467 264.131 50.856C263.864 50.3653 263.501 49.992 263.043 49.736C262.595 49.48 262.099 49.352 261.555 49.352C261.021 49.352 260.525 49.4853 260.067 49.752C259.619 50.008 259.256 50.3867 258.979 50.888C258.712 51.3787 258.579 51.9493 258.579 52.6C258.579 53.2613 258.712 53.8427 258.979 54.344C259.256 54.8347 259.619 55.2133 260.067 55.48C260.525 55.736 261.021 55.864 261.555 55.864C262.099 55.864 262.595 55.736 263.043 55.48C263.501 55.2133 263.864 54.8347 264.131 54.344C264.397 53.8427 264.531 53.256 264.531 52.584ZM268.687 46.808C268.41 46.808 268.175 46.712 267.983 46.52C267.791 46.328 267.695 46.0933 267.695 45.816C267.695 45.5387 267.791 45.304 267.983 45.112C268.175 44.92 268.41 44.824 268.687 44.824C268.954 44.824 269.178 44.92 269.359 45.112C269.551 45.304 269.647 45.5387 269.647 45.816C269.647 46.0933 269.551 46.328 269.359 46.52C269.178 46.712 268.954 46.808 268.687 46.808ZM269.391 48.232V57H267.935V48.232H269.391ZM273.329 45.16V57H271.873V45.16H273.329ZM283.362 48.232L278.082 61.128H276.578L278.306 56.904L274.77 48.232H276.386L279.138 55.336L281.858 48.232H283.362Z" fill="black" fill-opacity="0.5"/>
<path d="M5 79.5L-2.52368e-07 77.1132L2.52368e-07 82.8868L5 80.5L5 79.5ZM4.5 80.5L162.5 80.5L162.5 79.5L4.5 79.5L4.5 80.5Z" fill="black"/>
<circle cx="168.5" cy="80" r="2" fill="black"/>
<circle cx="176.5" cy="80" r="2" fill="black"/>
<circle cx="184.5" cy="80" r="2" fill="black"/>
<circle cx="192.5" cy="80" r="2" fill="black"/>
<path d="M356 80.5L361 82.8867L361 77.1132L356 79.5L356 80.5ZM198.5 80.5L356.5 80.5L356.5 79.5L198.5 79.5L198.5 80.5Z" fill="black"/>
<defs>
<clipPath id="clip0_671_6270">
<rect x="102.5" y="2" width="30" height="30" rx="8" fill="white"/>
</clipPath>
</defs>
</svg>
