<svg width="90" height="90" viewBox="0 0 90 90" fill="none" xmlns="http://www.w3.org/2000/svg">
<g id="processing">
<g id="Group 52">
<path id="Ellipse 12" fill-rule="evenodd" clip-rule="evenodd" d="M72.7524 88.056C74.8843 88.056 77.002 87.4322 78.5799 85.9987C84.1852 80.9061 87.7046 73.5581 87.7046 65.3882C87.7046 50.0133 75.2408 37.5494 59.8658 37.5494C44.4909 37.5494 32.0271 50.0133 32.0271 65.3882C32.0271 73.5581 35.5465 80.9061 41.1518 85.9987C42.7297 87.4322 44.8474 88.056 46.9792 88.056H72.7524Z" fill="#94D1E4"/>
<rect id="Rectangle 1329132027" x="50.2073" y="53.2046" width="2.6342" height="6.14648" rx="1.3171" fill="black"/>
<g id="Group 53">
<path id="Union" fill-rule="evenodd" clip-rule="evenodd" d="M72.3325 34.8705C72.0928 33.193 70.5387 32.0274 68.8612 32.2671C67.1837 32.5067 66.0182 34.0608 66.2578 35.7383L67.1558 42.0245C67.3955 43.702 68.9496 44.8676 70.6271 44.6279C70.672 44.6215 70.7165 44.6142 70.7606 44.6059C70.8501 44.7437 70.9518 44.876 71.0659 45.0015C72.2058 46.2554 74.1462 46.3478 75.4001 45.2079L80.3392 40.7178C81.593 39.5779 81.6854 37.6375 80.5456 36.3836C79.4057 35.1298 77.4653 35.0374 76.2114 36.1772L72.9436 39.148L72.3325 34.8705Z" fill="#94D1E4"/>
</g>
<g id="Group 51">
<circle id="Ellipse 15" cx="58.0697" cy="50.1217" r="4.49012" fill="white"/>
<circle id="Ellipse 16" cx="59.0476" cy="48.8742" r="2.69407" fill="black"/>
</g>
<g id="Group 50">
<circle id="Ellipse 14" cx="46.3954" cy="50.1217" r="4.49012" fill="white"/>
<circle id="Ellipse 17" cx="47.6325" cy="48.8742" r="2.69407" fill="black"/>
</g>
</g>
<path id="Wifi" fill-rule="evenodd" clip-rule="evenodd" d="M31.501 18.2013C36.8694 18.2015 42.0325 20.1462 45.9232 23.6333C46.2162 23.9025 46.6845 23.8991 46.973 23.6257L49.7736 20.9611C49.9197 20.8224 50.0012 20.6345 50 20.4391C49.9988 20.2436 49.915 20.0567 49.7672 19.9196C39.5554 10.6935 23.445 10.6935 13.2332 19.9196C13.0853 20.0566 13.0014 20.2435 13 20.4389C12.9987 20.6344 13.08 20.8223 13.226 20.9611L16.0274 23.6257C16.3158 23.8995 16.7844 23.9029 17.0772 23.6333C20.9684 20.1459 26.1321 18.2013 31.501 18.2013ZM31.4938 27.1017C34.4235 27.1016 37.2487 28.1808 39.4204 30.1298C39.7141 30.4064 40.1768 30.4004 40.4632 30.1162L43.2418 27.3339C43.3881 27.1879 43.4693 26.9899 43.4672 26.7842C43.465 26.5785 43.3798 26.3822 43.2305 26.2392C36.6173 20.1425 26.3759 20.1425 19.7626 26.2392C19.6132 26.3822 19.528 26.5786 19.5261 26.7844C19.5241 26.9902 19.6056 27.1881 19.7522 27.3339L22.53 30.1162C22.8163 30.4004 23.279 30.4064 23.5727 30.1298C25.743 28.1821 28.566 27.1029 31.4938 27.1017ZM36.9427 32.9932C36.9468 33.2154 36.8669 33.4296 36.7216 33.5853L32.0233 38.7622C31.8856 38.9144 31.6978 39 31.5019 39C31.306 39 31.1182 38.9144 30.9805 38.7622L26.2814 33.5853C26.1362 33.4295 26.0564 33.2152 26.0607 32.9931C26.065 32.7709 26.153 32.5605 26.3041 32.4116C29.3046 29.6406 33.6991 29.6406 36.6996 32.4116C36.8506 32.5606 36.9385 32.7711 36.9427 32.9932Z" fill="white"/>
</g>
</svg>
