<svg width="91" height="90" viewBox="0 0 91 90" fill="none" xmlns="http://www.w3.org/2000/svg">
<path fill-rule="evenodd" clip-rule="evenodd" d="M60.1544 87.7002C62.2862 87.7002 64.3993 87.0724 65.9949 85.6587C72.4383 79.9498 76.4998 71.6129 76.4998 62.3273C76.4998 45.1175 62.5485 31.1663 45.3388 31.1663C28.129 31.1663 14.1777 45.1175 14.1777 62.3273C14.1777 71.6129 18.2392 79.9498 24.6826 85.6587C26.2782 87.0724 28.3913 87.7002 30.5231 87.7002H60.1544Z" fill="#94D1E4"/>
<path fill-rule="evenodd" clip-rule="evenodd" d="M49.1227 26.8445C50.0957 25.4572 52.0091 25.1214 53.3964 26.0944C54.7837 27.0674 55.1195 28.9808 54.1465 30.3681L50.0651 36.1873C49.092 37.5746 47.1786 37.9104 45.7913 36.9374C45.6839 36.862 45.5827 36.781 45.4879 36.695C45.2859 36.8356 45.0636 36.9539 44.8231 37.0453C43.2392 37.6474 41.4671 36.8514 40.865 35.2674L38.2104 28.2833C37.6084 26.6993 38.4044 24.9272 39.9883 24.3252C41.5723 23.7231 43.3444 24.5191 43.9464 26.1031L45.9484 31.3702L49.1227 26.8445Z" fill="#94D1E4"/>
<circle cx="38.2435" cy="45.6621" r="6.15637" fill="white"/>
<circle cx="38.2432" cy="45.6625" r="2.79835" fill="black"/>
<circle cx="52.7948" cy="45.6623" r="6.15637" fill="white"/>
<circle cx="52.7949" cy="45.6624" r="2.79835" fill="black"/>
<path d="M38.8035 54.0574H52.2355" stroke="black" stroke-width="3" stroke-linecap="round"/>
</svg>
