<svg width="30" height="28" viewBox="0 0 30 28" fill="none" xmlns="http://www.w3.org/2000/svg">
<path d="M4.69614 25.6372L13.4915 16.8418C14.0196 16.3138 14.2836 16.0498 14.588 15.9509C14.8558 15.8639 15.1443 15.8639 15.412 15.9509C15.7165 16.0498 15.9805 16.3138 16.5085 16.8418L25.2452 25.5786M17.6667 18L21.4915 14.1752C22.0195 13.6471 22.2836 13.3831 22.588 13.2842C22.8558 13.1972 23.1443 13.1972 23.412 13.2842C23.7165 13.3831 23.9805 13.6471 24.5085 14.1752L28.3334 18M12.3334 10C12.3334 11.4728 11.1394 12.6667 9.66669 12.6667C8.19393 12.6667 7.00002 11.4728 7.00002 10C7.00002 8.52724 8.19393 7.33333 9.66669 7.33333C11.1394 7.33333 12.3334 8.52724 12.3334 10ZM8.06669 26H21.9334C24.1736 26 25.2937 26 26.1493 25.564C26.902 25.1805 27.5139 24.5686 27.8974 23.816C28.3334 22.9603 28.3334 21.8402 28.3334 19.6V8.4C28.3334 6.15979 28.3334 5.03969 27.8974 4.18404C27.5139 3.43139 26.902 2.81947 26.1493 2.43597C25.2937 2 24.1736 2 21.9334 2H8.06669C5.82648 2 4.70637 2 3.85073 2.43597C3.09808 2.81947 2.48615 3.43139 2.10266 4.18404C1.66669 5.03969 1.66669 6.15979 1.66669 8.4V19.6C1.66669 21.8402 1.66669 22.9603 2.10266 23.816C2.48615 24.5686 3.09808 25.1805 3.85073 25.564C4.70637 26 5.82648 26 8.06669 26Z" stroke="white" stroke-width="3" stroke-linecap="round" stroke-linejoin="round"/>
</svg>
