<svg width="126" height="38" viewBox="0 0 126 38" fill="none" xmlns="http://www.w3.org/2000/svg">
<rect width="126" height="38" rx="19" fill="#0DAADC"/>
<path d="M31.104 25L28.448 20.44H26.688V25H25.232V13.848H28.832C29.6747 13.848 30.384 13.992 30.96 14.28C31.5467 14.568 31.984 14.9573 32.272 15.448C32.56 15.9387 32.704 16.4987 32.704 17.128C32.704 17.896 32.48 18.5733 32.032 19.16C31.5947 19.7467 30.9333 20.136 30.048 20.328L32.848 25H31.104ZM26.688 19.272H28.832C29.6213 19.272 30.2133 19.08 30.608 18.696C31.0027 18.3013 31.2 17.7787 31.2 17.128C31.2 16.4667 31.0027 15.9547 30.608 15.592C30.224 15.2293 29.632 15.048 28.832 15.048H26.688V19.272ZM42.9664 20.28C42.9664 20.5573 42.9504 20.8507 42.9184 21.16H35.9104C35.9637 22.024 36.257 22.7013 36.7904 23.192C37.3344 23.672 37.9904 23.912 38.7584 23.912C39.3877 23.912 39.9104 23.768 40.3264 23.48C40.753 23.1813 41.0517 22.7867 41.2224 22.296H42.7904C42.5557 23.1387 42.0864 23.8267 41.3824 24.36C40.6784 24.8827 39.8037 25.144 38.7584 25.144C37.9264 25.144 37.1797 24.9573 36.5184 24.584C35.8677 24.2107 35.3557 23.6827 34.9824 23C34.609 22.3067 34.4224 21.5067 34.4224 20.6C34.4224 19.6933 34.6037 18.8987 34.9664 18.216C35.329 17.5333 35.8357 17.0107 36.4864 16.648C37.1477 16.2747 37.905 16.088 38.7584 16.088C39.5904 16.088 40.3264 16.2693 40.9664 16.632C41.6064 16.9947 42.097 17.496 42.4384 18.136C42.7904 18.7653 42.9664 19.48 42.9664 20.28ZM41.4624 19.976C41.4624 19.4213 41.3397 18.9467 41.0944 18.552C40.849 18.1467 40.513 17.8427 40.0864 17.64C39.6704 17.4267 39.2064 17.32 38.6944 17.32C37.9584 17.32 37.329 17.5547 36.8064 18.024C36.2944 18.4933 36.001 19.144 35.9264 19.976H41.4624ZM44.3443 20.584C44.3443 19.688 44.5256 18.904 44.8883 18.232C45.2509 17.5493 45.7469 17.0213 46.3763 16.648C47.0163 16.2747 47.7309 16.088 48.5203 16.088C49.2029 16.088 49.8376 16.248 50.4243 16.568C51.0109 16.8773 51.4589 17.288 51.7683 17.8V13.16H53.2403V25H51.7683V23.352C51.4803 23.8747 51.0536 24.3067 50.4883 24.648C49.9229 24.9787 49.2616 25.144 48.5043 25.144C47.7256 25.144 47.0163 24.952 46.3763 24.568C45.7469 24.184 45.2509 23.6453 44.8883 22.952C44.5256 22.2587 44.3443 21.4693 44.3443 20.584ZM51.7683 20.6C51.7683 19.9387 51.6349 19.3627 51.3683 18.872C51.1016 18.3813 50.7389 18.008 50.2803 17.752C49.8323 17.4853 49.3363 17.352 48.7923 17.352C48.2483 17.352 47.7523 17.48 47.3043 17.736C46.8563 17.992 46.4989 18.3653 46.2323 18.856C45.9656 19.3467 45.8323 19.9227 45.8323 20.584C45.8323 21.256 45.9656 21.8427 46.2323 22.344C46.4989 22.8347 46.8563 23.2133 47.3043 23.48C47.7523 23.736 48.2483 23.864 48.7923 23.864C49.3363 23.864 49.8323 23.736 50.2803 23.48C50.7389 23.2133 51.1016 22.8347 51.3683 22.344C51.6349 21.8427 51.7683 21.2613 51.7683 20.6ZM59.5248 25.144C58.7034 25.144 57.9568 24.9573 57.2848 24.584C56.6234 24.2107 56.1008 23.6827 55.7168 23C55.3434 22.3067 55.1568 21.5067 55.1568 20.6C55.1568 19.704 55.3488 18.9147 55.7328 18.232C56.1274 17.5387 56.6608 17.0107 57.3328 16.648C58.0048 16.2747 58.7568 16.088 59.5888 16.088C60.4208 16.088 61.1728 16.2747 61.8448 16.648C62.5168 17.0107 63.0448 17.5333 63.4288 18.216C63.8234 18.8987 64.0208 19.6933 64.0208 20.6C64.0208 21.5067 63.8181 22.3067 63.4128 23C63.0181 23.6827 62.4794 24.2107 61.7968 24.584C61.1141 24.9573 60.3568 25.144 59.5248 25.144ZM59.5248 23.864C60.0474 23.864 60.5381 23.7413 60.9968 23.496C61.4554 23.2507 61.8234 22.8827 62.1008 22.392C62.3888 21.9013 62.5328 21.304 62.5328 20.6C62.5328 19.896 62.3941 19.2987 62.1168 18.808C61.8394 18.3173 61.4768 17.9547 61.0288 17.72C60.5808 17.4747 60.0954 17.352 59.5728 17.352C59.0394 17.352 58.5488 17.4747 58.1008 17.72C57.6634 17.9547 57.3114 18.3173 57.0448 18.808C56.7781 19.2987 56.6448 19.896 56.6448 20.6C56.6448 21.3147 56.7728 21.9173 57.0288 22.408C57.2954 22.8987 57.6474 23.2667 58.0848 23.512C58.5221 23.7467 59.0021 23.864 59.5248 23.864ZM73.3048 25.144C72.6328 25.144 72.0301 25.032 71.4968 24.808C70.9634 24.5733 70.5421 24.2533 70.2328 23.848C69.9234 23.432 69.7528 22.9573 69.7208 22.424H71.2248C71.2674 22.8613 71.4701 23.2187 71.8328 23.496C72.2061 23.7733 72.6914 23.912 73.2888 23.912C73.8434 23.912 74.2808 23.7893 74.6008 23.544C74.9208 23.2987 75.0808 22.9893 75.0808 22.616C75.0808 22.232 74.9101 21.9493 74.5688 21.768C74.2274 21.576 73.6994 21.3893 72.9848 21.208C72.3341 21.0373 71.8008 20.8667 71.3848 20.696C70.9794 20.5147 70.6274 20.2533 70.3288 19.912C70.0408 19.56 69.8968 19.1013 69.8968 18.536C69.8968 18.088 70.0301 17.6773 70.2968 17.304C70.5634 16.9307 70.9421 16.6373 71.4328 16.424C71.9234 16.2 72.4834 16.088 73.1128 16.088C74.0834 16.088 74.8674 16.3333 75.4648 16.824C76.0621 17.3147 76.3821 17.9867 76.4248 18.84H74.9688C74.9368 18.3813 74.7501 18.0133 74.4088 17.736C74.0781 17.4587 73.6301 17.32 73.0648 17.32C72.5421 17.32 72.1261 17.432 71.8168 17.656C71.5074 17.88 71.3528 18.1733 71.3528 18.536C71.3528 18.824 71.4434 19.064 71.6248 19.256C71.8168 19.4373 72.0514 19.5867 72.3288 19.704C72.6168 19.8107 73.0114 19.9333 73.5128 20.072C74.1421 20.2427 74.6541 20.4133 75.0488 20.584C75.4434 20.744 75.7794 20.9893 76.0568 21.32C76.3448 21.6507 76.4941 22.0827 76.5048 22.616C76.5048 23.096 76.3714 23.528 76.1048 23.912C75.8381 24.296 75.4594 24.6 74.9688 24.824C74.4888 25.0373 73.9341 25.144 73.3048 25.144ZM80.0161 17.848C80.3041 17.3467 80.7308 16.9307 81.2961 16.6C81.8721 16.2587 82.5388 16.088 83.2961 16.088C84.0748 16.088 84.7788 16.2747 85.4081 16.648C86.0481 17.0213 86.5495 17.5493 86.9121 18.232C87.2748 18.904 87.4561 19.688 87.4561 20.584C87.4561 21.4693 87.2748 22.2587 86.9121 22.952C86.5495 23.6453 86.0481 24.184 85.4081 24.568C84.7788 24.952 84.0748 25.144 83.2961 25.144C82.5495 25.144 81.8881 24.9787 81.3121 24.648C80.7468 24.3067 80.3148 23.8853 80.0161 23.384V29.16H78.5601V16.232H80.0161V17.848ZM85.9681 20.584C85.9681 19.9227 85.8348 19.3467 85.5681 18.856C85.3015 18.3653 84.9388 17.992 84.4801 17.736C84.0321 17.48 83.5361 17.352 82.9921 17.352C82.4588 17.352 81.9628 17.4853 81.5041 17.752C81.0561 18.008 80.6935 18.3867 80.4161 18.888C80.1495 19.3787 80.0161 19.9493 80.0161 20.6C80.0161 21.2613 80.1495 21.8427 80.4161 22.344C80.6935 22.8347 81.0561 23.2133 81.5041 23.48C81.9628 23.736 82.4588 23.864 82.9921 23.864C83.5361 23.864 84.0321 23.736 84.4801 23.48C84.9388 23.2133 85.3015 22.8347 85.5681 22.344C85.8348 21.8427 85.9681 21.256 85.9681 20.584ZM90.8286 13.16V25H89.3726V13.16H90.8286ZM94.0621 14.808C93.7848 14.808 93.5501 14.712 93.3581 14.52C93.1661 14.328 93.0701 14.0933 93.0701 13.816C93.0701 13.5387 93.1661 13.304 93.3581 13.112C93.5501 12.92 93.7848 12.824 94.0621 12.824C94.3288 12.824 94.5528 12.92 94.7341 13.112C94.9261 13.304 95.0221 13.5387 95.0221 13.816C95.0221 14.0933 94.9261 14.328 94.7341 14.52C94.5528 14.712 94.3288 14.808 94.0621 14.808ZM94.7661 16.232V25H93.3101V16.232H94.7661ZM99.0236 17.432V22.6C99.0236 23.0267 99.1143 23.3307 99.2956 23.512C99.477 23.6827 99.7916 23.768 100.24 23.768H101.312V25H99.9996C99.189 25 98.581 24.8133 98.1756 24.44C97.7703 24.0667 97.5676 23.4533 97.5676 22.6V17.432H96.4316V16.232H97.5676V14.024H99.0236V16.232H101.312V17.432H99.0236Z" fill="white"/>
</svg>
