<svg width="60" height="60" viewBox="0 0 60 60" fill="none" xmlns="http://www.w3.org/2000/svg">
<path fill-rule="evenodd" clip-rule="evenodd" d="M44 8.3333C47.6819 8.3333 50.6667 11.3181 50.6667 15V21C50.6667 21.7364 51.2636 22.3333 52 22.3333C52.7363 22.3333 53.3333 21.7364 53.3333 21V15C53.3333 9.84535 49.1546 5.66669 44 5.66669H38C37.2636 5.66669 36.6667 6.26363 36.6667 6.99999C36.6667 7.73636 37.2636 8.3333 38 8.3333H44ZM8.33311 15C8.33311 11.3181 11.3179 8.33331 14.9998 8.33331H20.9998C21.7362 8.33331 22.3331 7.73636 22.3331 7C22.3331 6.26364 21.7362 5.66669 20.9998 5.66669H14.9998C9.84517 5.66669 5.6665 9.84536 5.6665 15V21C5.6665 21.7364 6.26344 22.3333 6.99981 22.3333C7.73617 22.3333 8.33311 21.7364 8.33311 21V15ZM8.33331 44C8.33331 47.6819 11.3181 50.6667 15 50.6667H21C21.7364 50.6667 22.3333 51.2636 22.3333 52C22.3333 52.7364 21.7364 53.3333 21 53.3333H15C9.84536 53.3333 5.66669 49.1546 5.66669 44V38C5.66669 37.2636 6.26364 36.6667 7 36.6667C7.73636 36.6667 8.33331 37.2636 8.33331 38V44ZM50.6667 44C50.6667 47.6819 47.6819 50.6667 44 50.6667H38C37.2636 50.6667 36.6667 51.2636 36.6667 52C36.6667 52.7364 37.2636 53.3333 38 53.3333H44C49.1546 53.3333 53.3333 49.1546 53.3333 44V38C53.3333 37.2636 52.7364 36.6667 52 36.6667C51.2636 36.6667 50.6667 37.2636 50.6667 38V44Z" fill="white"/>
<path fill-rule="evenodd" clip-rule="evenodd" d="M26.5 17C24.567 17 23 18.5842 23 20.5385H19.5C17.567 20.5385 16 22.1227 16 24.0769V36.4615C16 38.4158 17.567 40 19.5 40H40.5C42.433 40 44 38.4158 44 36.4615V24.0769C44 22.1227 42.433 20.5385 40.5 20.5385H37C37 18.5842 35.433 17 33.5 17H26.5ZM34.0774 30.2692C34.0774 32.5459 32.2519 34.3915 29.9999 34.3915C27.748 34.3915 25.9224 32.5459 25.9224 30.2692C25.9224 27.9925 27.748 26.1469 29.9999 26.1469C32.2519 26.1469 34.0774 27.9925 34.0774 30.2692ZM36.9999 30.2692C36.9999 34.1777 33.8659 37.3462 29.9999 37.3462C26.1339 37.3462 22.9999 34.1777 22.9999 30.2692C22.9999 26.3608 26.1339 23.1923 29.9999 23.1923C33.8659 23.1923 36.9999 26.3608 36.9999 30.2692Z" fill="white"/>
</svg>
