<svg width="24" height="24" viewBox="0 0 24 24" fill="none" xmlns="http://www.w3.org/2000/svg">
<path d="M9.5002 5.5H7.7002C6.58009 5.5 6.01962 5.5 5.5918 5.71799C5.21547 5.90973 4.90973 6.21547 4.71799 6.5918C4.5 7.01962 4.5 7.58009 4.5 8.7002V16.3002C4.5 17.4203 4.5 17.9801 4.71799 18.4079C4.90973 18.7842 5.21547 19.0905 5.5918 19.2822C6.0192 19.5 6.57899 19.5 7.69691 19.5H15.3031C16.421 19.5 16.98 19.5 17.4074 19.2822C17.7837 19.0905 18.0905 18.7839 18.2822 18.4076C18.5 17.9802 18.5 17.421 18.5 16.3031V14.5M19.5 9.5V4.5M19.5 4.5H14.5M19.5 4.5L12.5 11.5" stroke="black" stroke-width="2" stroke-linecap="round" stroke-linejoin="round"/>
</svg>
