<svg width="20" height="20" viewBox="0 0 20 20" fill="none" xmlns="http://www.w3.org/2000/svg">
<path d="M6.66667 6.83333C6.66667 8.67428 8.15905 10.1667 10 10.1667C11.8409 10.1667 13.3333 8.67428 13.3333 6.83333C13.3333 4.99238 11.8409 3.5 10 3.5C8.15905 3.5 6.66667 4.99238 6.66667 6.83333Z" fill="#94D1E4"/>
<path d="M10 12.6667C12.7614 12.6667 15 14.1591 15 16H5C5 14.1591 7.23858 12.6667 10 12.6667Z" fill="#94D1E4"/>
<path d="M6.66667 6.83333C6.66667 8.67428 8.15905 10.1667 10 10.1667C11.8409 10.1667 13.3333 8.67428 13.3333 6.83333C13.3333 4.99238 11.8409 3.5 10 3.5C8.15905 3.5 6.66667 4.99238 6.66667 6.83333Z" stroke="#94D1E4" stroke-width="2" stroke-linecap="round" stroke-linejoin="round"/>
<path d="M10 12.6667C12.7614 12.6667 15 14.1591 15 16H5C5 14.1591 7.23858 12.6667 10 12.6667Z" stroke="#94D1E4" stroke-width="2" stroke-linecap="round" stroke-linejoin="round"/>
</svg>
